<?xml version="1.0" encoding="UTF-8"?>
<svg id="Capa_2" data-name="Capa 2" xmlns="http://www.w3.org/2000/svg" viewBox="0 0 1111.9 252.34">
  <defs>
    <style>
      .cls-1 {
        fill: #925e43;
      }

      .cls-2 {
        fill: #fff;
      }
    </style>
  </defs>
  <g id="Capa_1-2" data-name="Capa 1">
    <g>
      <path class="cls-2" d="M31.68,58.67c-6.29,0-11.7-1.21-16.22-3.63s-7.98-5.84-10.37-10.25c-2.39-4.41-3.59-9.58-3.59-15.49s1.2-11.07,3.59-15.45c2.39-4.38,5.85-7.79,10.37-10.21S25.39,0,31.68,0c3.77,0,7.4.58,10.89,1.73,3.5,1.16,6.32,2.68,8.47,4.56l-4.44,11.7c-2.37-1.72-4.73-3-7.1-3.83-2.37-.83-4.79-1.25-7.26-1.25-5,0-8.77,1.41-11.3,4.24-2.53,2.82-3.79,6.87-3.79,12.15s1.26,9.4,3.79,12.23c2.53,2.82,6.29,4.24,11.3,4.24,2.47,0,4.9-.42,7.26-1.25,2.37-.83,4.73-2.11,7.1-3.83l4.44,11.7c-2.15,1.88-4.98,3.4-8.47,4.56-3.5,1.16-7.13,1.73-10.89,1.73Z"/>
      <path class="cls-2" d="M85.1,58.67c-5.76,0-10.8-1.22-15.13-3.67-4.33-2.45-7.71-5.88-10.13-10.29-2.42-4.41-3.63-9.55-3.63-15.41s1.2-11.07,3.59-15.45c2.39-4.38,5.77-7.79,10.13-10.21,4.36-2.42,9.41-3.63,15.17-3.63s10.8,1.21,15.13,3.63c4.33,2.42,7.71,5.82,10.13,10.21,2.42,4.39,3.63,9.54,3.63,15.45s-1.21,11-3.63,15.41c-2.42,4.41-5.8,7.84-10.13,10.29-4.33,2.45-9.38,3.67-15.13,3.67ZM85.1,46.24c4.2,0,7.49-1.49,9.89-4.48,2.39-2.99,3.59-7.14,3.59-12.47s-1.18-9.47-3.55-12.43c-2.37-2.96-5.68-4.44-9.93-4.44s-7.56,1.48-9.93,4.44c-2.37,2.96-3.55,7.1-3.55,12.43s1.18,9.48,3.55,12.47c2.37,2.99,5.68,4.48,9.93,4.48Z"/>
      <path class="cls-2" d="M124,57.78V.89h10.89l26.15,32.6V.89h13.72v56.89h-10.81l-26.15-32.6v32.6h-13.8Z"/>
      <path class="cls-2" d="M213.82,58.67c-5.76,0-10.8-1.22-15.13-3.67-4.33-2.45-7.71-5.88-10.13-10.29-2.42-4.41-3.63-9.55-3.63-15.41s1.2-11.07,3.59-15.45c2.39-4.38,5.77-7.79,10.13-10.21,4.36-2.42,9.41-3.63,15.17-3.63s10.8,1.21,15.13,3.63c4.33,2.42,7.71,5.82,10.13,10.21,2.42,4.39,3.63,9.54,3.63,15.45s-1.21,11-3.63,15.41c-2.42,4.41-5.8,7.84-10.13,10.29-4.33,2.45-9.38,3.67-15.13,3.67ZM213.82,46.24c4.2,0,7.49-1.49,9.89-4.48,2.39-2.99,3.59-7.14,3.59-12.47s-1.18-9.47-3.55-12.43c-2.37-2.96-5.68-4.44-9.93-4.44s-7.56,1.48-9.93,4.44c-2.37,2.96-3.55,7.1-3.55,12.43s1.18,9.48,3.55,12.47c2.37,2.99,5.68,4.48,9.93,4.48Z"/>
      <path class="cls-2" d="M281.44,58.67c-6.29,0-11.7-1.21-16.22-3.63s-7.98-5.84-10.37-10.25c-2.39-4.41-3.59-9.58-3.59-15.49s1.2-11.07,3.59-15.45c2.39-4.38,5.85-7.79,10.37-10.21s9.93-3.63,16.22-3.63c3.77,0,7.4.58,10.89,1.73,3.5,1.16,6.32,2.68,8.47,4.56l-4.44,11.7c-2.37-1.72-4.73-3-7.1-3.83-2.37-.83-4.79-1.25-7.26-1.25-5,0-8.77,1.41-11.3,4.24-2.53,2.82-3.79,6.87-3.79,12.15s1.26,9.4,3.79,12.23c2.53,2.82,6.29,4.24,11.3,4.24,2.47,0,4.9-.42,7.26-1.25,2.37-.83,4.73-2.11,7.1-3.83l4.44,11.7c-2.15,1.88-4.98,3.4-8.47,4.56-3.5,1.16-7.13,1.73-10.89,1.73Z"/>
      <path class="cls-2" d="M309.36,57.78V.89h40.19v11.46h-25.98v10.81h24.13v11.46h-24.13v11.7h25.98v11.46h-40.19Z"/>
      <path class="cls-2" d="M384.41,57.78V.89h14.85v44.55h25.34v12.35h-40.19Z"/>
      <path class="cls-2" d="M425.25,57.78L451.88.89h11.7l26.63,56.89h-14.85l-4.92-11.54h-25.42l-4.92,11.54h-14.85ZM457.61,16.38l-7.75,18.48h15.66l-7.75-18.48h-.16Z"/>
      <path class="cls-2" d="M515.3,58.67c-4.47,0-8.74-.55-12.83-1.65-4.09-1.1-7.45-2.57-10.09-4.4l4.12-11.54c2.47,1.67,5.38,2.99,8.72,3.95,3.34.97,6.7,1.45,10.09,1.45s6.04-.47,7.46-1.41c1.43-.94,2.14-2.11,2.14-3.51,0-1.24-.5-2.23-1.49-2.99-1-.75-2.76-1.4-5.29-1.94l-9.44-2.02c-10.22-2.21-15.33-7.56-15.33-16.06,0-3.71,1.01-6.97,3.03-9.76,2.02-2.8,4.83-4.96,8.43-6.5,3.6-1.53,7.8-2.3,12.59-2.3,3.93,0,7.65.55,11.18,1.65,3.52,1.1,6.39,2.6,8.59,4.48l-4.12,10.81c-2.04-1.51-4.41-2.68-7.1-3.51-2.69-.83-5.6-1.25-8.72-1.25s-5.33.52-6.94,1.57c-1.61,1.05-2.42,2.41-2.42,4.08,0,1.18.48,2.15,1.45,2.91.97.75,2.69,1.4,5.16,1.94l9.36,2.02c10.38,2.21,15.57,7.42,15.57,15.66,0,3.71-1,6.94-2.99,9.68-1.99,2.74-4.79,4.87-8.39,6.38-3.6,1.51-7.86,2.26-12.75,2.26Z"/>
      <path class="cls-2" d="M591.08,57.78L565.17.89h15.82l16.3,37.85L613.59.89h15.25l-25.98,56.89h-11.78Z"/>
      <path class="cls-2" d="M621.1,57.78L647.73.89h11.7l26.63,56.89h-14.85l-4.92-11.54h-25.42l-4.92,11.54h-14.85ZM653.46,16.38l-7.75,18.48h15.66l-7.75-18.48h-.16Z"/>
      <path class="cls-2" d="M690.74,57.78V.89h27.36c6.46,0,11.45,1.57,14.97,4.72,3.52,3.15,5.29,7.52,5.29,13.11,0,4.25-1.06,7.82-3.19,10.69-2.13,2.88-5.21,4.88-9.24,6.01,3.01.81,5.43,2.88,7.26,6.21l8.88,16.14h-16.3l-9.84-18.08c-.65-1.13-1.47-1.94-2.46-2.42-1-.48-2.14-.73-3.43-.73h-4.44v21.22h-14.85ZM705.59,26.07h9.85c5.86,0,8.8-2.31,8.8-6.94s-2.93-6.86-8.8-6.86h-9.85v13.8Z"/>
      <path class="cls-2" d="M748.92,57.78V.89h14.85v56.89h-14.85Z"/>
      <path class="cls-2" d="M775.31,57.78V.89h40.19v11.46h-25.98v10.81h24.13v11.46h-24.13v11.7h25.98v11.46h-40.19Z"/>
      <path class="cls-2" d="M826.07,57.78V.89h23.56c9.85,0,17.48,2.48,22.92,7.42,5.43,4.95,8.15,11.94,8.15,20.98s-2.72,16.05-8.15,21.02c-5.43,4.98-13.07,7.46-22.92,7.46h-23.56ZM840.92,45.76h7.75c5.65,0,9.83-1.36,12.55-4.08s4.08-6.85,4.08-12.39-1.37-9.66-4.12-12.35c-2.74-2.69-6.91-4.03-12.51-4.03h-7.75v32.84Z"/>
      <path class="cls-2" d="M882.4,57.78L909.03.89h11.7l26.63,56.89h-14.85l-4.92-11.54h-25.42l-4.92,11.54h-14.85ZM914.76,16.38l-7.75,18.48h15.66l-7.75-18.48h-.16Z"/>
      <path class="cls-2" d="M952.04,57.78V.89h23.56c9.85,0,17.48,2.48,22.92,7.42,5.43,4.95,8.15,11.94,8.15,20.98s-2.72,16.05-8.15,21.02c-5.43,4.98-13.07,7.46-22.92,7.46h-23.56ZM966.89,45.76h7.75c5.65,0,9.83-1.36,12.55-4.08,2.72-2.72,4.08-6.85,4.08-12.39s-1.37-9.66-4.12-12.35c-2.74-2.69-6.91-4.03-12.51-4.03h-7.75v32.84Z"/>
      <path class="cls-2" d="M1016.68,57.78V.89h40.19v11.46h-25.99v10.81h24.13v11.46h-24.13v11.7h25.99v11.46h-40.19Z"/>
      <path class="cls-2" d="M1087.77,58.67c-4.47,0-8.74-.55-12.83-1.65-4.09-1.1-7.45-2.57-10.09-4.4l4.12-11.54c2.47,1.67,5.38,2.99,8.72,3.95,3.33.97,6.7,1.45,10.09,1.45s6.04-.47,7.46-1.41c1.42-.94,2.14-2.11,2.14-3.51,0-1.24-.5-2.23-1.49-2.99-1-.75-2.76-1.4-5.29-1.94l-9.44-2.02c-10.22-2.21-15.33-7.56-15.33-16.06,0-3.71,1.01-6.97,3.03-9.76,2.02-2.8,4.83-4.96,8.43-6.5s7.8-2.3,12.59-2.3c3.93,0,7.65.55,11.18,1.65,3.52,1.1,6.39,2.6,8.59,4.48l-4.12,10.81c-2.05-1.51-4.41-2.68-7.1-3.51-2.69-.83-5.6-1.25-8.72-1.25s-5.33.52-6.94,1.57c-1.61,1.05-2.42,2.41-2.42,4.08,0,1.18.48,2.15,1.45,2.91.97.75,2.69,1.4,5.17,1.94l9.36,2.02c10.38,2.21,15.58,7.42,15.58,15.66,0,3.71-1,6.94-2.99,9.68s-4.79,4.87-8.39,6.38c-3.6,1.51-7.86,2.26-12.75,2.26Z"/>
      <path class="cls-1" d="M44.98,174.93l-9.81-15.89c-.88-1.36-2.47-2.03-4.86-2.03-5.99,0-11.33-1.3-15.87-3.87-4.56-2.58-8.15-6.24-10.67-10.88-2.5-4.61-3.77-10.04-3.77-16.13s1.27-11.59,3.77-16.17c2.52-4.62,6.12-8.25,10.72-10.8,4.56-2.54,9.91-3.82,15.9-3.82s11.33,1.29,15.86,3.82c4.56,2.55,8.16,6.18,10.71,10.79,2.53,4.59,3.82,10.03,3.82,16.18s-1.3,11.62-3.86,16.26c-2.09,3.79-4.88,6.9-8.3,9.26,1.75,1.06,3.24,2.6,4.44,4.61l7.36,11.68-15.44,6.98ZM30.39,98.34c-5.47,0-10.33,1.16-14.44,3.44-4.09,2.27-7.3,5.51-9.54,9.62-2.26,4.14-3.41,9.1-3.41,14.73s1.15,10.53,3.41,14.7c2.25,4.14,5.44,7.4,9.51,9.7,4.08,2.31,8.92,3.48,14.39,3.48,3.43,0,5.92,1.15,7.39,3.43l8.44,13.67,9.9-4.48-5.54-8.79c-1.44-2.4-3.24-3.87-5.52-4.52l-3.53-1.01,3.22-1.75c4.08-2.22,7.31-5.45,9.61-9.61,2.31-4.19,3.49-9.18,3.49-14.81s-1.16-10.59-3.44-14.73c-2.27-4.12-5.48-7.35-9.55-9.62-4.08-2.28-8.93-3.44-14.4-3.44ZM30.39,144.58c-4.71,0-8.45-1.7-11.1-5.05-2.57-3.24-3.88-7.75-3.88-13.4s1.31-10.15,3.88-13.36c2.66-3.32,6.39-5,11.1-5s8.44,1.68,11.1,5c2.57,3.22,3.88,7.72,3.88,13.37s-1.32,10.16-3.92,13.41c-2.68,3.34-6.4,5.04-11.06,5.04ZM30.39,110.77c-3.8,0-6.67,1.27-8.75,3.88-2.14,2.67-3.22,6.54-3.22,11.49s1.09,8.84,3.23,11.54c2.09,2.63,4.95,3.91,8.75,3.91s6.6-1.28,8.72-3.92c2.16-2.7,3.26-6.58,3.26-11.53s-1.08-8.82-3.22-11.49c-2.09-2.61-4.95-3.88-8.75-3.88Z"/>
      <path class="cls-1" d="M94.46,157.01c-8.65,0-15.39-2.26-20.04-6.71-4.67-4.47-7.04-11.16-7.04-19.89v-34.18h17.85v34.34c0,3.75.8,6.57,2.37,8.38,1.54,1.77,3.79,2.63,6.86,2.63s5.23-.86,6.78-2.63c1.58-1.81,2.37-4.63,2.37-8.38v-34.34h17.61v34.18c0,8.72-2.31,15.4-6.87,19.87-4.55,4.46-11.24,6.72-19.89,6.72ZM70.38,99.23v31.18c0,7.88,2.06,13.84,6.11,17.72,4.08,3.9,10.12,5.88,17.97,5.88s13.83-1.97,17.79-5.87c3.96-3.88,5.97-9.85,5.97-17.73v-31.18h-11.61v31.34c0,4.49-1.05,7.98-3.11,10.35-2.12,2.43-5.16,3.66-9.04,3.66s-7-1.23-9.12-3.66c-2.07-2.37-3.11-5.85-3.11-10.35v-31.34h-11.85Z"/>
      <path class="cls-1" d="M172.55,156.12h-43.19v-59.89h43.19v14.46h-25.98v7.81h24.13v14.46h-24.13v8.7h25.98v14.46ZM132.36,153.12h37.19v-8.46h-25.98v-14.7h24.13v-8.46h-24.13v-13.81h25.98v-8.46h-37.19v53.89Z"/>
      <path class="cls-1" d="M235.65,156.12h-17.85v-44.79h-18.08v-15.1h54v15.1h-18.08v44.79ZM220.8,153.12h11.85v-44.79h18.08v-9.1h-48v9.1h18.08v44.79Z"/>
      <path class="cls-1" d="M300.77,156.12h-43.19v-59.89h43.19v14.46h-25.98v7.81h24.13v14.46h-24.13v8.7h25.98v14.46ZM260.59,153.12h37.19v-8.46h-25.98v-14.7h24.13v-8.46h-24.13v-13.81h25.98v-8.46h-37.19v53.89Z"/>
      <path class="cls-1" d="M362.1,156.12h-13.03l-23.93-29.83v29.83h-16.8v-59.89h13.11l23.93,29.83v-29.83h16.72v59.89ZM350.51,153.12h8.59v-53.89h-10.72v35.37l-28.37-35.37h-8.67v53.89h10.8v-35.37l28.37,35.37Z"/>
      <path class="cls-1" d="M413.91,156.12h-43.19v-59.89h43.19v14.46h-25.98v7.81h24.13v14.46h-24.13v8.7h25.98v14.46ZM373.72,153.12h37.19v-8.46h-25.98v-14.7h24.13v-8.46h-24.13v-13.81h25.98v-8.46h-37.19v53.89Z"/>
      <path class="cls-1" d="M485.33,156.12h-16.4v-26.81l-10.63,18.41h-9.8l-10.47-18.1v26.49h-16.4v-59.89h14.73l17.28,31.02,17.28-31.02h14.41v59.89ZM471.93,153.12h10.4v-53.89h-9.64l-19.04,34.19-19.04-34.19h-9.97v53.89h10.4v-34.68l15.2,26.28h6.34l15.36-26.62v35.01Z"/>
      <path class="cls-1" d="M522.97,157.01c-5.99,0-11.33-1.3-15.87-3.87-4.56-2.57-8.16-6.23-10.7-10.87-2.53-4.61-3.82-10.04-3.82-16.13s1.27-11.59,3.77-16.17c2.52-4.62,6.12-8.25,10.72-10.8,4.56-2.54,9.91-3.82,15.9-3.82s11.33,1.29,15.86,3.82c4.56,2.55,8.16,6.18,10.71,10.79,2.53,4.59,3.82,10.03,3.82,16.18s-1.28,11.52-3.82,16.13c-2.55,4.64-6.15,8.3-10.7,10.87-4.54,2.57-9.88,3.87-15.87,3.87ZM522.97,98.34c-5.47,0-10.33,1.16-14.44,3.44-4.09,2.27-7.3,5.51-9.54,9.62-2.26,4.14-3.41,9.1-3.41,14.73s1.16,10.53,3.45,14.69c2.27,4.14,5.49,7.41,9.55,9.7,4.08,2.31,8.92,3.48,14.39,3.48s10.31-1.17,14.39-3.48c4.06-2.3,7.28-5.56,9.55-9.71,2.29-4.17,3.45-9.11,3.45-14.69s-1.16-10.59-3.44-14.73c-2.27-4.12-5.48-7.35-9.55-9.62-4.08-2.28-8.93-3.44-14.4-3.44ZM522.97,144.58c-4.71,0-8.45-1.7-11.1-5.05-2.57-3.24-3.88-7.75-3.88-13.4s1.31-10.15,3.88-13.36c2.66-3.32,6.39-5,11.1-5s8.44,1.68,11.1,5c2.57,3.22,3.88,7.72,3.88,13.37s-1.32,10.16-3.92,13.41c-2.68,3.34-6.4,5.04-11.06,5.04ZM522.97,110.77c-3.8,0-6.67,1.27-8.75,3.88-2.14,2.67-3.22,6.54-3.22,11.49s1.09,8.84,3.23,11.54c2.09,2.63,4.95,3.91,8.75,3.91s6.6-1.28,8.72-3.92c2.16-2.7,3.26-6.58,3.26-11.53s-1.08-8.82-3.22-11.49c-2.09-2.61-4.95-3.88-8.75-3.88Z"/>
      <path class="cls-1" d="M583.01,157.01c-4.57,0-9.02-.57-13.22-1.71-4.24-1.14-7.79-2.69-10.55-4.61l-.94-.65,5.15-14.44,1.6,1.08c2.33,1.57,5.12,2.84,8.29,3.76,3.18.92,6.44,1.39,9.67,1.39,4.03,0,5.83-.63,6.64-1.16,1.31-.87,1.47-1.7,1.47-2.26,0-.77-.28-1.32-.9-1.79-.56-.42-1.83-1.06-4.69-1.67l-9.44-2.02c-10.96-2.37-16.52-8.26-16.52-17.53,0-4.02,1.11-7.6,3.31-10.64,2.17-3.01,5.22-5.37,9.06-7,3.77-1.61,8.21-2.42,13.18-2.42,4.06,0,7.97.58,11.62,1.72,3.7,1.16,6.77,2.76,9.12,4.77l.8.69-5.19,13.65-1.59-1.17c-1.9-1.4-4.14-2.5-6.66-3.29-2.54-.79-5.32-1.18-8.27-1.18-2.7,0-4.76.45-6.12,1.33-1.56,1.01-1.74,2.09-1.74,2.82s.27,1.25.87,1.72c.54.42,1.77,1.05,4.56,1.66l9.36,2.02c11.12,2.36,16.76,8.12,16.76,17.12,0,4.02-1.1,7.57-3.27,10.56-2.15,2.96-5.19,5.27-9.03,6.88-3.77,1.58-8.26,2.38-13.33,2.38ZM561.9,148.84c2.34,1.44,5.25,2.64,8.67,3.56,3.94,1.06,8.13,1.6,12.44,1.6,4.67,0,8.77-.72,12.17-2.14,3.33-1.39,5.94-3.37,7.76-5.87,1.79-2.47,2.7-5.43,2.7-8.8,0-7.49-4.71-12.13-14.39-14.19l-9.37-2.02c-2.72-.59-4.61-1.32-5.77-2.22-1.33-1.03-2.03-2.45-2.03-4.09,0-1.51.54-3.67,3.1-5.33,1.88-1.22,4.42-1.82,7.76-1.82s6.34.44,9.16,1.32c2.16.67,4.14,1.56,5.93,2.65l3.06-8.03c-1.93-1.44-4.36-2.63-7.25-3.54-3.36-1.05-6.97-1.59-10.73-1.59-4.56,0-8.6.73-12,2.18-3.33,1.42-5.96,3.43-7.8,5.99-1.85,2.56-2.74,5.47-2.74,8.89,0,7.77,4.63,12.54,14.15,14.59l9.44,2.02c2.77.59,4.69,1.31,5.88,2.21,1.37,1.04,2.09,2.48,2.09,4.18,0,1.33-.49,3.23-2.81,4.76-1.69,1.12-4.4,1.66-8.29,1.66-3.52,0-7.05-.51-10.51-1.51-2.77-.8-5.29-1.86-7.51-3.14l-3.09,8.67Z"/>
      <path class="cls-2" d="M2.95,251.46v-56.89h27.36c6.46,0,11.45,1.65,14.97,4.96,3.52,3.31,5.29,7.87,5.29,13.68s-1.76,10.37-5.29,13.68c-3.52,3.31-8.51,4.96-14.97,4.96h-12.51v19.61H2.95ZM17.8,220.47h9.93c5.81,0,8.72-2.42,8.72-7.26s-2.9-7.26-8.72-7.26h-9.93v14.53Z"/>
      <path class="cls-2" d="M45.88,251.46l26.63-56.89h11.7l26.63,56.89h-14.85l-4.92-11.54h-25.42l-4.92,11.54h-14.85ZM78.24,210.06l-7.75,18.48h15.66l-7.75-18.48h-.16Z"/>
      <path class="cls-2" d="M115.53,251.46v-56.89h27.36c6.46,0,11.45,1.57,14.97,4.72,3.52,3.15,5.29,7.52,5.29,13.11,0,4.25-1.06,7.82-3.19,10.69-2.13,2.88-5.21,4.88-9.24,6.01,3.01.81,5.43,2.88,7.26,6.21l8.88,16.14h-16.3l-9.84-18.08c-.65-1.13-1.47-1.94-2.46-2.42-1-.48-2.14-.73-3.43-.73h-4.44v21.22h-14.85ZM130.37,219.74h9.85c5.86,0,8.8-2.31,8.8-6.94s-2.93-6.86-8.8-6.86h-9.85v13.8Z"/>
      <path class="cls-2" d="M165.72,251.46l26.63-56.89h11.7l26.63,56.89h-14.85l-4.92-11.54h-25.42l-4.92,11.54h-14.85ZM198.08,210.06l-7.75,18.48h15.66l-7.75-18.48h-.16Z"/>
      <path class="cls-2" d="M278.53,251.46l-25.9-56.89h15.82l16.3,37.85,16.3-37.85h15.25l-25.98,56.89h-11.78Z"/>
      <path class="cls-2" d="M346.64,252.34c-5.76,0-10.8-1.22-15.13-3.67-4.33-2.45-7.71-5.88-10.13-10.29-2.42-4.41-3.63-9.55-3.63-15.41s1.2-11.07,3.59-15.45c2.39-4.38,5.77-7.79,10.13-10.21,4.36-2.42,9.41-3.63,15.17-3.63s10.8,1.21,15.13,3.63c4.33,2.42,7.71,5.82,10.13,10.21,2.42,4.39,3.63,9.54,3.63,15.45s-1.21,11-3.63,15.41c-2.42,4.41-5.8,7.84-10.13,10.29-4.33,2.45-9.38,3.67-15.13,3.67ZM346.64,239.92c4.2,0,7.49-1.49,9.89-4.48,2.39-2.99,3.59-7.14,3.59-12.47s-1.18-9.47-3.55-12.43c-2.37-2.96-5.68-4.44-9.93-4.44s-7.56,1.48-9.93,4.44c-2.37,2.96-3.55,7.1-3.55,12.43s1.18,9.48,3.55,12.47c2.37,2.99,5.68,4.48,9.93,4.48Z"/>
      <path class="cls-2" d="M406.68,252.34c-4.47,0-8.74-.55-12.83-1.65-4.09-1.1-7.45-2.57-10.09-4.4l4.12-11.54c2.47,1.67,5.38,2.99,8.72,3.95,3.34.97,6.7,1.45,10.09,1.45s6.04-.47,7.46-1.41c1.43-.94,2.14-2.11,2.14-3.51,0-1.24-.5-2.23-1.49-2.99-1-.75-2.76-1.4-5.29-1.94l-9.44-2.02c-10.22-2.21-15.33-7.56-15.33-16.06,0-3.71,1.01-6.97,3.03-9.76,2.02-2.8,4.83-4.96,8.43-6.5,3.6-1.53,7.8-2.3,12.59-2.3,3.93,0,7.65.55,11.18,1.65,3.52,1.1,6.39,2.6,8.59,4.48l-4.12,10.81c-2.04-1.51-4.41-2.68-7.1-3.51-2.69-.83-5.6-1.25-8.72-1.25s-5.33.52-6.94,1.57c-1.61,1.05-2.42,2.41-2.42,4.08,0,1.18.48,2.15,1.45,2.91.97.75,2.69,1.4,5.16,1.94l9.36,2.02c10.38,2.21,15.57,7.42,15.57,15.66,0,3.71-1,6.94-2.99,9.68-1.99,2.74-4.79,4.87-8.39,6.38-3.6,1.51-7.86,2.26-12.75,2.26Z"/>
    </g>
  </g>
</svg>