<?xml version="1.0" encoding="UTF-8"?>
<svg id="Capa_2" data-name="Capa 2" xmlns="http://www.w3.org/2000/svg" viewBox="0 0 802.74 236.55">
  <defs>
    <style>
      .cls-1 {
        fill: #925e43;
      }
    </style>
  </defs>
  <g id="Capa_1-2" data-name="Capa 1">
    <g>
      <path class="cls-1" d="M7.92,105.43V18.24h16.7l40.07,49.96V18.24h21.02v87.19h-16.57L29.06,55.46v49.96H7.92Z"/>
      <path class="cls-1" d="M140.24,106.79c-12.7,0-22.41-3.22-29.12-9.65-6.72-6.43-10.08-16.03-10.08-28.81V18.24h22.76v50.33c0,6.35,1.4,11.13,4.2,14.35,2.8,3.22,6.88,4.82,12.24,4.82s9.32-1.61,12.12-4.82c2.8-3.22,4.2-8,4.2-14.35V18.24h22.38v50.09c0,12.78-3.28,22.38-9.83,28.81-6.55,6.43-16.18,9.65-28.88,9.65Z"/>
      <path class="cls-1" d="M194.16,105.43V18.24h61.59v17.56h-39.82v16.57h36.98v17.56h-36.98v17.93h39.82v17.56h-61.59Z"/>
      <path class="cls-1" d="M301.26,106.79c-6.84,0-13.4-.85-19.66-2.54-6.27-1.69-11.42-3.94-15.46-6.74l6.31-17.68c3.79,2.56,8.24,4.58,13.36,6.06,5.11,1.48,10.26,2.23,15.46,2.23s9.25-.72,11.44-2.16c2.18-1.44,3.28-3.23,3.28-5.38,0-1.9-.76-3.42-2.29-4.58-1.53-1.15-4.23-2.14-8.1-2.97l-14.47-3.09c-15.67-3.38-23.5-11.58-23.5-24.61,0-5.69,1.55-10.68,4.64-14.96,3.09-4.29,7.4-7.61,12.92-9.96,5.52-2.35,11.95-3.52,19.29-3.52,6.02,0,11.73.85,17.13,2.54,5.4,1.69,9.79,3.98,13.17,6.86l-6.31,16.57c-3.13-2.31-6.76-4.1-10.88-5.38-4.12-1.28-8.58-1.92-13.36-1.92s-8.16.8-10.64,2.41c-2.47,1.61-3.71,3.69-3.71,6.25,0,1.81.74,3.3,2.23,4.45,1.48,1.16,4.12,2.15,7.92,2.97l14.35,3.09c15.91,3.38,23.87,11.38,23.87,23.99,0,5.69-1.53,10.64-4.58,14.84-3.05,4.2-7.34,7.46-12.86,9.77-5.52,2.31-12.04,3.46-19.54,3.46Z"/>
      <path class="cls-1" d="M368.04,105.43V36.79h-27.7v-18.55h78.16v18.55h-27.7v68.64h-22.75Z"/>
      <path class="cls-1" d="M427.15,105.43V18.24h41.92c9.89,0,17.54,2.41,22.94,7.23,5.4,4.82,8.1,11.52,8.1,20.1,0,6.51-1.63,11.98-4.89,16.39-3.26,4.41-7.98,7.48-14.16,9.21,4.62,1.24,8.33,4.41,11.13,9.52l13.6,24.73h-24.98l-15.09-27.7c-.99-1.73-2.25-2.97-3.77-3.71-1.53-.74-3.28-1.11-5.26-1.11h-6.8v32.52h-22.75ZM449.9,56.82h15.09c8.99,0,13.48-3.54,13.48-10.64s-4.49-10.51-13.48-10.51h-15.09v21.15Z"/>
      <path class="cls-1" d="M555.89,106.79c-8.82,0-16.55-1.87-23.19-5.63-6.64-3.75-11.81-9.01-15.52-15.77-3.71-6.76-5.57-14.63-5.57-23.62s1.83-16.96,5.5-23.68c3.67-6.72,8.84-11.93,15.52-15.64,6.68-3.71,14.43-5.56,23.25-5.56s16.55,1.85,23.19,5.56c6.64,3.71,11.81,8.93,15.52,15.64,3.71,6.72,5.56,14.61,5.56,23.68s-1.85,16.86-5.56,23.62c-3.71,6.76-8.88,12.02-15.52,15.77-6.64,3.75-14.37,5.63-23.19,5.63ZM555.89,87.74c6.43,0,11.48-2.29,15.15-6.86,3.67-4.58,5.5-10.94,5.5-19.11s-1.81-14.51-5.44-19.04c-3.63-4.53-8.7-6.8-15.21-6.8s-11.58,2.27-15.21,6.8c-3.63,4.54-5.44,10.88-5.44,19.04s1.81,14.53,5.44,19.11c3.63,4.58,8.7,6.86,15.21,6.86Z"/>
      <path class="cls-1" d="M646.04,106.79c-6.84,0-13.4-.85-19.66-2.54-6.27-1.69-11.42-3.94-15.46-6.74l6.31-17.68c3.79,2.56,8.24,4.58,13.36,6.06,5.11,1.48,10.26,2.23,15.46,2.23s9.25-.72,11.44-2.16c2.18-1.44,3.28-3.23,3.28-5.38,0-1.9-.76-3.42-2.29-4.58-1.53-1.15-4.23-2.14-8.1-2.97l-14.47-3.09c-15.67-3.38-23.5-11.58-23.5-24.61,0-5.69,1.55-10.68,4.64-14.96,3.09-4.29,7.4-7.61,12.92-9.96,5.52-2.35,11.95-3.52,19.29-3.52,6.02,0,11.73.85,17.13,2.54,5.4,1.69,9.79,3.98,13.17,6.86l-6.31,16.57c-3.13-2.31-6.76-4.1-10.88-5.38-4.12-1.28-8.58-1.92-13.36-1.92s-8.16.8-10.64,2.41-3.71,3.69-3.71,6.25c0,1.81.74,3.3,2.23,4.45,1.48,1.16,4.12,2.15,7.91,2.97l14.35,3.09c15.91,3.38,23.87,11.38,23.87,23.99,0,5.69-1.53,10.64-4.58,14.84-3.05,4.2-7.34,7.46-12.86,9.77-5.52,2.31-12.04,3.46-19.54,3.46Z"/>
    </g>
    <g>
      <path class="cls-1" d="M33.28,235.19H6.52v-91.19h43.92c10.37,0,18.55,2.74,24.31,8.15,5.79,5.44,8.73,12.98,8.73,22.42s-2.94,16.98-8.73,22.42c-5.76,5.41-13.94,8.15-24.31,8.15h-17.17v30.05ZM10.52,231.19h18.75v-30.05h21.17c9.32,0,16.58-2.38,21.57-7.06,5.03-4.72,7.47-11.1,7.47-19.5s-2.44-14.78-7.47-19.5c-4.99-4.69-12.25-7.06-21.57-7.06H10.52v83.19ZM46.49,187.7h-17.21v-26.26h17.21c12.69,0,15.36,7.14,15.36,13.13s-2.66,13.13-15.36,13.13ZM33.28,183.7h13.21c10.07,0,11.36-4.88,11.36-9.13s-1.29-9.13-11.36-9.13h-13.21v18.26Z"/>
      <path class="cls-1" d="M174.78,235.19h-29.55l-15.66-28.75c-.77-1.35-1.72-2.3-2.89-2.87-1.24-.6-2.72-.91-4.38-.91h-4.8v32.53h-26.75v-91.19h43.92c10.35,0,18.52,2.6,24.27,7.74,5.82,5.2,8.77,12.46,8.77,21.59,0,6.92-1.77,12.83-5.28,17.57-2.6,3.52-6.09,6.27-10.4,8.21,2.96,1.87,5.48,4.67,7.51,8.37l15.23,27.7ZM147.6,231.19h20.41l-11.97-21.77c-2.56-4.66-5.79-7.46-9.9-8.55l-7.05-1.89,7.03-1.97c5.71-1.6,10.12-4.45,13.09-8.48,2.98-4.04,4.49-9.15,4.49-15.2,0-8.05-2.43-14.14-7.43-18.6-5-4.46-12.27-6.73-21.61-6.73h-39.92v83.19h18.75v-32.53h8.8c2.27,0,4.34.44,6.13,1.31,1.89.92,3.45,2.44,4.63,4.52l14.54,26.69ZM130.58,186.59h-17.09v-25.15h17.09c12.79,0,15.48,6.8,15.48,12.51s-2.69,12.64-15.48,12.64ZM117.49,182.59h13.09c10.29,0,11.48-4.93,11.48-8.64s-1.19-8.51-11.48-8.51h-13.09v17.15Z"/>
      <path class="cls-1" d="M222.1,236.55c-9.13,0-17.27-1.98-24.17-5.89-6.93-3.92-12.42-9.49-16.29-16.55-3.86-7.03-5.81-15.3-5.81-24.58s1.93-17.66,5.75-24.64c3.83-7.02,9.32-12.55,16.3-16.43,6.95-3.86,15.1-5.82,24.22-5.82s17.26,1.96,24.16,5.82c6.94,3.88,12.42,9.4,16.29,16.42,3.86,6.99,5.81,15.28,5.81,24.65s-1.96,17.56-5.81,24.58c-3.87,7.06-9.35,12.63-16.29,16.55-6.91,3.91-15.04,5.89-24.17,5.89ZM222.1,146.65c-8.44,0-15.93,1.79-22.28,5.31-6.31,3.51-11.27,8.5-14.74,14.85-3.49,6.39-5.26,14.04-5.26,22.72s1.79,16.23,5.32,22.66c3.51,6.4,8.47,11.44,14.75,14.99,6.3,3.56,13.77,5.37,22.2,5.37s15.9-1.81,22.2-5.37c6.28-3.55,11.24-8.59,14.75-14.99,3.53-6.43,5.32-14.05,5.32-22.66s-1.79-16.33-5.32-22.72c-3.51-6.35-8.47-11.36-14.75-14.86-6.3-3.52-13.78-5.31-22.21-5.31ZM222.1,217.51c-7.12,0-12.77-2.56-16.78-7.62-3.9-4.92-5.87-11.76-5.87-20.35s1.98-15.42,5.88-20.29c4.01-5.01,9.65-7.55,16.77-7.55s12.76,2.54,16.77,7.55c3.9,4.88,5.88,11.71,5.88,20.29s-2,15.44-5.94,20.36c-4.05,5.05-9.67,7.61-16.71,7.61ZM222.1,165.69c-5.93,0-10.39,1.98-13.65,6.05-3.32,4.15-5,10.14-5,17.8s1.69,13.67,5.01,17.86c3.26,4.11,7.72,6.11,13.64,6.11s10.29-2,13.59-6.11c3.36-4.19,5.06-10.2,5.06-17.86s-1.68-13.64-5-17.8c-3.26-4.07-7.72-6.05-13.65-6.05Z"/>
      <path class="cls-1" d="M316.58,235.19h-38.11v-91.19h38.11c15.53,0,27.8,4,36.47,11.9,8.72,7.95,13.14,19.26,13.14,33.63s-4.42,25.71-13.14,33.69c-8.67,7.94-20.94,11.96-36.47,11.96ZM282.47,231.19h34.11c14.5,0,25.86-3.67,33.77-10.91,7.86-7.2,11.84-17.54,11.84-30.74s-3.98-23.52-11.84-30.67c-7.91-7.2-19.27-10.86-33.77-10.86h-34.11v83.19ZM315.1,216.77h-13.87v-54.33h13.87c9.08,0,16,2.27,20.57,6.76,4.58,4.49,6.91,11.34,6.91,20.35s-2.3,15.87-6.83,20.4c-4.53,4.53-11.48,6.83-20.64,6.83ZM305.22,212.77h9.87c8.07,0,14.06-1.9,17.82-5.66,3.76-3.76,5.66-9.67,5.66-17.57s-1.92-13.78-5.71-17.49c-3.8-3.72-9.78-5.61-17.77-5.61h-9.87v46.33Z"/>
      <path class="cls-1" d="M416.88,236.55c-13.17,0-23.43-3.43-30.51-10.2-7.1-6.79-10.7-16.97-10.7-30.26v-52.09h26.76v52.33c0,5.82,1.25,10.21,3.71,13.03,2.43,2.78,5.94,4.14,10.74,4.14s8.18-1.35,10.61-4.14c2.46-2.83,3.71-7.21,3.71-13.03v-52.33h26.38v52.09c0,13.28-3.51,23.45-10.43,30.24-6.91,6.78-17.1,10.22-30.28,10.22ZM379.67,148.01v48.09c0,12.15,3.18,21.36,9.46,27.37,6.3,6.03,15.64,9.09,27.74,9.09s21.34-3.05,27.48-9.07c6.13-6.01,9.23-15.22,9.23-27.39v-48.09h-18.38v48.33c0,6.81-1.58,12.08-4.7,15.66-3.19,3.66-7.77,5.51-13.63,5.51s-10.57-1.85-13.75-5.51c-3.12-3.57-4.7-8.84-4.7-15.66v-48.33h-18.76Z"/>
      <path class="cls-1" d="M515.44,236.55c-9.93,0-18.61-1.95-25.8-5.8-7.25-3.88-12.87-9.44-16.71-16.52-3.81-7.02-5.75-15.33-5.75-24.7s1.93-17.66,5.75-24.64c3.84-7.03,9.46-12.57,16.7-16.45,7.19-3.85,15.87-5.8,25.8-5.8,5.96,0,11.78.93,17.32,2.76,5.59,1.85,10.19,4.33,13.67,7.38l1.05.92-8.22,21.68-2.12-1.54c-3.45-2.51-6.94-4.4-10.37-5.61-3.4-1.2-6.92-1.8-10.47-1.8-7.04,0-12.36,1.96-15.82,5.83-3.52,3.93-5.3,9.74-5.3,17.28s1.78,13.47,5.3,17.4c3.46,3.87,8.78,5.83,15.82,5.83,3.55,0,7.07-.61,10.47-1.8,3.43-1.21,6.92-3.09,10.37-5.6l2.12-1.54,8.22,21.68-1.04.92c-3.48,3.05-8.08,5.53-13.67,7.38-5.54,1.83-11.37,2.76-17.32,2.76ZM515.44,146.65c-9.27,0-17.31,1.79-23.91,5.33-6.55,3.51-11.62,8.5-15.08,14.84-3.49,6.39-5.26,14.04-5.26,22.72s1.77,16.36,5.26,22.79c3.46,6.38,8.53,11.39,15.08,14.9,6.6,3.54,14.65,5.33,23.91,5.33,5.53,0,10.93-.86,16.07-2.56,4.52-1.49,8.29-3.41,11.24-5.72l-5.39-14.21c-3.07,2.01-6.18,3.58-9.25,4.66-3.82,1.35-7.79,2.03-11.79,2.03-8.23,0-14.55-2.41-18.8-7.16-4.19-4.69-6.32-11.44-6.32-20.07s2.13-15.26,6.32-19.95c4.25-4.75,10.58-7.16,18.8-7.16,4,0,7.97.68,11.79,2.03,3.08,1.09,6.18,2.65,9.25,4.66l5.39-14.21c-2.95-2.3-6.72-4.22-11.24-5.72-5.13-1.7-10.54-2.56-16.07-2.56Z"/>
      <path class="cls-1" d="M601.04,235.19h-26.75v-68.64h-27.7v-22.55h82.16v22.55h-27.7v68.64ZM578.28,231.19h18.75v-68.64h27.7v-14.55h-74.16v14.55h27.7v68.64Z"/>
      <path class="cls-1" d="M672.99,236.55c-9.13,0-17.27-1.98-24.17-5.89-6.93-3.92-12.42-9.49-16.29-16.55-3.86-7.03-5.81-15.3-5.81-24.58s1.93-17.66,5.75-24.64c3.83-7.02,9.32-12.55,16.3-16.43,6.95-3.86,15.09-5.82,24.22-5.82s17.26,1.96,24.16,5.82c6.94,3.88,12.42,9.4,16.3,16.42,3.86,6.99,5.81,15.28,5.81,24.65s-1.96,17.56-5.81,24.58c-3.87,7.06-9.35,12.63-16.29,16.55-6.91,3.91-15.04,5.89-24.17,5.89ZM672.99,146.65c-8.44,0-15.93,1.79-22.28,5.31-6.31,3.51-11.27,8.5-14.74,14.85-3.49,6.39-5.26,14.04-5.26,22.72s1.79,16.23,5.32,22.66c3.51,6.4,8.47,11.44,14.75,14.99,6.3,3.56,13.77,5.37,22.2,5.37s15.9-1.81,22.2-5.37c6.28-3.55,11.24-8.59,14.75-14.99,3.53-6.43,5.32-14.05,5.32-22.66s-1.79-16.33-5.32-22.72c-3.51-6.35-8.47-11.36-14.75-14.86-6.3-3.52-13.78-5.31-22.21-5.31ZM672.99,217.51c-7.12,0-12.77-2.56-16.78-7.62-3.9-4.92-5.87-11.76-5.87-20.35s1.98-15.42,5.88-20.29c4.01-5.01,9.65-7.55,16.77-7.55s12.76,2.54,16.77,7.55c3.9,4.88,5.88,11.71,5.88,20.29s-2,15.44-5.94,20.36c-4.05,5.05-9.67,7.61-16.71,7.61ZM672.99,165.69c-5.93,0-10.39,1.98-13.65,6.05-3.32,4.15-5,10.14-5,17.8s1.69,13.67,5.01,17.86c3.26,4.11,7.72,6.11,13.64,6.11s10.29-2,13.59-6.11c3.36-4.19,5.06-10.2,5.06-17.86s-1.68-13.64-5-17.8c-3.26-4.07-7.72-6.05-13.65-6.05Z"/>
      <path class="cls-1" d="M763.77,236.55c-6.98,0-13.77-.88-20.18-2.6-6.46-1.74-11.87-4.1-16.08-7.03l-1.26-.87,7.69-21.55,2.14,1.44c3.6,2.43,7.91,4.38,12.8,5.8,4.91,1.42,9.92,2.15,14.9,2.15,6.25,0,9.07-1,10.34-1.83,2.13-1.41,2.38-2.79,2.38-3.71,0-1.26-.48-2.21-1.5-2.98-.88-.66-2.86-1.66-7.31-2.6l-14.47-3.09c-16.64-3.59-25.08-12.53-25.08-26.57,0-6.09,1.69-11.52,5.02-16.13,3.3-4.57,7.93-8.14,13.76-10.63,5.75-2.44,12.5-3.68,20.08-3.68,6.19,0,12.15.88,17.72,2.63,5.63,1.76,10.3,4.2,13.87,7.25l1.07.92-7.74,20.35-2.12-1.56c-2.94-2.16-6.4-3.87-10.29-5.08-3.91-1.21-8.21-1.83-12.76-1.83-4.2,0-7.41.7-9.55,2.09-1.91,1.24-2.8,2.69-2.8,4.57,0,1.19.46,2.1,1.45,2.87.85.66,2.78,1.65,7.11,2.59l14.34,3.09c16.88,3.59,25.45,12.32,25.45,25.95,0,6.09-1.67,11.48-4.96,16.01-3.26,4.49-7.87,8-13.71,10.44-5.75,2.4-12.58,3.62-20.31,3.62ZM731.05,224.47c3.64,2.28,8.2,4.17,13.57,5.61,6.07,1.64,12.51,2.47,19.14,2.47,7.2,0,13.51-1.11,18.77-3.31,5.15-2.15,9.19-5.21,12.01-9.1,2.78-3.84,4.19-8.44,4.19-13.67,0-11.64-7.29-18.85-22.28-22.03l-14.35-3.09c-4.13-.9-6.98-1.99-8.72-3.34-1.96-1.52-3-3.61-3-6.03,0-3.22,1.6-5.96,4.62-7.92,2.83-1.84,6.67-2.73,11.73-2.73s9.65.68,13.95,2.01c3.41,1.06,6.53,2.47,9.32,4.22l4.89-12.85c-3.01-2.29-6.83-4.18-11.38-5.6-5.19-1.62-10.75-2.44-16.53-2.44-7.03,0-13.26,1.13-18.51,3.36-5.16,2.19-9.22,5.32-12.08,9.29-2.83,3.92-4.26,8.56-4.26,13.79,0,12.06,7.17,19.47,21.92,22.66l14.47,3.09c4.2.9,7.11,1.98,8.89,3.33,2.02,1.53,3.08,3.66,3.08,6.17,0,1.96-.72,4.77-4.17,7.05-2.54,1.68-6.64,2.5-12.54,2.5-5.36,0-10.75-.78-16.02-2.31-4.35-1.26-8.29-2.93-11.75-4.96l-4.94,13.86Z"/>
    </g>
  </g>
</svg>