<?xml version="1.0" encoding="UTF-8"?>
<svg id="Capa_2" data-name="Capa 2" xmlns="http://www.w3.org/2000/svg" viewBox="0 0 2677.72 2784.96">
  <defs>
    <style>
      .cls-1 {
        fill: #925e43;
      }

      .cls-2 {
        fill: #ebebeb;
      }
    </style>
  </defs>
  <g id="Capa_1-2" data-name="Capa 1">
    <g>
      <g>
        <path class="cls-2" d="M1284.4,2732.8c0,4.45-.54,8.85-1.61,12.98,0,.09,0,.18-.13.18-.94,4.13-2.43,8.05-4.41,11.72-.13.18-.18.36-.4.54-1.17,2.38-2.7,4.68-4.45,6.79-.72,1.21-1.61,2.29-2.65,3.28-4.98,5.53-11.05,9.93-17.97,12.81-3.99,1.71-8.22,2.87-12.67,3.42-6.96-.49-13.88-1.04-20.76-1.66-312.57-27.45-602.73-162.46-827.2-386.93C139.23,2143.05,0,1806.85,0,1449.21c0-216.65,52.97-431.82,153.12-622.33,96.96-184.34,237.95-345.96,407.74-467.4,22.64-16.18,54.05-10.97,70.23,11.69,16.18,22.6,10.97,54.05-11.64,70.23-157.07,112.32-287.5,261.85-377.18,432.36-92.65,176.08-141.58,375.07-141.58,575.46,0,330.73,128.77,641.64,362.63,875.54,206.09,206.09,472.03,330.55,758.68,357.15,10.29.99,20.58,1.84,30.91,2.52,6.07,2.56,11.59,6.34,16.22,11,1.57,1.57,3.01,3.1,4.18,4.85,2.11,2.65,3.91,5.48,5.35,8.62,1.66,3.19,3.01,6.47,3.91,10.06,1.17,4.41,1.84,9.07,1.84,13.84v.02Z"/>
        <path class="cls-2" d="M2677.72,1449.21c0,357.64-139.23,693.85-392.14,946.71-223.53,223.53-512.19,358.32-823.29,386.57-10.29.94-20.58,1.75-30.91,2.47-8.45-2.11-16.04-6.29-22.24-12.04-2.56-2.38-4.81-4.94-6.92-7.82.06-.06.06-.09,0-.09-2.06-2.92-3.77-5.93-5.17-9.21-.9-1.84-1.61-3.77-2.16-5.7-1.66-5.03-2.47-10.33-2.47-15.9s.81-10.65,2.29-15.59c0-.09.09-.27.18-.45.45-1.48.9-2.92,1.53-4.31v-.09c1.44-3.46,3.19-6.79,5.43-9.79,2.29-3.55,5.17-6.79,8.35-9.61,5.25-4.58,11.37-8.08,18.11-10.16,7.36-.49,14.64-1.08,21.97-1.75,288.71-25.57,556.73-150.29,764.12-357.68,233.86-233.91,362.63-544.82,362.63-875.54,0-200.39-48.93-399.38-141.58-575.46-89.68-170.51-220.11-320.03-377.18-432.36-22.6-16.18-27.82-47.62-11.64-70.23,16.13-22.64,47.58-27.85,70.23-11.69,169.79,121.44,310.78,283.06,407.74,467.4,100.15,190.5,153.12,405.67,153.12,622.33v-.02Z"/>
      </g>
      <g>
        <path class="cls-2" d="M700.59,570.43c-139.37,99.66-255.07,232.28-334.64,383.57-82.18,156.22-125.62,332.8-125.62,510.53s39.54,339,114.26,489.02c1.48,3.05,3.05,6.11,4.63,9.17.62,2.16.94,4.45.94,6.79,0,14.1-11.45,25.61-25.61,25.61-6.61,0-12.63-2.52-17.16-6.61-1.31-1.17-2.43-2.43-3.5-3.82-.72-.93-.72-.94,0-.05-1.26-2.43-2.52-4.9-3.69-7.33-78.63-157.3-120.18-331.85-120.18-512.78s45.43-370.54,131.42-533.99c83.16-158.15,204.16-296.85,349.87-401.08,11.32-8.08,27.05-5.43,35.13,5.84,8.08,11.32,5.48,27.05-5.84,35.13h0Z"/>
        <path class="cls-2" d="M2272.81,2126.03c0,4.41-1.12,8.58-3.1,12.22-.05.09-.09.18-.18.27-1.17,1.66-2.38,3.28-3.59,4.94-34.46,46.9-72.79,91.52-114.7,133.44-217.01,217.01-505.5,336.48-812.37,336.48s-595.36-119.46-812.37-336.48c-41.34-41.34-79.17-85.32-113.31-131.5-2.06-2.78-4.09-5.62-6.11-8.4-1.53-3.24-2.33-6.83-2.33-10.6,0-14.15,11.45-25.66,25.61-25.66,6.96,0,13.3,2.78,17.93,7.33,1.57,2.2,3.19,4.41,4.81,6.61,32.85,44.48,69.24,86.85,109.05,126.66,207.44,207.48,483.31,321.74,776.74,321.74s569.3-114.26,776.74-321.74c39.41-39.41,75.44-81.28,108.01-125.26v-.05c2.38-3.19,4.68-6.34,6.96-9.52,4.49-3.82,10.29-6.11,16.62-6.11,6.96,0,13.3,2.78,17.93,7.33.77.77,1.48,1.53,2.11,2.38,1.04,1.31,1.93,2.7,2.7,4.22.81,1.57,1.48,3.19,1.93,4.94.63,2.16.94,4.45.94,6.79v-.03Z"/>
        <path class="cls-2" d="M2487.71,1464.53c0,180.3-41.29,354.27-119.38,511.12,0,.05,0,.09-.05.09-1.48,3.1-3.05,6.24-4.68,9.34-.4.59-.85,1.12-1.34,1.61-4.68,5.03-11.32,8.18-18.73,8.18-6.61,0-12.63-2.52-17.17-6.61-1.31-1.17-2.43-2.43-3.5-3.82-.72-.93-.72-.94,0-.05-1.04-1.44-1.89-2.92-2.6-4.54-.45-.9-.81-1.84-1.08-2.78-.85-2.47-1.26-5.08-1.26-7.82s.4-5.21,1.17-7.63c0-.05.05-.13.09-.22,1.21-2.33,2.38-4.63,3.5-6.96,75.04-150.29,114.7-317.07,114.7-489.92s-43.45-354.31-125.62-510.53c-79.57-151.27-195.26-283.91-334.64-383.57-11.32-8.08-13.93-23.81-5.84-35.13,8.08-11.28,23.81-13.93,35.13-5.84,145.71,104.24,266.71,242.93,349.87,401.08,85.99,163.45,131.42,348.12,131.42,533.99h0Z"/>
      </g>
    </g>
    <g>
      <path class="cls-1" d="M888.23,2019.37h59.38c15.75,0,27.99,3.83,36.71,11.49,8.73,7.66,13.09,18.51,13.09,32.57s-4.4,24.97-13.19,32.77c-8.8,7.81-21,11.7-36.6,11.7h-41.93v61.51h-17.46v-150.04h0ZM945.89,2093.44c22.84,0,34.27-10,34.27-30.01s-11.43-29.58-34.27-29.58h-40.22v59.6h40.22Z"/>
      <path class="cls-1" d="M1025.49,2169.42v-150.04h94.92v14.47h-77.68v52.15h73.42v14.47h-73.42v54.49h77.68v14.47h-94.92Z"/>
      <path class="cls-1" d="M1175.53,2161.86c-10.5-6.17-18.55-15.04-24.16-26.61-5.61-11.56-8.4-25.22-8.4-40.97s2.8-29.37,8.4-40.86c5.61-11.49,13.65-20.33,24.16-26.5,10.49-6.17,22.84-9.26,37.03-9.26,10.35,0,19.86,1.59,28.52,4.79,8.65,3.2,16.18,7.91,22.56,14.15l-6.6,13.4c-7.24-6.1-14.34-10.5-21.29-13.2-6.95-2.69-14.61-4.04-22.99-4.04-16.46,0-29.19,5.36-38.21,16.06-9.02,10.72-13.52,25.86-13.52,45.44s4.5,34.94,13.52,45.65c9.01,10.72,21.74,16.06,38.21,16.06,8.37,0,16.03-1.34,22.99-4.04s14.05-7.1,21.29-13.2l6.6,13.4c-6.39,6.24-13.9,10.97-22.56,14.15-8.66,3.19-18.17,4.79-28.52,4.79-14.19,0-26.53-3.08-37.03-9.26v.04Z"/>
      <path class="cls-1" d="M1403.66,2169.42l-16.6-38.52h-78.31l-16.6,38.52h-17.88l65.97-150.04h15.11l65.97,150.04h-17.67,0ZM1314.93,2116.42h65.97l-32.98-76.82-32.99,76.82Z"/>
      <path class="cls-1" d="M1547.54,2019.37h16.39v150.04h-13.4l-90.45-120.66v120.66h-16.39v-150.04h13.4l90.45,120.66v-120.66Z"/>
      <path class="cls-1" d="M1600.95,2169.42v-150.04h94.92v14.47h-77.68v52.15h73.42v14.47h-73.42v54.49h77.68v14.47h-94.92Z"/>
      <path class="cls-1" d="M1714.17,2152.18l6.81-13.4c7.37,6.25,14.93,10.72,22.67,13.4,7.73,2.7,16.71,4.04,26.92,4.04,12.06,0,21.35-2.34,27.88-7.03,6.53-4.69,9.78-11.28,9.78-19.79,0-4.96-1.57-9.01-4.69-12.14-3.12-3.12-7.24-5.61-12.35-7.44-5.11-1.84-11.98-3.76-20.64-5.75-11.64-2.7-21.18-5.53-28.62-8.52-7.45-2.98-13.48-7.24-18.09-12.77-4.61-5.54-6.92-12.77-6.92-21.71s2.24-16.06,6.7-22.67c4.47-6.6,10.86-11.7,19.16-15.32,8.3-3.62,17.91-5.42,28.83-5.42,10.35,0,20.04,1.63,29.05,4.9,9.01,3.26,16.63,7.95,22.88,14.05l-6.6,13.4c-7.1-6.1-14.3-10.53-21.6-13.31-7.31-2.77-15.22-4.15-23.73-4.15-11.64,0-20.75,2.45-27.35,7.35-6.6,4.9-9.89,11.74-9.89,20.54,0,7.52,2.91,13.19,8.72,17.02,5.82,3.83,14.61,7.1,26.4,9.78,12.9,3.12,23.05,6,30.44,8.62,7.37,2.62,13.51,6.57,18.41,11.81,4.9,5.25,7.35,12.27,7.35,21.07s-2.24,15.96-6.7,22.34c-4.46,6.39-10.89,11.32-19.26,14.79-8.37,3.48-18.17,5.21-29.37,5.21-23.41,0-42.14-6.31-56.18-18.94v.04Z"/>
    </g>
    <g>
      <path class="cls-1" d="M483.83,1667.19h82.51c22.43,0,41.73,4.02,57.93,12.08,16.2,8.06,28.6,19.69,37.24,34.93,8.62,15.24,12.93,33.31,12.93,54.19s-4.26,39.24-12.8,54.48c-8.53,15.24-20.89,26.88-37.09,34.93-16.2,8.06-35.6,12.08-58.22,12.08h-82.51v-202.68h0ZM562.6,1827.33c19.93,0,34.79-4.89,44.56-14.66s14.66-24.53,14.66-44.27-4.89-34.45-14.66-44.13c-9.77-9.68-24.63-14.52-44.56-14.52h-25.88v117.59h25.88Z"/>
      <path class="cls-1" d="M748.46,1859.68c-15.24-8.53-26.98-20.6-35.22-36.23-8.24-15.62-12.37-33.97-12.37-55.06s4.12-39.43,12.37-55.06c8.24-15.62,19.98-27.64,35.22-36.08,15.24-8.43,33.2-12.65,53.9-12.65s38.67,4.22,53.9,12.65c15.24,8.44,26.92,20.46,35.08,36.08,8.14,15.62,12.21,33.97,12.21,55.06s-4.13,39.43-12.37,55.06c-8.24,15.62-19.98,27.7-35.22,36.23-15.24,8.53-33.12,12.8-53.62,12.8s-38.67-4.26-53.9-12.8h0ZM838.31,1815.69c8.62-10.83,12.94-26.6,12.94-47.3s-4.36-36.41-13.08-47.15c-8.72-10.73-20.65-16.1-35.8-16.1s-27.32,5.32-35.94,15.96c-8.62,10.64-12.93,26.4-12.93,47.29s4.31,36.71,12.93,47.44c8.62,10.73,20.6,16.1,35.94,16.1s27.31-5.42,35.94-16.25h0Z"/>
      <path class="cls-1" d="M1066.29,1667.19h49.45v202.68h-39.1l-92.57-115.86v115.86h-49.16v-202.68h38.52l92.86,115.86v-115.86Z"/>
      <path class="cls-1" d="M1215.5,1830.78l23.57-1.44c7.09-.38,12.17-2.1,15.24-5.18,3.06-3.06,4.6-7.95,4.6-14.66v-142.31h53.18v141.45c0,19.74-5.27,34.84-15.81,45.27-10.54,10.46-26.55,16.34-48.01,17.69l-29.61,1.44-3.16-42.27h0Z"/>
      <path class="cls-1" d="M1370.6,1850.05c-15.25-14.95-22.86-36.8-22.86-65.55v-117.3h51.74v119.31c0,14.57,3.25,25.78,9.77,33.63,6.51,7.86,15.91,11.79,28.18,11.79s21.65-3.93,28.17-11.79c6.51-7.85,9.77-19.07,9.77-33.63v-119.31h52.04v117.3c0,28.56-7.71,50.36-23.14,65.41-15.44,15.05-37.72,22.57-66.84,22.57s-51.61-7.48-66.84-22.43h0Z"/>
      <path class="cls-1" d="M1563.07,1869.88v-202.68h52.91v159.85h86.25v42.83h-139.16Z"/>
      <path class="cls-1" d="M1727.51,1869.88v-202.68h52.91v202.68h-52.91Z"/>
      <path class="cls-1" d="M1971.6,1869.88l-18.11-41.97h-89.7l-18.11,41.97h-53.18l94.59-202.68h41.97l94.87,202.68h-52.33ZM1880.74,1788.23h55.78l-27.88-64.97-27.88,64.97h0ZM1923.59,1649.95h-31.04l29.9-45.14h45.71l-44.56,45.14h0Z"/>
      <path class="cls-1" d="M2167.37,1667.19h49.45v202.68h-39.1l-92.58-115.86v115.86h-49.16v-202.68h38.53l92.86,115.86v-115.86Z"/>
    </g>
    <path class="cls-2" d="M1245.42,966.07c0,3.73-1.08,7.19-2.97,10.11-1.21,1.39-2.6,2.97-4.18,4.63-25.47,27.45-93.37,83.34-223.26,83.34-104.1,0-146.65-30.5-159.41-68.83.05,0,3.1.81,4.71,1.21,5.8,1.44,12.41,3.01,19.64,4.54,7.19,1.53,15.06,3.15,23.41,4.54,8.35,1.44,17.17,2.83,26.33,3.99,9.21,1.08,18.69,2.33,28.39,3.01,4.85.4,9.71.77,14.64.99,4.9.36,9.84.54,14.78.77,9.88.32,19.77.36,29.52.13,4.85-.13,9.71-.36,14.47-.63,4.76-.36,9.48-.63,14.1-1.04,4.63-.49,9.17-.77,13.62-1.44,4.45-.63,8.76-1.12,12.98-1.89,4.18-.77,8.27-1.31,12.22-2.16,3.91-.85,7.68-1.71,11.32-2.52,3.59-.94,7.01-1.84,10.29-2.7,3.28-.9,6.34-1.98,9.21-2.83,1.44-.45,2.78-.9,4.14-1.34,1.34-.45,2.6-.94,3.82-1.39,2.43-.94,4.68-1.8,6.69-2.56,3.99-1.61,7.06-3.15,9.17-4.04,2.06-.99,3.19-1.53,3.19-1.53,0,0-4.76,1.21-13.12,3.28-2.06.45-4.41.94-6.92,1.48-1.26.32-2.56.59-3.91.9-1.34.22-2.78.49-4.22.77-2.92.49-6.02,1.17-9.3,1.61-3.28.54-6.74,1.04-10.33,1.61-7.23.9-15.06,1.8-23.36,2.56-8.32.72-17.12,1.17-26.19,1.66-4.54.22-9.17.27-13.84.4-4.68.05-9.39.09-14.2.13-9.52-.05-19.23-.09-28.93-.45-4.9-.13-9.75-.27-14.56-.54-4.85-.18-9.66-.49-14.47-.77-4.76-.32-9.52-.62-14.2-.94-4.68-.36-9.3-.67-13.88-1.04-9.07-.85-17.88-1.53-26.24-2.38-8.35-.85-16.22-1.66-23.54-2.43-7.28-.85-13.97-1.61-19.86-2.29-2.43-.32-6.79-.81-6.83-.85-2.2-8.13-3.19-16.62-3.19-25.2s.99-17.17,3.28-25.39c.49-.05,4.49-.54,6.74-.81,5.89-.67,12.58-1.44,19.86-2.29,7.33-.77,15.19-1.57,23.54-2.43,8.35-.85,17.16-1.53,26.24-2.38,4.58-.36,9.21-.67,13.88-1.04,4.68-.32,9.44-.63,14.2-.94,4.81-.32,9.61-.59,14.47-.77,4.81-.27,9.66-.4,14.56-.54,9.71-.36,19.41-.4,28.93-.45,4.81.05,9.52.09,14.2.13,4.68.13,9.3.18,13.84.4,9.07.49,17.88.94,26.19,1.66,8.32.77,16.13,1.66,23.36,2.56,3.59.59,7.06,1.08,10.33,1.61,3.28.45,6.38,1.12,9.3,1.61,1.44.27,2.87.54,4.22.77,1.34.32,2.65.59,3.91.85,2.52.59,4.85,1.08,6.92,1.53,8.35,2.06,13.12,3.28,13.12,3.28,0,0-1.12-.54-3.19-1.53-2.11-.9-5.17-2.43-9.17-4.04-2.03-.77-4.27-1.61-6.69-2.56-1.21-.45-2.47-.94-3.82-1.39-1.34-.45-2.7-.9-4.14-1.34-2.87-.85-5.93-1.93-9.21-2.83-3.28-.85-6.69-1.75-10.29-2.7-3.64-.81-7.41-1.66-11.32-2.52-3.96-.85-8.05-1.39-12.22-2.16-4.22-.77-8.54-1.26-12.98-1.89-4.45-.67-8.99-.94-13.62-1.44-4.63-.4-9.34-.67-14.1-1.04-4.76-.27-9.61-.49-14.47-.63-9.75-.22-19.64-.18-29.52.13-4.94.22-9.88.4-14.78.72-4.94.27-9.79.63-14.64,1.04-9.71.67-19.18,1.93-28.39,3.01-9.17,1.17-17.97,2.56-26.33,3.99-8.35,1.39-16.22,3.01-23.41,4.54-7.23,1.53-13.84,3.05-19.64,4.54-1.48.36-4.22,1.08-4.63,1.17,12.81-38.23,55.4-68.6,159.32-68.6,131.33,0,199.31,57.15,224.11,84.2.09.05.18.13.27.27.9,1.04,1.75,1.98,2.56,2.87.09.09.13.22.22.32,2.06,3.01,3.24,6.65,3.24,10.56v.04Z"/>
    <path class="cls-2" d="M1241.08,738.47c-2.18,3.02-5.08,5.2-8.32,6.47-1.8.42-3.85.88-6.1,1.32-36.72,7.39-124.47,13.09-229.88-62.8-84.49-60.83-101.19-110.44-89.15-149,.04.03,2.05,2.47,3.12,3.74,3.86,4.55,8.31,9.69,13.28,15.15,4.94,5.44,10.38,11.35,16.34,17.36,5.94,6.05,12.27,12.33,19.03,18.63,6.85,6.26,13.81,12.82,21.29,19.03,3.71,3.16,7.43,6.29,11.31,9.36,3.76,3.15,7.67,6.18,11.55,9.26,7.84,6.03,15.83,11.84,23.88,17.36,4.01,2.73,8.08,5.38,12.11,7.94,4.07,2.49,8.07,5.03,12.05,7.4,4.04,2.3,7.88,4.73,11.89,6.79,3.98,2.08,7.77,4.21,11.64,6.06,3.84,1.82,7.47,3.77,11.18,5.39,3.67,1.59,7.23,3.1,10.66,4.57,3.47,1.33,6.77,2.6,9.93,3.82,3.19,1.19,6.3,2.09,9.13,3.08,1.43.47,2.78.9,4.14,1.33s2.67.76,3.92,1.1c2.52.65,4.84,1.27,6.93,1.83,4.19,1.03,7.57,1.57,9.8,2.07,2.26.4,3.49.62,3.49.62,0,0-4.57-1.8-12.56-5-1.94-.84-4.13-1.81-6.48-2.84-1.2-.48-2.42-1.02-3.7-1.56-1.23-.6-2.55-1.23-3.87-1.84-2.66-1.31-5.57-2.57-8.5-4.12-2.98-1.48-6.08-3.1-9.33-4.72-6.39-3.5-13.27-7.34-20.46-11.57-7.16-4.27-14.58-9.05-22.23-13.95-3.81-2.47-7.59-5.14-11.46-7.76-3.82-2.7-7.67-5.42-11.6-8.19-7.7-5.6-15.55-11.31-23.22-17.27-3.9-2.97-7.76-5.91-11.5-8.94-3.83-2.98-7.55-6.05-11.29-9.07-3.68-3.03-7.36-6.08-10.97-9.06-3.58-3.02-7.15-5.98-10.67-8.95-6.87-5.99-13.62-11.69-19.9-17.26-6.28-5.58-12.19-10.82-17.69-15.73-5.41-4.94-10.4-9.48-14.78-13.46-1.79-1.67-5.03-4.62-5.04-4.69,2.97-7.88,7.12-15.35,12.14-22.32,5.04-7,10.83-13.36,17.49-18.68.43.25,3.97,2.19,5.94,3.28,5.17,2.89,11.05,6.18,17.46,9.75,6.39,3.66,13.24,7.59,20.53,11.79,7.28,4.19,14.82,8.79,22.69,13.39,3.93,2.38,7.87,4.84,11.87,7.27,3.98,2.48,8.03,5,12.07,7.53,4.08,2.55,8.14,5.15,12.18,7.83,4.06,2.59,8.08,5.32,12.13,8.07,8.08,5.38,15.99,11.01,23.75,16.54,3.88,2.84,7.68,5.64,11.45,8.4,3.72,2.84,7.44,5.58,10.99,8.41,7.08,5.7,13.96,11.21,20.29,16.65,6.3,5.47,12.12,10.77,17.47,15.73,2.57,2.57,5.1,4.99,7.44,7.35,2.4,2.29,4.52,4.64,6.61,6.75,1.01,1.06,2.02,2.12,2.98,3.09.91,1.05,1.81,2.03,2.67,2.98,1.7,1.94,3.31,3.71,4.72,5.28,5.58,6.56,8.73,10.33,8.73,10.33,0,0-.6-1.09-1.7-3.1-1.19-1.96-2.77-4.98-5.08-8.64-1.19-1.81-2.52-3.8-3.94-5.99-.72-1.08-1.45-2.21-2.29-3.36s-1.66-2.3-2.56-3.5c-1.83-2.37-3.69-5.03-5.82-7.68-2.16-2.61-4.41-5.33-6.78-8.2-2.48-2.78-5.04-5.68-7.72-8.66-2.71-3.01-5.71-5.83-8.66-8.89-2.99-3.09-6.19-6.01-9.44-9.12-3.22-3.15-6.74-6.02-10.21-9.12-3.52-3.03-7.19-6.01-10.85-9.08-3.71-3.01-7.52-6.02-11.38-8.97-7.78-5.88-15.83-11.62-24.03-17.14-4.14-2.71-8.26-5.44-12.42-8.06-4.17-2.67-8.32-5.21-12.49-7.72-8.27-5.13-16.7-9.64-24.8-14.14-8.12-4.41-16.08-8.42-23.71-12.14-7.59-3.75-14.92-7.04-21.65-10-6.76-2.99-13.02-5.61-18.59-7.79-1.41-.58-4.06-1.59-4.44-1.76,32.73-23.55,85.04-23.31,169.38,37.41,106.58,76.73,128.37,162.83,132.69,199.27.05.09.07.21.06.37.12,1.36.27,2.63.39,3.83.02.12-.02.26,0,.38-.08,3.65-1.26,7.29-3.54,10.46h.03Z"/>
    <path class="cls-2" d="M1430.1,966.07c0,3.73,1.08,7.19,2.97,10.11,1.21,1.39,2.6,2.97,4.18,4.63,25.47,27.45,93.37,83.34,223.26,83.34,104.1,0,146.65-30.5,159.41-68.83-.05,0-3.1.81-4.71,1.21-5.8,1.44-12.41,3.01-19.64,4.54-7.19,1.53-15.06,3.15-23.41,4.54-8.35,1.44-17.16,2.83-26.33,3.99-9.21,1.08-18.69,2.33-28.39,3.01-4.85.4-9.71.77-14.64.99-4.9.36-9.84.54-14.78.77-9.88.32-19.77.36-29.52.13-4.85-.13-9.71-.36-14.47-.63-4.76-.36-9.48-.63-14.1-1.04-4.63-.49-9.17-.77-13.62-1.44-4.45-.63-8.76-1.12-12.98-1.89-4.18-.77-8.27-1.31-12.22-2.16-3.91-.85-7.68-1.71-11.32-2.52-3.59-.94-7.01-1.84-10.29-2.7-3.28-.9-6.34-1.98-9.21-2.83-1.44-.45-2.78-.9-4.14-1.34-1.34-.45-2.6-.94-3.82-1.39-2.43-.94-4.68-1.8-6.69-2.56-3.99-1.61-7.06-3.15-9.17-4.04-2.06-.99-3.19-1.53-3.19-1.53,0,0,4.76,1.21,13.12,3.28,2.06.45,4.41.94,6.92,1.48,1.26.32,2.56.59,3.91.9,1.34.22,2.78.49,4.22.77,2.92.49,6.02,1.17,9.3,1.61,3.28.54,6.74,1.04,10.33,1.61,7.23.9,15.06,1.8,23.36,2.56,8.32.72,17.12,1.17,26.19,1.66,4.54.22,9.17.27,13.84.4,4.68.05,9.39.09,14.2.13,9.52-.05,19.23-.09,28.93-.45,4.9-.13,9.75-.27,14.56-.54,4.85-.18,9.66-.49,14.47-.77,4.76-.32,9.52-.62,14.2-.94,4.68-.36,9.3-.67,13.88-1.04,9.07-.85,17.88-1.53,26.24-2.38,8.35-.85,16.22-1.66,23.54-2.43,7.28-.85,13.97-1.61,19.86-2.29,2.43-.32,6.79-.81,6.83-.85,2.2-8.13,3.19-16.62,3.19-25.2s-.99-17.17-3.28-25.39c-.49-.05-4.49-.54-6.74-.81-5.89-.67-12.58-1.44-19.86-2.29-7.33-.77-15.19-1.57-23.54-2.43-8.35-.85-17.16-1.53-26.24-2.38-4.58-.36-9.21-.67-13.88-1.04-4.68-.32-9.44-.63-14.2-.94-4.81-.32-9.61-.59-14.47-.77-4.81-.27-9.66-.4-14.56-.54-9.71-.36-19.41-.4-28.93-.45-4.81.05-9.52.09-14.2.13-4.68.13-9.3.18-13.84.4-9.07.49-17.88.94-26.19,1.66-8.32.77-16.13,1.66-23.36,2.56-3.59.59-7.06,1.08-10.33,1.61-3.28.45-6.38,1.12-9.3,1.61-1.44.27-2.87.54-4.22.77-1.34.32-2.65.59-3.91.85-2.52.59-4.85,1.08-6.92,1.53-8.35,2.06-13.12,3.28-13.12,3.28,0,0,1.12-.54,3.19-1.53,2.11-.9,5.17-2.43,9.17-4.04,2.03-.77,4.27-1.61,6.69-2.56,1.21-.45,2.47-.94,3.82-1.39,1.34-.45,2.7-.9,4.14-1.34,2.87-.85,5.93-1.93,9.21-2.83,3.28-.85,6.69-1.75,10.29-2.7,3.64-.81,7.41-1.66,11.32-2.52,3.96-.85,8.05-1.39,12.22-2.16,4.22-.77,8.54-1.26,12.98-1.89,4.45-.67,8.99-.94,13.62-1.44,4.63-.4,9.34-.67,14.1-1.04,4.76-.27,9.61-.49,14.47-.63,9.75-.22,19.64-.18,29.52.13,4.94.22,9.88.4,14.78.72,4.94.27,9.79.63,14.64,1.04,9.71.67,19.18,1.93,28.39,3.01,9.17,1.17,17.97,2.56,26.33,3.99,8.35,1.39,16.22,3.01,23.41,4.54,7.23,1.53,13.84,3.05,19.64,4.54,1.48.36,4.22,1.08,4.63,1.17-12.81-38.23-55.4-68.6-159.32-68.6-131.33,0-199.31,57.15-224.11,84.2-.09.05-.18.13-.27.27-.9,1.04-1.75,1.98-2.56,2.87-.09.09-.13.22-.22.32-2.06,3.01-3.24,6.65-3.24,10.56v.04Z"/>
    <path class="cls-2" d="M1434.85,738.47c2.18,3.02,5.08,5.2,8.32,6.47,1.8.42,3.85.88,6.1,1.32,36.72,7.39,124.47,13.09,229.88-62.8,84.49-60.83,101.19-110.44,89.15-149-.04.03-2.05,2.47-3.12,3.74-3.86,4.55-8.31,9.69-13.28,15.15-4.94,5.44-10.38,11.35-16.34,17.36-5.94,6.05-12.27,12.33-19.03,18.63-6.85,6.26-13.81,12.82-21.29,19.03-3.71,3.16-7.43,6.29-11.31,9.36-3.76,3.15-7.67,6.18-11.55,9.26-7.84,6.03-15.83,11.84-23.88,17.36-4.01,2.73-8.08,5.38-12.11,7.94-4.07,2.49-8.07,5.03-12.05,7.4-4.04,2.3-7.88,4.73-11.89,6.79-3.98,2.08-7.77,4.21-11.64,6.06-3.84,1.82-7.47,3.77-11.18,5.39-3.67,1.59-7.23,3.1-10.66,4.57-3.47,1.33-6.77,2.6-9.93,3.82-3.19,1.19-6.3,2.09-9.13,3.08-1.43.47-2.78.9-4.14,1.33s-2.67.76-3.92,1.1c-2.52.65-4.84,1.27-6.93,1.83-4.19,1.03-7.57,1.57-9.8,2.07-2.26.4-3.49.62-3.49.62,0,0,4.57-1.8,12.56-5,1.94-.84,4.13-1.81,6.48-2.84,1.2-.48,2.42-1.02,3.7-1.56,1.23-.6,2.55-1.23,3.87-1.84,2.66-1.31,5.57-2.57,8.5-4.12,2.98-1.48,6.08-3.1,9.33-4.72,6.39-3.5,13.27-7.34,20.46-11.57,7.16-4.27,14.58-9.05,22.23-13.95,3.81-2.47,7.59-5.14,11.46-7.76,3.82-2.7,7.67-5.42,11.6-8.19,7.7-5.6,15.55-11.31,23.22-17.27,3.9-2.97,7.76-5.91,11.5-8.94,3.83-2.98,7.55-6.05,11.29-9.07,3.68-3.03,7.36-6.08,10.97-9.06,3.58-3.02,7.15-5.98,10.67-8.95,6.87-5.99,13.62-11.69,19.9-17.26,6.28-5.58,12.19-10.82,17.69-15.73,5.41-4.94,10.4-9.48,14.78-13.46,1.79-1.67,5.03-4.62,5.04-4.69-2.97-7.88-7.12-15.35-12.14-22.32-5.04-7-10.83-13.36-17.49-18.68-.43.25-3.97,2.19-5.94,3.28-5.18,2.89-11.05,6.18-17.46,9.75-6.39,3.66-13.24,7.59-20.53,11.79-7.28,4.19-14.82,8.79-22.69,13.39-3.93,2.38-7.87,4.84-11.87,7.27-3.98,2.48-8.03,5-12.07,7.53-4.08,2.55-8.14,5.15-12.18,7.83-4.06,2.59-8.08,5.32-12.13,8.07-8.08,5.38-15.99,11.01-23.75,16.54-3.88,2.84-7.68,5.64-11.45,8.4-3.72,2.84-7.44,5.58-10.99,8.41-7.08,5.7-13.96,11.21-20.29,16.65-6.3,5.47-12.12,10.77-17.47,15.73-2.57,2.57-5.1,4.99-7.44,7.35-2.4,2.29-4.52,4.64-6.61,6.75-1.01,1.06-2.02,2.12-2.98,3.09-.91,1.05-1.81,2.03-2.67,2.98-1.7,1.94-3.31,3.71-4.72,5.28-5.58,6.56-8.73,10.33-8.73,10.33,0,0,.6-1.09,1.7-3.1,1.19-1.96,2.77-4.98,5.08-8.64,1.19-1.81,2.52-3.8,3.94-5.99.72-1.08,1.45-2.21,2.29-3.36.84-1.15,1.66-2.3,2.56-3.5,1.83-2.37,3.69-5.03,5.82-7.68,2.16-2.61,4.41-5.33,6.78-8.2,2.48-2.78,5.04-5.68,7.72-8.66,2.71-3.01,5.71-5.83,8.66-8.89,2.99-3.09,6.19-6.01,9.44-9.12,3.22-3.15,6.74-6.02,10.21-9.12,3.52-3.03,7.19-6.01,10.85-9.08,3.71-3.01,7.52-6.02,11.38-8.97,7.78-5.88,15.83-11.62,24.03-17.14,4.14-2.71,8.26-5.44,12.42-8.06,4.17-2.67,8.32-5.21,12.49-7.72,8.27-5.13,16.7-9.64,24.8-14.14,8.12-4.41,16.08-8.42,23.71-12.14,7.59-3.75,14.92-7.04,21.65-10,6.76-2.99,13.02-5.61,18.59-7.79,1.41-.58,4.06-1.59,4.44-1.76-32.73-23.55-85.04-23.31-169.38,37.41-106.58,76.73-128.37,162.83-132.69,199.27-.05.09-.07.21-.06.37-.12,1.36-.27,2.63-.39,3.83-.02.12.02.26,0,.38.08,3.65,1.26,7.29,3.54,10.46h-.03Z"/>
    <path class="cls-2" d="M1338.3,394.27c-3.73,0-7.19-1.08-10.11-2.97-1.39-1.21-2.97-2.6-4.63-4.18-27.45-25.47-83.34-93.37-83.34-223.26,0-104.1,30.5-146.65,68.83-159.41,0,.05-.81,3.1-1.21,4.71-1.44,5.8-3.01,12.41-4.54,19.64-1.53,7.19-3.15,15.06-4.54,23.41-1.44,8.35-2.83,17.17-3.99,26.33-1.08,9.21-2.33,18.69-3.01,28.39-.4,4.85-.77,9.71-.99,14.64-.36,4.9-.54,9.84-.77,14.78-.32,9.88-.36,19.77-.13,29.52.13,4.85.36,9.71.63,14.47.36,4.76.63,9.48,1.04,14.1.49,4.63.77,9.17,1.44,13.62.63,4.45,1.12,8.76,1.89,12.98.77,4.18,1.31,8.27,2.16,12.22.85,3.91,1.71,7.68,2.52,11.32.94,3.59,1.84,7.01,2.7,10.29.9,3.28,1.98,6.34,2.83,9.21.45,1.44.9,2.78,1.34,4.14.45,1.34.94,2.6,1.39,3.82.94,2.43,1.8,4.68,2.56,6.69,1.61,3.99,3.15,7.06,4.04,9.17.99,2.06,1.53,3.19,1.53,3.19,0,0-1.21-4.76-3.28-13.12-.45-2.06-.94-4.41-1.48-6.92-.32-1.26-.59-2.56-.9-3.91-.22-1.34-.49-2.78-.77-4.22-.49-2.92-1.17-6.02-1.61-9.3-.54-3.28-1.04-6.74-1.61-10.33-.9-7.23-1.8-15.06-2.56-23.36-.72-8.32-1.17-17.12-1.66-26.19-.22-4.54-.27-9.17-.4-13.84-.05-4.68-.09-9.39-.13-14.2.05-9.52.09-19.23.45-28.93.13-4.9.27-9.75.54-14.56.18-4.85.49-9.66.77-14.47.32-4.76.62-9.52.94-14.2.36-4.68.67-9.3,1.04-13.88.85-9.07,1.53-17.88,2.38-26.24.85-8.35,1.66-16.22,2.43-23.54.85-7.28,1.61-13.97,2.29-19.86.32-2.43.81-6.79.85-6.83,8.13-2.2,16.62-3.19,25.2-3.19s17.17.99,25.39,3.28c.05.49.54,4.49.81,6.74.67,5.89,1.44,12.58,2.29,19.86.77,7.33,1.57,15.19,2.43,23.54.85,8.35,1.53,17.16,2.38,26.24.36,4.58.67,9.21,1.04,13.88.32,4.68.63,9.44.94,14.2.32,4.81.59,9.61.77,14.47.27,4.81.4,9.66.54,14.56.36,9.71.4,19.41.45,28.93-.05,4.81-.09,9.52-.13,14.2-.13,4.68-.18,9.3-.4,13.84-.49,9.07-.94,17.88-1.66,26.19-.77,8.32-1.66,16.13-2.56,23.36-.59,3.59-1.08,7.06-1.61,10.33-.45,3.28-1.12,6.38-1.61,9.3-.27,1.44-.54,2.87-.77,4.22-.32,1.34-.59,2.65-.85,3.91-.59,2.52-1.08,4.85-1.53,6.92-2.06,8.35-3.28,13.12-3.28,13.12,0,0,.54-1.12,1.53-3.19.9-2.11,2.43-5.17,4.04-9.17.77-2.03,1.61-4.27,2.56-6.69.45-1.21.94-2.47,1.39-3.82.45-1.34.9-2.7,1.34-4.14.85-2.87,1.93-5.93,2.83-9.21.85-3.28,1.75-6.69,2.7-10.29.81-3.64,1.66-7.41,2.52-11.32.85-3.96,1.39-8.05,2.16-12.22.77-4.22,1.26-8.54,1.89-12.98.67-4.45.94-8.99,1.44-13.62.4-4.63.67-9.34,1.04-14.1.27-4.76.49-9.61.63-14.47.22-9.75.18-19.64-.13-29.52-.22-4.94-.4-9.88-.72-14.78-.27-4.94-.63-9.79-1.04-14.64-.67-9.71-1.93-19.18-3.01-28.39-1.17-9.17-2.56-17.97-3.99-26.33-1.39-8.35-3.01-16.22-4.54-23.41-1.53-7.23-3.05-13.84-4.54-19.64-.36-1.48-1.08-4.22-1.17-4.63,38.23,12.81,68.6,55.4,68.6,159.32,0,131.33-57.15,199.31-84.2,224.11-.05.09-.13.18-.27.27-1.04.9-1.98,1.76-2.87,2.56-.09.09-.22.13-.32.22-3.01,2.06-6.65,3.24-10.56,3.24h-.04Z"/>
    <path class="cls-2" d="M1368.68,486.21v808.51c-.77,15.68-13.35,28.26-29.03,29.03h-3.15c-16-.77-28.71-13.75-29.11-29.78V487.03c.36-16.4,13.52-29.56,29.92-29.92h1.57c16.04.4,29.03,13.12,29.78,29.11h0Z"/>
    <path class="cls-2" d="M1823.85,1427.18c0,7.64-6.2,13.84-13.88,13.84h-944.46c-6.87-.32-12.41-5.62-13.08-12.41v-2.83c.62-6.52,5.84-11.72,12.36-12.36h946.98c6.83.85,12.09,6.69,12.09,13.75h0Z"/>
  </g>
</svg>