<?xml version="1.0" encoding="UTF-8"?>
<svg id="Capa_2" data-name="Capa 2" xmlns="http://www.w3.org/2000/svg" viewBox="0 0 2590.9 2650.15">
  <defs>
    <style>
      .cls-1 {
        fill: #925e43;
      }

      .cls-2 {
        fill: #ebebeb;
      }
    </style>
  </defs>
  <g id="Capa_1-2" data-name="Capa 1">
    <g>
      <g>
        <path class="cls-1" d="M1242.76,2599.69c0,4.3-.52,8.57-1.56,12.56,0,.08,0,.18-.13.18-.91,3.99-2.35,7.79-4.26,11.34-.13.18-.18.34-.39.52-1.13,2.3-2.61,4.52-4.3,6.57-.7,1.17-1.56,2.22-2.56,3.18-4.82,5.35-10.69,9.61-17.39,12.39-3.86,1.65-7.95,2.78-12.26,3.31-6.74-.47-13.43-1-20.09-1.61-302.44-26.56-583.18-157.19-800.38-374.38C134.72,2029.06,0,1703.76,0,1357.71c0-209.63,51.26-417.82,148.15-602.15,93.81-178.37,230.23-334.74,394.52-452.25,21.91-15.65,52.3-10.61,67.95,11.31,15.65,21.87,10.61,52.3-11.26,67.95-151.98,108.68-278.18,253.36-364.95,418.34-89.64,170.37-136.99,362.91-136.99,556.8,0,320.01,124.59,620.84,350.87,847.15,199.41,199.41,456.72,319.83,734.08,345.56,9.96.96,19.91,1.78,29.91,2.43,5.87,2.48,11.21,6.13,15.69,10.65,1.52,1.52,2.92,3,4.04,4.69,2.04,2.56,3.78,5.3,5.17,8.34,1.61,3.08,2.92,6.26,3.78,9.74,1.13,4.26,1.78,8.78,1.78,13.39v.02h0Z"/>
        <path class="cls-1" d="M2590.89,1357.71c0,346.05-134.72,671.35-379.43,916.01-216.28,216.28-495.59,346.7-796.59,374.04-9.96.91-19.91,1.69-29.91,2.39-8.18-2.04-15.52-6.09-21.52-11.65-2.48-2.3-4.65-4.78-6.7-7.56.06-.06.06-.08,0-.08-2-2.82-3.65-5.74-5-8.91-.87-1.78-1.56-3.65-2.09-5.52-1.61-4.87-2.39-10-2.39-15.38s.78-10.3,2.22-15.09c0-.08.08-.26.18-.44.44-1.43.87-2.82,1.48-4.17v-.08c1.39-3.34,3.08-6.57,5.26-9.48,2.22-3.44,5-6.57,8.08-9.3,5.08-4.43,11-7.82,17.52-9.83,7.13-.47,14.17-1.04,21.26-1.69,279.35-24.74,538.67-145.41,739.35-346.09,226.28-226.32,350.87-527.15,350.87-847.15,0-193.89-47.34-386.43-136.99-556.8-86.77-164.98-212.97-309.66-364.95-418.34-21.87-15.65-26.91-46.08-11.26-67.95,15.61-21.91,46.03-26.95,67.95-11.31,164.28,117.5,300.7,273.88,394.52,452.25,96.9,184.32,148.15,392.52,148.15,602.15v-.02h0Z"/>
      </g>
      <g>
        <path class="cls-1" d="M677.87,507.43c-134.85,96.42-246.8,224.75-323.79,371.13-79.52,151.15-121.55,322-121.55,493.98s38.26,328.01,110.56,473.16c1.43,2.95,2.95,5.91,4.48,8.87.6,2.09.91,4.3.91,6.57,0,13.65-11.08,24.78-24.78,24.78-6.39,0-12.22-2.43-16.6-6.39-1.26-1.13-2.35-2.35-3.39-3.7-.7-.9-.7-.91,0-.05-1.22-2.35-2.43-4.74-3.57-7.09-76.08-152.2-116.29-321.09-116.29-496.15s43.95-358.52,127.16-516.67c80.46-153.02,197.54-287.22,338.52-388.08,10.95-7.82,26.17-5.26,33.99,5.65,7.82,10.95,5.3,26.17-5.65,33.99h0Z"/>
        <path class="cls-1" d="M2199.12,2012.59c0,4.26-1.09,8.31-3,11.83-.05.08-.08.18-.18.26-1.13,1.61-2.3,3.18-3.47,4.78-33.34,45.38-70.43,88.56-110.98,129.12-209.97,209.97-489.11,325.57-786.03,325.57s-576.06-115.59-786.03-325.57c-40-40-76.6-82.55-109.64-127.24-2-2.69-3.96-5.43-5.91-8.13-1.48-3.13-2.26-6.61-2.26-10.26,0-13.69,11.08-24.82,24.78-24.82,6.74,0,12.87,2.69,17.35,7.09,1.52,2.13,3.08,4.26,4.65,6.39,31.78,43.04,66.99,84.03,105.51,122.55,200.71,200.76,467.64,311.31,751.55,311.31s550.84-110.56,751.55-311.31c38.13-38.13,72.99-78.64,104.51-121.2v-.05c2.3-3.08,4.52-6.13,6.74-9.22,4.35-3.7,9.96-5.91,16.08-5.91,6.74,0,12.87,2.69,17.35,7.09.74.74,1.43,1.48,2.04,2.3,1,1.26,1.87,2.61,2.61,4.09.78,1.52,1.43,3.08,1.87,4.78.61,2.09.91,4.3.91,6.57v-.03h0Z"/>
        <path class="cls-1" d="M2407.04,1372.54c0,174.45-39.95,342.79-115.51,494.55,0,.05,0,.08-.05.08-1.43,3-2.95,6.04-4.52,9.04-.39.57-.83,1.09-1.3,1.56-4.52,4.87-10.95,7.92-18.13,7.92-6.39,0-12.22-2.43-16.61-6.39-1.26-1.13-2.35-2.35-3.39-3.7-.7-.9-.7-.91,0-.05-1-1.39-1.83-2.82-2.52-4.39-.44-.87-.78-1.78-1.04-2.69-.83-2.39-1.22-4.91-1.22-7.56s.39-5.04,1.13-7.39c0-.05.05-.13.08-.21,1.17-2.26,2.3-4.48,3.39-6.74,72.6-145.41,110.98-306.79,110.98-474.03s-42.04-342.82-121.55-493.98c-76.99-146.37-188.93-274.71-323.79-371.13-10.95-7.82-13.48-23.04-5.65-33.99,7.82-10.92,23.04-13.48,33.99-5.65,140.98,100.86,258.06,235.06,338.52,388.08,83.2,158.15,127.16,336.83,127.16,516.67h0Z"/>
      </g>
    </g>
    <path class="cls-2" d="M1142.4,1566.18c0,6.04-1.75,11.66-4.81,16.39-1.96,2.26-4.22,4.81-6.77,7.51-41.3,44.5-151.37,135.11-361.94,135.11-168.77,0-237.74-49.45-258.43-111.6.07,0,5.03,1.31,7.65,1.96,9.4,2.33,20.11,4.89,31.83,7.37,11.66,2.47,24.41,5.11,37.95,7.37,13.55,2.33,27.83,4.59,42.68,6.48,14.93,1.75,30.31,3.78,46.02,4.89,7.86.65,15.74,1.24,23.74,1.61,7.94.58,15.95.87,23.96,1.24,16.02.51,32.05.58,47.85.21,7.86-.21,15.74-.58,23.46-1.03,7.72-.58,15.37-1.03,22.86-1.68,7.51-.79,14.86-1.24,22.07-2.33,7.21-1.03,14.2-1.82,21.04-3.07,6.77-1.24,13.41-2.12,19.82-3.5,6.34-1.38,12.45-2.77,18.35-4.08,5.83-1.52,11.36-2.99,16.69-4.38,5.32-1.46,10.28-3.21,14.93-4.59,2.33-.73,4.52-1.46,6.71-2.18,2.18-.73,4.22-1.52,6.2-2.26,3.94-1.52,7.58-2.91,10.85-4.15,6.48-2.61,11.44-5.11,14.86-6.55,3.34-1.61,5.17-2.47,5.17-2.47,0,0-7.72,1.96-21.27,5.32-3.34.73-7.14,1.52-11.22,2.4-2.04.51-4.15.95-6.34,1.46-2.18.36-4.52.79-6.85,1.24-4.73.79-9.76,1.9-15.09,2.61-5.32.87-10.93,1.68-16.75,2.61-11.72,1.46-24.41,2.91-37.87,4.15-13.48,1.17-27.75,1.9-42.47,2.69-7.37.36-14.86.44-22.43.65-7.58.07-15.23.14-23.02.21-15.44-.07-31.18-.14-46.9-.73-7.94-.21-15.8-.44-23.6-.87-7.86-.3-15.66-.79-23.46-1.24-7.72-.51-15.44-1.01-23.02-1.52-7.58-.58-15.09-1.09-22.51-1.68-14.71-1.38-28.99-2.47-42.54-3.86-13.55-1.38-26.29-2.69-38.16-3.94-11.8-1.38-22.65-2.61-32.19-3.72-3.94-.51-11.01-1.31-11.06-1.38-3.57-13.18-5.17-26.94-5.17-40.86s1.61-27.83,5.32-41.16c.79-.07,7.28-.87,10.93-1.31,9.54-1.09,20.39-2.33,32.19-3.72,11.87-1.24,24.63-2.55,38.16-3.94,13.55-1.38,27.82-2.47,42.54-3.86,7.42-.58,14.93-1.09,22.51-1.68,7.58-.51,15.3-1.03,23.02-1.52,7.79-.51,15.58-.95,23.46-1.24,7.79-.44,15.66-.65,23.6-.87,15.74-.58,31.46-.65,46.9-.73,7.79.07,15.44.14,23.02.21,7.58.21,15.09.3,22.43.65,14.71.79,28.99,1.52,42.47,2.69,13.48,1.24,26.15,2.69,37.87,4.15,5.83.95,11.44,1.75,16.75,2.61,5.32.73,10.34,1.82,15.09,2.61,2.33.44,4.65.87,6.85,1.24,2.18.51,4.29.95,6.34,1.38,4.08.95,7.86,1.75,11.22,2.47,13.55,3.34,21.27,5.32,21.27,5.32,0,0-1.82-.87-5.17-2.47-3.43-1.46-8.37-3.94-14.86-6.55-3.29-1.24-6.93-2.61-10.85-4.15-1.96-.73-4-1.52-6.2-2.26-2.18-.73-4.38-1.46-6.71-2.18-4.65-1.38-9.62-3.13-14.93-4.59-5.32-1.38-10.85-2.83-16.69-4.38-5.9-1.31-12.01-2.69-18.35-4.08-6.41-1.38-13.04-2.26-19.82-3.5-6.85-1.24-13.84-2.03-21.04-3.07-7.21-1.09-14.57-1.52-22.07-2.33-7.51-.65-15.14-1.09-22.86-1.68-7.72-.44-15.58-.79-23.46-1.03-15.8-.36-31.83-.3-47.85.21-8.02.36-16.02.65-23.96,1.17-8.02.44-15.88,1.03-23.74,1.68-15.74,1.09-31.1,3.13-46.02,4.89-14.86,1.9-29.14,4.15-42.68,6.48-13.55,2.26-26.29,4.87-37.95,7.37-11.72,2.47-22.43,4.95-31.83,7.37-2.4.58-6.85,1.75-7.51,1.9,20.76-61.99,89.82-111.22,258.29-111.22,212.91,0,323.12,92.65,363.33,136.49.14.07.3.21.44.44,1.46,1.68,2.83,3.21,4.15,4.65.14.14.21.36.36.51,3.34,4.89,5.25,10.79,5.25,17.12l-.02.06v.04Z"/>
    <path class="cls-2" d="M1135.37,1197.2c-3.53,4.91-8.23,8.44-13.48,10.49-2.91.69-6.24,1.43-9.88,2.14-59.52,11.98-201.79,21.22-372.68-101.8-136.97-98.61-164.05-179.04-144.53-241.55.07.05,3.32,4,5.06,6.07,6.26,7.38,13.46,15.71,21.53,24.56,8.02,8.83,16.82,18.39,26.5,28.14,9.63,9.81,19.89,19.98,30.85,30.19,11.1,10.15,22.38,20.78,34.51,30.85,6.01,5.12,12.05,10.19,18.34,15.18,6.1,5.11,12.44,10.02,18.73,15,12.7,9.77,25.67,19.19,38.71,28.14,6.5,4.42,13.11,8.71,19.63,12.88,6.6,4.03,13.07,8.16,19.54,12,6.55,3.73,12.78,7.67,19.27,11.01,6.45,3.38,12.59,6.82,18.87,9.82,6.22,2.95,12.11,6.11,18.12,8.73,5.95,2.58,11.72,5.03,17.28,7.41,5.62,2.16,10.97,4.22,16.09,6.2,5.17,1.93,10.21,3.39,14.8,5,2.32.76,4.52,1.46,6.71,2.15s4.33,1.23,6.35,1.79c4.08,1.06,7.84,2.05,11.24,2.97,6.79,1.66,12.26,2.54,15.9,3.36,3.66.65,5.65,1.01,5.65,1.01,0,0-7.41-2.91-20.36-8.11-3.14-1.37-6.69-2.93-10.51-4.61-1.94-.78-3.92-1.65-5.99-2.52-1.99-.98-4.14-1.99-6.27-2.99-4.31-2.12-9.03-4.17-13.78-6.68-4.82-2.4-9.86-5.03-15.13-7.66-10.37-5.67-21.52-11.89-33.18-18.76-11.61-6.93-23.63-14.68-36.04-22.62-6.18-4-12.31-8.32-18.59-12.58-6.2-4.38-12.44-8.78-18.8-13.28-12.49-9.08-25.21-18.34-37.64-28-6.32-4.81-12.58-9.59-18.65-14.49-6.22-4.82-12.24-9.81-18.3-14.71-5.96-4.91-11.94-9.86-17.79-14.7-5.81-4.91-11.59-9.7-17.29-14.51-11.13-9.72-22.07-18.94-32.27-27.99-10.18-9.04-19.77-17.54-28.67-25.49-8.76-8.02-16.86-15.37-23.96-21.82-2.9-2.71-8.16-7.49-8.18-7.6,4.81-12.78,11.55-24.89,19.68-36.2,8.18-11.34,17.56-21.66,28.36-30.3.7.41,6.43,3.55,9.63,5.32,8.37,4.68,17.92,10.02,28.3,15.8,10.35,5.93,21.47,12.31,33.28,19.12,11.8,6.79,24.03,14.24,36.78,21.71,6.36,3.86,12.76,7.84,19.24,11.78,6.45,4.01,13.02,8.11,19.57,12.21,6.61,4.14,13.2,8.34,19.75,12.7,6.59,4.2,13.09,8.62,19.66,13.07,13.11,8.71,25.92,17.86,38.5,26.82,6.29,4.61,12.45,9.14,18.55,13.62,6.02,4.61,12.07,9.04,17.82,13.64,11.47,9.24,22.63,18.18,32.89,26.99,10.21,8.87,19.64,17.47,28.32,25.49,4.17,4.17,8.27,8.09,12.07,11.92,3.89,3.71,7.33,7.52,10.71,10.94,1.64,1.71,3.27,3.44,4.82,5.02,1.48,1.7,2.95,3.29,4.33,4.82,2.76,3.14,5.37,6.01,7.66,8.57,9.04,10.63,14.15,16.75,14.15,16.75,0,0-.97-1.77-2.76-5.03-1.93-3.18-4.5-8.08-8.23-14.01-1.93-2.93-4.08-6.17-6.38-9.72-1.17-1.75-2.35-3.58-3.71-5.44s-2.69-3.73-4.15-5.69c-2.97-3.85-5.97-8.16-9.43-12.45-3.5-4.24-7.14-8.64-10.99-13.29-4.01-4.52-8.18-9.22-12.51-14.04-4.39-4.87-9.26-9.45-14.04-14.42-4.84-5.02-10.04-9.75-15.3-14.79-5.21-5.11-10.93-9.76-16.55-14.79-5.71-4.91-11.66-9.75-17.59-14.73-6.01-4.87-12.19-9.76-18.44-14.54-12.61-9.52-25.67-18.83-38.96-27.79-6.71-4.39-13.39-8.83-20.12-13.06-6.75-4.33-13.48-8.45-20.25-12.51-13.41-8.31-27.07-15.63-40.21-22.93-13.16-7.14-26.07-13.65-38.43-19.68-12.31-6.09-24.19-11.41-35.1-16.2-10.96-4.84-21.11-9.09-30.14-12.63-2.29-.94-6.59-2.58-7.19-2.85,53.07-38.18,137.87-37.79,274.6,60.65,172.78,124.39,208.1,263.97,215.11,323.05.07.14.11.34.09.6.2,2.21.44,4.26.64,6.22.03.2-.03.42,0,.62-.12,5.92-2.04,11.82-5.74,16.95l.05.02-.02.02Z"/>
    <path class="cls-2" d="M1441.8,1566.18c0,6.04,1.75,11.66,4.81,16.39,1.96,2.26,4.22,4.81,6.77,7.51,41.3,44.5,151.37,135.11,361.94,135.11,168.77,0,237.74-49.45,258.43-111.6-.07,0-5.03,1.31-7.65,1.96-9.4,2.33-20.11,4.89-31.83,7.37-11.66,2.47-24.41,5.11-37.95,7.37-13.55,2.33-27.82,4.59-42.68,6.48-14.93,1.75-30.31,3.78-46.02,4.89-7.86.65-15.74,1.24-23.74,1.61-7.94.58-15.95.87-23.96,1.24-16.02.51-32.05.58-47.85.21-7.86-.21-15.74-.58-23.46-1.03-7.72-.58-15.37-1.03-22.86-1.68-7.51-.79-14.86-1.24-22.07-2.33-7.21-1.03-14.2-1.82-21.04-3.07-6.77-1.24-13.41-2.12-19.82-3.5-6.34-1.38-12.45-2.77-18.35-4.08-5.83-1.52-11.36-2.99-16.69-4.38-5.32-1.46-10.28-3.21-14.93-4.59-2.33-.73-4.52-1.46-6.71-2.18-2.18-.73-4.22-1.52-6.2-2.26-3.94-1.52-7.58-2.91-10.85-4.15-6.48-2.61-11.44-5.11-14.86-6.55-3.34-1.61-5.17-2.47-5.17-2.47,0,0,7.72,1.96,21.27,5.32,3.34.73,7.14,1.52,11.22,2.4,2.04.51,4.15.95,6.34,1.46,2.18.36,4.52.79,6.85,1.24,4.73.79,9.76,1.9,15.09,2.61,5.32.87,10.93,1.68,16.75,2.61,11.72,1.46,24.41,2.91,37.87,4.15,13.48,1.17,27.75,1.9,42.47,2.69,7.37.36,14.86.44,22.43.65,7.58.07,15.23.14,23.02.21,15.44-.07,31.18-.14,46.9-.73,7.94-.21,15.8-.44,23.6-.87,7.86-.3,15.66-.79,23.46-1.24,7.72-.51,15.44-1.01,23.02-1.52,7.58-.58,15.09-1.09,22.51-1.68,14.71-1.38,28.99-2.47,42.54-3.86,13.55-1.38,26.29-2.69,38.16-3.94,11.8-1.38,22.65-2.61,32.19-3.72,3.94-.51,11.01-1.31,11.06-1.38,3.57-13.18,5.17-26.94,5.17-40.86s-1.61-27.83-5.32-41.16c-.79-.07-7.28-.87-10.93-1.31-9.54-1.09-20.39-2.33-32.19-3.72-11.87-1.24-24.63-2.55-38.16-3.94-13.55-1.38-27.82-2.47-42.54-3.86-7.42-.58-14.93-1.09-22.51-1.68-7.58-.51-15.3-1.03-23.02-1.52-7.79-.51-15.58-.95-23.46-1.24-7.79-.44-15.66-.65-23.6-.87-15.74-.58-31.46-.65-46.9-.73-7.79.07-15.44.14-23.02.21-7.58.21-15.09.3-22.43.65-14.71.79-28.99,1.52-42.47,2.69-13.48,1.24-26.15,2.69-37.87,4.15-5.83.95-11.44,1.75-16.75,2.61-5.32.73-10.34,1.82-15.09,2.61-2.33.44-4.65.87-6.85,1.24-2.18.51-4.29.95-6.34,1.38-4.08.95-7.86,1.75-11.22,2.47-13.55,3.34-21.27,5.32-21.27,5.32,0,0,1.82-.87,5.17-2.47,3.43-1.46,8.37-3.94,14.86-6.55,3.29-1.24,6.93-2.61,10.85-4.15,1.96-.73,4-1.52,6.2-2.26,2.18-.73,4.38-1.46,6.71-2.18,4.65-1.38,9.62-3.13,14.93-4.59,5.32-1.38,10.85-2.83,16.69-4.38,5.9-1.31,12.01-2.69,18.35-4.08,6.41-1.38,13.04-2.26,19.82-3.5,6.85-1.24,13.84-2.03,21.04-3.07,7.21-1.09,14.57-1.52,22.07-2.33,7.51-.65,15.14-1.09,22.86-1.68,7.72-.44,15.58-.79,23.46-1.03,15.8-.36,31.83-.3,47.85.21,8.02.36,16.02.65,23.96,1.17,8.02.44,15.88,1.03,23.74,1.68,15.74,1.09,31.1,3.13,46.02,4.89,14.86,1.9,29.14,4.15,42.68,6.48,13.55,2.26,26.29,4.87,37.95,7.37,11.72,2.47,22.43,4.95,31.83,7.37,2.4.58,6.85,1.75,7.51,1.9-20.76-61.99-89.82-111.22-258.29-111.22-212.91,0-323.12,92.65-363.33,136.49-.14.07-.3.21-.44.44-1.46,1.68-2.83,3.21-4.15,4.65-.14.14-.21.36-.36.51-3.34,4.89-5.25,10.79-5.25,17.12l.02.06v.04Z"/>
    <path class="cls-2" d="M1449.5,1197.2c3.53,4.91,8.23,8.44,13.48,10.49,2.91.69,6.24,1.43,9.88,2.14,59.52,11.98,201.79,21.22,372.68-101.8,136.97-98.61,164.05-179.04,144.53-241.55-.07.05-3.32,4-5.06,6.07-6.26,7.38-13.46,15.71-21.53,24.56-8.02,8.83-16.82,18.39-26.5,28.14-9.63,9.81-19.89,19.98-30.85,30.19-11.1,10.15-22.38,20.78-34.51,30.85-6.01,5.12-12.05,10.19-18.34,15.18-6.1,5.11-12.44,10.02-18.73,15-12.7,9.77-25.67,19.19-38.71,28.14-6.5,4.42-13.11,8.71-19.63,12.88-6.6,4.03-13.07,8.16-19.54,12-6.55,3.73-12.78,7.67-19.27,11.01-6.45,3.38-12.59,6.82-18.87,9.82-6.22,2.95-12.11,6.11-18.12,8.73-5.95,2.58-11.72,5.03-17.28,7.41-5.62,2.16-10.97,4.22-16.09,6.2-5.17,1.93-10.21,3.39-14.8,5-2.32.76-4.52,1.46-6.71,2.15s-4.33,1.23-6.35,1.79c-4.08,1.06-7.84,2.05-11.24,2.97-6.79,1.66-12.26,2.54-15.9,3.36-3.66.65-5.65,1.01-5.65,1.01,0,0,7.41-2.91,20.36-8.11,3.14-1.37,6.69-2.93,10.51-4.61,1.94-.78,3.92-1.65,5.99-2.52,1.99-.98,4.14-1.99,6.27-2.99,4.31-2.12,9.03-4.17,13.78-6.68,4.82-2.4,9.86-5.03,15.13-7.66,10.37-5.67,21.52-11.89,33.18-18.76,11.61-6.93,23.63-14.68,36.04-22.62,6.18-4,12.31-8.32,18.59-12.58,6.2-4.38,12.44-8.78,18.8-13.28,12.49-9.08,25.21-18.34,37.64-28,6.32-4.81,12.58-9.59,18.65-14.49,6.22-4.82,12.24-9.81,18.3-14.71,5.96-4.91,11.94-9.86,17.79-14.7,5.81-4.91,11.59-9.7,17.29-14.51,11.13-9.72,22.07-18.94,32.27-27.99,10.18-9.04,19.77-17.54,28.67-25.49,8.76-8.02,16.86-15.37,23.96-21.82,2.9-2.71,8.16-7.49,8.18-7.6-4.81-12.78-11.55-24.89-19.68-36.2-8.18-11.34-17.56-21.66-28.36-30.3-.7.41-6.43,3.55-9.63,5.32-8.39,4.68-17.92,10.02-28.3,15.8-10.35,5.93-21.47,12.31-33.28,19.12-11.8,6.79-24.03,14.24-36.78,21.71-6.36,3.86-12.76,7.84-19.24,11.78-6.45,4.01-13.02,8.11-19.57,12.21-6.61,4.14-13.2,8.34-19.75,12.7-6.59,4.2-13.09,8.62-19.66,13.07-13.11,8.71-25.92,17.86-38.5,26.82-6.29,4.61-12.45,9.14-18.55,13.62-6.02,4.61-12.07,9.04-17.82,13.64-11.47,9.24-22.63,18.18-32.89,26.99-10.21,8.87-19.64,17.47-28.32,25.49-4.17,4.17-8.27,8.09-12.07,11.92-3.89,3.71-7.33,7.52-10.71,10.94-1.64,1.71-3.27,3.44-4.82,5.02-1.48,1.7-2.95,3.29-4.33,4.82-2.76,3.14-5.37,6.01-7.66,8.57-9.04,10.63-14.15,16.75-14.15,16.75,0,0,.97-1.77,2.76-5.03,1.93-3.18,4.5-8.08,8.23-14.01,1.93-2.93,4.08-6.17,6.38-9.72,1.17-1.75,2.35-3.58,3.71-5.44s2.69-3.73,4.15-5.69c2.97-3.85,5.97-8.16,9.43-12.45,3.5-4.24,7.14-8.64,10.99-13.29,4.01-4.52,8.18-9.22,12.51-14.04,4.39-4.87,9.26-9.45,14.04-14.42,4.84-5.02,10.04-9.75,15.3-14.79,5.21-5.11,10.93-9.76,16.55-14.79,5.71-4.91,11.66-9.75,17.59-14.73,6.01-4.87,12.19-9.76,18.44-14.54,12.61-9.52,25.67-18.83,38.96-27.79,6.71-4.39,13.39-8.83,20.12-13.06,6.75-4.33,13.48-8.45,20.25-12.51,13.41-8.31,27.07-15.63,40.21-22.93,13.16-7.14,26.07-13.65,38.43-19.68,12.31-6.09,24.19-11.41,35.1-16.2,10.96-4.84,21.11-9.09,30.14-12.63,2.29-.94,6.59-2.58,7.19-2.85-53.07-38.18-137.87-37.79-274.6,60.65-172.78,124.39-208.1,263.97-215.11,323.05-.07.14-.11.34-.09.6-.2,2.21-.44,4.26-.64,6.22-.03.2.03.42,0,.62.12,5.92,2.04,11.82,5.74,16.95l-.05.02.03.02Z"/>
    <path class="cls-2" d="M1292.97,639.19c-6.04,0-11.66-1.75-16.39-4.81-2.26-1.96-4.81-4.22-7.51-6.77-44.5-41.3-135.11-151.37-135.11-361.94,0-168.77,49.45-237.74,111.6-258.43,0,.07-1.31,5.03-1.96,7.65-2.33,9.4-4.89,20.11-7.37,31.83-2.47,11.66-5.11,24.41-7.37,37.95-2.33,13.55-4.59,27.83-6.48,42.68-1.75,14.93-3.78,30.31-4.89,46.02-.65,7.86-1.24,15.74-1.61,23.74-.58,7.94-.87,15.95-1.24,23.96-.51,16.02-.58,32.05-.21,47.85.21,7.86.58,15.74,1.03,23.46.58,7.72,1.03,15.37,1.68,22.86.79,7.51,1.24,14.86,2.33,22.07,1.03,7.21,1.82,14.2,3.07,21.04,1.24,6.77,2.12,13.41,3.5,19.82,1.38,6.34,2.77,12.45,4.08,18.35,1.52,5.83,2.99,11.36,4.38,16.69,1.46,5.32,3.21,10.28,4.59,14.93.73,2.33,1.46,4.52,2.18,6.71.73,2.18,1.52,4.22,2.26,6.2,1.52,3.94,2.91,7.58,4.15,10.85,2.61,6.48,5.11,11.44,6.55,14.86,1.61,3.34,2.47,5.17,2.47,5.17,0,0-1.96-7.72-5.32-21.27-.73-3.34-1.52-7.14-2.4-11.22-.51-2.03-.95-4.15-1.46-6.34-.36-2.18-.79-4.52-1.24-6.85-.79-4.73-1.9-9.76-2.61-15.09-.87-5.32-1.68-10.93-2.61-16.75-1.46-11.72-2.91-24.41-4.15-37.87-1.17-13.48-1.9-27.75-2.69-42.47-.36-7.37-.44-14.86-.65-22.43-.07-7.58-.14-15.23-.21-23.02.07-15.44.14-31.18.73-46.9.21-7.94.44-15.8.87-23.6.3-7.86.79-15.66,1.24-23.46.51-7.72,1.01-15.44,1.52-23.02.58-7.58,1.09-15.09,1.68-22.51,1.38-14.71,2.47-28.99,3.86-42.54,1.38-13.55,2.69-26.29,3.94-38.16,1.38-11.8,2.61-22.65,3.72-32.19.51-3.94,1.31-11.01,1.38-11.06,13.18-3.57,26.94-5.17,40.86-5.17s27.83,1.61,41.16,5.32c.07.79.87,7.28,1.31,10.93,1.09,9.54,2.33,20.39,3.72,32.19,1.24,11.87,2.55,24.63,3.94,38.16,1.38,13.55,2.47,27.82,3.86,42.54.58,7.42,1.09,14.93,1.68,22.51.51,7.58,1.03,15.3,1.52,23.02.51,7.79.95,15.58,1.24,23.46.44,7.79.65,15.66.87,23.6.58,15.74.65,31.46.73,46.9-.07,7.79-.14,15.44-.21,23.02-.21,7.58-.3,15.09-.65,22.43-.79,14.71-1.52,28.99-2.69,42.47-1.24,13.48-2.69,26.15-4.15,37.87-.95,5.83-1.75,11.44-2.61,16.75-.73,5.32-1.82,10.34-2.61,15.09-.44,2.33-.87,4.65-1.24,6.85-.51,2.18-.95,4.29-1.38,6.34-.95,4.08-1.75,7.86-2.47,11.22-3.34,13.55-5.32,21.27-5.32,21.27,0,0,.87-1.82,2.47-5.17,1.46-3.43,3.94-8.37,6.55-14.86,1.24-3.29,2.61-6.93,4.15-10.85.73-1.96,1.52-4,2.26-6.2.73-2.18,1.46-4.38,2.18-6.71,1.38-4.65,3.13-9.62,4.59-14.93,1.38-5.32,2.83-10.85,4.38-16.69,1.31-5.9,2.69-12.01,4.08-18.35,1.38-6.41,2.26-13.04,3.5-19.82,1.24-6.85,2.04-13.84,3.07-21.04,1.09-7.21,1.52-14.57,2.33-22.07.65-7.51,1.09-15.14,1.68-22.86.44-7.72.79-15.58,1.03-23.46.36-15.8.3-31.83-.21-47.85-.36-8.02-.65-16.02-1.17-23.96-.44-8.02-1.03-15.88-1.68-23.74-1.09-15.74-3.13-31.1-4.89-46.02-1.9-14.86-4.15-29.14-6.48-42.68-2.26-13.55-4.87-26.29-7.37-37.95-2.47-11.72-4.95-22.43-7.37-31.83-.58-2.4-1.75-6.85-1.9-7.51,61.99,20.76,111.22,89.82,111.22,258.29,0,212.91-92.65,323.12-136.49,363.33-.07.14-.21.3-.44.44-1.68,1.46-3.21,2.85-4.65,4.15-.14.14-.36.21-.51.36-4.89,3.34-10.79,5.25-17.12,5.25l-.06-.02h-.04Z"/>
    <path class="cls-2" d="M1342.23,788.25v1310.73c-1.24,25.42-21.64,45.81-47.06,47.06h-5.11c-25.93-1.24-46.54-22.29-47.2-48.28V789.57c.58-26.59,21.92-47.93,48.51-48.51h2.55c26.01.65,47.06,21.27,48.28,47.2l.02-.02h0Z"/>
    <path class="cls-2" d="M1742.07,2208.97c0,14.91-5.7,27-12.76,27h-868.45c-6.32-.62-11.41-10.96-12.02-24.2v-5.53c.58-12.72,5.37-22.87,11.36-24.11h870.76c6.28,1.66,11.11,13.06,11.11,26.83v.02h0Z"/>
  </g>
</svg>