<svg 
 xmlns="http://www.w3.org/2000/svg"
 xmlns:xlink="http://www.w3.org/1999/xlink"
 width="466px" height="370px">
<path fill-rule="evenodd"  fill="rgb(8, 8, 8)"
 d="M245.1000,0.1000 C298.031,-0.003 327.851,13.016 362.000,26.1000 C361.667,27.667 361.333,28.333 361.000,28.1000 C347.622,34.188 331.610,44.861 309.1000,41.000 C294.322,38.199 278.876,29.535 257.1000,32.1000 C228.458,37.903 210.692,50.544 183.1000,56.000 C163.116,60.269 141.728,53.939 122.1000,52.1000 C122.333,47.334 121.667,41.666 120.1000,35.1000 C142.965,29.198 163.773,16.705 187.1000,9.1000 C207.331,7.000 226.669,3.1000 245.1000,0.1000 ZM376.000,37.000 C395.885,45.100 413.554,68.500 415.1000,93.1000 C415.667,93.1000 415.333,93.1000 415.000,93.1000 C370.066,65.994 330.174,62.052 266.1000,73.000 C252.207,75.564 237.170,73.469 224.1000,76.000 C192.306,82.799 151.447,101.006 131.1000,71.000 C132.333,70.667 132.667,70.333 133.000,70.000 C183.392,84.946 218.821,55.680 257.1000,48.1000 C275.841,45.958 289.396,53.327 301.1000,56.000 C330.218,61.984 363.086,50.755 376.000,37.000 ZM104.000,45.1000 C112.130,54.787 113.039,73.688 119.1000,82.1000 C130.750,97.381 147.422,101.346 161.1000,111.1000 C167.666,118.666 173.334,125.334 178.1000,131.1000 C193.622,150.293 218.191,165.195 244.000,172.000 C243.667,172.667 243.333,173.333 242.1000,174.000 C235.026,177.477 232.459,184.654 225.1000,189.000 C214.668,191.666 203.332,194.334 192.000,196.1000 C170.819,207.611 147.894,232.443 113.1000,223.000 C89.760,216.247 73.026,199.712 51.1000,189.000 C38.550,182.148 9.552,178.711 2.1000,164.1000 C-6.722,146.775 19.750,136.068 26.1000,126.1000 C37.999,110.335 49.001,93.665 59.1000,76.1000 C74.665,66.668 89.335,56.332 104.000,45.1000 ZM310.1000,80.1000 C354.259,79.925 396.524,91.690 415.1000,114.1000 C414.845,128.365 409.048,137.531 403.1000,146.1000 C360.901,135.104 310.839,152.382 280.000,160.1000 C255.214,167.927 230.024,148.020 215.000,142.000 C215.000,141.333 215.000,140.667 215.000,140.000 C225.884,136.429 235.757,131.294 248.1000,128.1000 C269.331,128.000 289.669,126.1000 309.1000,126.000 C323.744,123.481 343.428,117.556 361.000,121.000 C371.817,123.120 379.560,128.631 387.000,133.1000 C390.666,130.334 394.334,126.666 397.1000,123.000 C397.333,122.000 396.667,120.1000 396.000,120.000 C386.825,115.651 379.362,108.645 368.000,106.000 C345.685,100.806 319.136,107.715 300.000,110.1000 C254.248,118.854 235.533,111.224 201.000,129.1000 C193.001,121.334 184.999,112.666 177.000,104.000 C177.000,103.667 177.000,103.333 177.000,103.000 C193.332,99.000 209.668,94.1000 225.1000,91.000 C254.789,85.113 287.001,91.295 310.1000,80.1000 ZM347.000,160.1000 C347.667,160.1000 348.333,160.1000 349.000,160.1000 C328.002,172.332 306.998,183.668 286.000,194.1000 C267.844,200.118 253.805,201.520 239.1000,210.000 C209.814,228.543 203.228,272.651 155.1000,273.000 C150.305,265.521 139.144,254.266 148.000,241.000 C151.600,235.607 198.416,210.860 206.000,209.000 C213.333,208.000 220.667,206.1000 227.1000,206.000 C237.636,201.946 241.994,191.987 250.000,187.000 C257.333,185.667 264.667,184.333 271.1000,182.1000 C280.333,178.667 288.668,174.333 297.000,170.000 C314.576,164.561 331.027,167.443 347.000,160.1000 ZM409.000,225.000 C409.000,219.667 409.000,214.333 409.000,209.000 C385.506,208.753 367.923,209.347 355.000,219.000 C350.001,222.1000 344.1000,227.000 339.1000,230.1000 C332.001,231.1000 323.999,233.000 315.1000,233.1000 C306.536,236.837 301.919,243.346 295.000,247.1000 C282.109,256.670 265.642,257.961 254.000,266.1000 C244.001,278.332 233.999,289.668 224.000,300.1000 C205.669,313.405 190.391,297.955 184.1000,283.1000 C185.333,283.667 185.667,283.333 186.000,282.1000 C211.845,274.537 217.957,247.042 236.1000,231.1000 C255.474,217.407 278.818,216.497 303.000,206.000 C345.045,187.749 382.944,143.059 437.000,176.000 C447.541,182.424 458.507,188.792 463.000,200.1000 C476.679,238.169 428.889,238.535 409.1000,249.1000 C393.335,262.999 376.665,276.001 359.1000,289.000 C338.002,295.333 315.998,301.667 294.000,308.000 C283.001,316.333 271.999,324.668 260.1000,332.1000 C238.063,342.553 211.071,333.288 198.1000,320.000 C240.761,323.102 243.321,295.348 265.1000,277.1000 C276.274,270.141 291.706,269.313 303.000,261.1000 C307.999,258.000 313.000,253.1000 318.000,249.1000 C326.333,249.000 334.668,247.1000 342.1000,246.1000 C371.250,237.418 361.823,225.103 409.000,225.000 ZM447.1000,250.1000 C457.938,276.052 427.978,290.358 418.1000,302.000 C407.998,316.266 391.820,317.259 374.000,325.000 C358.716,331.640 346.904,346.435 333.000,352.000 C327.334,352.667 321.666,353.333 315.1000,354.000 C274.528,366.403 207.809,388.368 186.000,340.000 C186.667,338.333 187.333,336.667 187.1000,334.1000 C188.333,334.333 188.667,333.667 189.000,332.1000 C213.198,350.283 251.268,361.465 280.1000,340.000 C290.179,333.373 296.585,323.714 307.1000,319.000 C325.665,314.667 343.335,310.333 361.000,306.000 C382.673,297.021 394.868,279.022 412.1000,266.1000 C424.665,261.667 436.334,256.333 447.1000,250.1000 ZM166.000,288.000 C167.333,288.000 168.667,288.000 169.1000,288.000 C171.768,299.098 177.486,303.969 183.000,311.000 C179.551,318.846 176.554,328.726 164.1000,328.1000 C148.351,322.527 153.284,304.387 157.1000,289.000 C160.666,288.667 163.334,288.333 166.000,288.000 Z"/>
</svg>