<?xml version="1.0" encoding="UTF-8"?>
<svg id="Capa_1" data-name="Capa 1" xmlns="http://www.w3.org/2000/svg" viewBox="0 0 2788.79 2900.48">
  <defs>
    <style>
      .cls-1 {
        fill: #585858;
      }
    </style>
  </defs>
  <g>
    <g>
      <path class="cls-1" d="M1337.68,2846.15c0,4.63-.56,9.22-1.68,13.52,0,.09,0,.19-.14.19-.98,4.3-2.53,8.38-4.59,12.21-.14.19-.19.37-.42.56-1.22,2.48-2.81,4.87-4.63,7.07-.75,1.26-1.68,2.39-2.76,3.42-5.19,5.76-11.51,10.34-18.72,13.34-4.16,1.78-8.56,2.99-13.2,3.56-7.25-.51-14.46-1.08-21.62-1.73-325.54-28.59-627.73-169.2-861.51-402.98C145.01,2231.94,0,1881.79,0,1509.31c0-225.64,55.17-449.73,159.47-648.14,100.98-191.99,247.82-360.31,424.65-486.79,23.58-16.85,56.29-11.42,73.14,12.17,16.85,23.54,11.42,56.29-12.12,73.14-163.59,116.98-299.43,272.71-392.83,450.29-96.49,183.38-147.45,390.63-147.45,599.33,0,344.45,134.11,668.26,377.67,911.86,214.64,214.64,491.61,344.26,790.15,371.96,10.72,1.03,21.43,1.92,32.19,2.62,6.32,2.67,12.07,6.6,16.89,11.46,1.64,1.64,3.14,3.23,4.35,5.05,2.2,2.76,4.07,5.71,5.57,8.98,1.73,3.32,3.14,6.74,4.07,10.48,1.22,4.59,1.92,9.45,1.92,14.41Z"/>
      <path class="cls-1" d="M2788.79,1509.31c0,372.48-145.01,722.63-408.41,985.98-232.8,232.8-533.44,373.18-857.44,402.61-10.72.98-21.43,1.82-32.19,2.57-8.8-2.2-16.71-6.55-23.16-12.54-2.67-2.48-5.01-5.15-7.21-8.14q.09-.09,0-.09c-2.15-3.04-3.93-6.18-5.38-9.59-.94-1.92-1.68-3.93-2.25-5.94-1.73-5.24-2.57-10.76-2.57-16.56s.84-11.09,2.39-16.24c0-.09.09-.28.19-.47.47-1.54.94-3.04,1.59-4.49v-.09c1.5-3.6,3.32-7.07,5.66-10.2,2.39-3.7,5.38-7.07,8.7-10.01,5.47-4.77,11.84-8.42,18.86-10.58,7.67-.51,15.25-1.12,22.88-1.82,300.69-26.63,579.82-156.52,795.82-372.52,243.56-243.61,377.67-567.42,377.67-911.86,0-208.7-50.96-415.95-147.45-599.33-93.4-177.58-229.24-333.31-392.83-450.29-23.54-16.85-28.97-49.6-12.12-73.14,16.8-23.58,49.55-29.01,73.14-12.17,176.83,126.48,323.67,294.8,424.65,486.79,104.3,198.4,159.47,422.5,159.47,648.14Z"/>
    </g>
    <g>
      <path class="cls-1" d="M729.65,594.08c-145.15,103.79-265.65,241.92-348.52,399.48-85.59,162.7-130.83,346.6-130.83,531.71s41.18,353.06,119,509.3c1.54,3.18,3.18,6.36,4.82,9.55.65,2.25.98,4.63.98,7.07,0,14.69-11.93,26.67-26.67,26.67-6.88,0-13.15-2.62-17.87-6.88-1.36-1.22-2.53-2.53-3.65-3.98t0-.05c-1.31-2.53-2.62-5.1-3.84-7.63-81.89-163.82-125.17-345.62-125.17-534.05s47.31-385.91,136.87-556.14c86.61-164.71,212.63-309.16,364.38-417.72,11.79-8.42,28.17-5.66,36.59,6.08,8.42,11.79,5.71,28.17-6.08,36.59Z"/>
      <path class="cls-1" d="M2367.09,2214.21c0,4.59-1.17,8.94-3.23,12.73-.05.09-.09.19-.19.28-1.22,1.73-2.48,3.42-3.74,5.15-35.89,48.85-75.81,95.32-119.46,138.98-226.01,226.01-526.47,350.44-846.07,350.44s-620.06-124.42-846.07-350.44c-43.05-43.05-82.45-88.86-118.01-136.96-2.15-2.9-4.26-5.85-6.36-8.75-1.59-3.37-2.43-7.11-2.43-11.04,0-14.74,11.93-26.72,26.67-26.72,7.25,0,13.85,2.9,18.67,7.63,1.64,2.29,3.32,4.59,5.01,6.88,34.21,46.33,72.11,90.45,113.57,131.91,216.04,216.09,503.36,335.09,808.96,335.09s592.92-119,808.96-335.09c41.04-41.04,78.57-84.65,112.49-130.46v-.05c2.48-3.32,4.87-6.6,7.25-9.92,4.68-3.98,10.72-6.36,17.31-6.36,7.25,0,13.85,2.9,18.67,7.63.8.8,1.54,1.59,2.2,2.48,1.08,1.36,2.01,2.81,2.81,4.4.84,1.64,1.54,3.32,2.01,5.15.66,2.25.98,4.63.98,7.07Z"/>
      <path class="cls-1" d="M2590.9,1525.27c0,187.78-43,368.97-124.33,532.32,0,.05,0,.09-.05.09-1.54,3.23-3.18,6.5-4.87,9.73-.42.61-.89,1.17-1.4,1.68-4.87,5.24-11.79,8.52-19.51,8.52-6.88,0-13.15-2.62-17.88-6.88-1.36-1.22-2.53-2.53-3.65-3.98t0-.05c-1.08-1.5-1.97-3.04-2.71-4.73-.47-.94-.84-1.92-1.12-2.9-.89-2.57-1.31-5.29-1.31-8.14s.42-5.43,1.22-7.95c0-.05.05-.14.09-.23,1.26-2.43,2.48-4.82,3.65-7.25,78.15-156.52,119.46-330.22,119.46-510.24s-45.25-369.01-130.83-531.71c-82.87-157.55-203.36-295.69-348.52-399.48-11.79-8.42-14.51-24.8-6.08-36.59,8.42-11.75,24.8-14.51,36.59-6.08,151.75,108.56,277.77,253.01,364.38,417.72,89.56,170.23,136.87,362.56,136.87,556.14Z"/>
    </g>
  </g>
  <g>
    <path class="cls-1" d="M925.07,2103.13h61.84c16.4,0,29.15,3.99,38.23,11.97,9.09,7.98,13.63,19.28,13.63,33.92s-4.58,26.01-13.74,34.13c-9.16,8.13-21.87,12.19-38.12,12.19h-43.67v64.06h-18.18v-156.26ZM985.13,2180.27c23.79,0,35.69-10.42,35.69-31.25s-11.9-30.81-35.69-30.81h-41.89v62.07h41.89Z"/>
    <path class="cls-1" d="M1068.03,2259.4v-156.26h98.86v15.07h-80.9v54.31h76.47v15.07h-76.47v56.75h80.9v15.07h-98.86Z"/>
    <path class="cls-1" d="M1224.29,2251.53c-10.94-6.43-19.32-15.66-25.16-27.71-5.84-12.04-8.75-26.27-8.75-42.67s2.92-30.59,8.75-42.56c5.84-11.97,14.22-21.17,25.16-27.6,10.93-6.43,23.79-9.64,38.57-9.64,10.78,0,20.68,1.66,29.7,4.99,9.01,3.33,16.85,8.24,23.5,14.74l-6.87,13.96c-7.54-6.35-14.93-10.94-22.17-13.75-7.24-2.8-15.22-4.21-23.94-4.21-17.14,0-30.4,5.58-39.79,16.73-9.39,11.16-14.08,26.93-14.08,47.32s4.69,36.39,14.08,47.54c9.38,11.16,22.64,16.73,39.79,16.73,8.72,0,16.7-1.4,23.94-4.21,7.24-2.81,14.63-7.39,22.17-13.75l6.87,13.96c-6.65,6.5-14.48,11.42-23.5,14.74-9.02,3.32-18.92,4.99-29.7,4.99-14.78,0-27.63-3.21-38.57-9.64Z"/>
    <path class="cls-1" d="M1461.89,2259.4l-17.29-40.12h-81.56l-17.29,40.12h-18.62l68.71-156.26h15.74l68.71,156.26h-18.4ZM1369.47,2204.2h68.71l-34.35-80.01-34.36,80.01Z"/>
    <path class="cls-1" d="M1611.73,2103.13h17.07v156.26h-13.96l-94.2-125.67v125.67h-17.07v-156.26h13.96l94.2,125.67v-125.67Z"/>
    <path class="cls-1" d="M1667.36,2259.4v-156.26h98.86v15.07h-80.9v54.31h76.47v15.07h-76.47v56.75h80.9v15.07h-98.86Z"/>
    <path class="cls-1" d="M1785.28,2241.44l7.09-13.96c7.68,6.51,15.55,11.16,23.61,13.96,8.05,2.81,17.4,4.21,28.04,4.21,12.56,0,22.24-2.44,29.04-7.32,6.8-4.88,10.19-11.75,10.19-20.61,0-5.17-1.63-9.38-4.88-12.64-3.25-3.25-7.54-5.84-12.86-7.75-5.32-1.92-12.48-3.92-21.5-5.99-12.12-2.81-22.06-5.76-29.81-8.87-7.76-3.1-14.04-7.54-18.84-13.3-4.8-5.77-7.21-13.3-7.21-22.61s2.33-16.73,6.98-23.61c4.66-6.87,11.31-12.19,19.95-15.96,8.64-3.77,18.65-5.65,30.03-5.65,10.78,0,20.87,1.7,30.26,5.1,9.38,3.4,17.32,8.28,23.83,14.63l-6.87,13.96c-7.39-6.35-14.89-10.97-22.5-13.86-7.61-2.88-15.85-4.32-24.71-4.32-12.12,0-21.61,2.55-28.48,7.65-6.87,5.1-10.3,12.23-10.3,21.39,0,7.83,3.03,13.74,9.08,17.73,6.06,3.99,15.22,7.39,27.49,10.19,13.44,3.25,24.01,6.25,31.7,8.98,7.68,2.73,14.07,6.84,19.17,12.3,5.1,5.47,7.65,12.78,7.65,21.94s-2.33,16.62-6.98,23.27c-4.65,6.65-11.34,11.79-20.06,15.4-8.72,3.62-18.92,5.43-30.59,5.43-24.38,0-43.89-6.57-58.51-19.73Z"/>
  </g>
  <g>
    <path class="cls-1" d="M503.9,1736.34h85.93c23.36,0,43.46,4.19,60.33,12.58,16.87,8.39,29.79,20.51,38.78,36.38,8.98,15.87,13.47,34.69,13.47,56.44s-4.44,40.87-13.33,56.74c-8.88,15.87-21.76,27.99-38.63,36.38-16.87,8.39-37.08,12.58-60.63,12.58h-85.93v-211.09ZM585.94,1903.12c20.76,0,36.23-5.09,46.41-15.27,10.18-10.18,15.27-25.55,15.27-46.11s-5.09-35.88-15.27-45.96c-10.18-10.08-25.65-15.12-46.41-15.12h-26.95v122.47h26.95Z"/>
    <path class="cls-1" d="M779.51,1936.81c-15.87-8.88-28.1-21.45-36.68-37.73-8.58-16.27-12.88-35.38-12.88-57.34s4.29-41.07,12.88-57.34c8.58-16.27,20.81-28.79,36.68-37.58,15.87-8.78,34.58-13.17,56.14-13.17s40.27,4.4,56.14,13.17c15.87,8.79,28.04,21.31,36.53,37.58,8.48,16.27,12.72,35.38,12.72,57.34s-4.3,41.07-12.88,57.34c-8.58,16.27-20.81,28.85-36.68,37.73-15.87,8.88-34.49,13.33-55.84,13.33s-40.27-4.44-56.14-13.33ZM873.08,1891c8.98-11.28,13.48-27.7,13.48-49.26s-4.54-37.92-13.62-49.11c-9.08-11.17-21.51-16.77-37.28-16.77s-28.45,5.54-37.43,16.62c-8.98,11.08-13.47,27.5-13.47,49.25s4.49,38.23,13.47,49.41c8.98,11.18,21.45,16.77,37.43,16.77s28.44-5.64,37.43-16.92Z"/>
    <path class="cls-1" d="M1110.52,1736.34h51.5v211.09h-40.72l-96.41-120.67v120.67h-51.2v-211.09h40.12l96.71,120.67v-120.67Z"/>
    <path class="cls-1" d="M1265.92,1906.71l24.55-1.5c7.38-.4,12.67-2.19,15.87-5.39,3.19-3.19,4.79-8.28,4.79-15.27v-148.21h55.39v147.32c0,20.56-5.49,36.28-16.47,47.15-10.98,10.89-27.65,17.02-50,18.42l-30.84,1.5-3.29-44.02Z"/>
    <path class="cls-1" d="M1427.45,1926.78c-15.88-15.57-23.81-38.33-23.81-68.27v-122.17h53.89v124.26c0,15.17,3.39,26.85,10.18,35.03,6.78,8.19,16.57,12.28,29.35,12.28s22.55-4.09,29.34-12.28c6.78-8.18,10.18-19.86,10.18-35.03v-124.26h54.2v122.17c0,29.74-8.03,52.45-24.1,68.12-16.08,15.67-39.28,23.51-69.61,23.51s-53.75-7.79-69.61-23.36Z"/>
    <path class="cls-1" d="M1627.91,1947.44v-211.09h55.1v166.48h89.83v44.61h-144.92Z"/>
    <path class="cls-1" d="M1799.17,1947.44v-211.09h55.1v211.09h-55.1Z"/>
    <path class="cls-1" d="M2053.38,1947.44l-18.86-43.71h-93.42l-18.86,43.71h-55.39l98.51-211.09h43.71l98.81,211.09h-54.49ZM1958.76,1862.4h58.09l-29.04-67.67-29.04,67.67ZM2003.38,1718.38h-32.33l31.14-47.01h47.61l-46.41,47.01Z"/>
    <path class="cls-1" d="M2257.28,1736.34h51.5v211.09h-40.72l-96.42-120.67v120.67h-51.2v-211.09h40.13l96.71,120.67v-120.67Z"/>
  </g>
  <path class="cls-1" d="M1297.08,1006.13c0,3.88-1.12,7.49-3.09,10.53-1.26,1.45-2.71,3.09-4.35,4.82-26.53,28.59-97.24,86.8-232.52,86.8-108.42,0-152.73-31.77-166.02-71.69.05,0,3.23.84,4.91,1.26,6.04,1.5,12.92,3.14,20.45,4.73,7.49,1.59,15.68,3.28,24.38,4.73,8.7,1.5,17.88,2.95,27.42,4.16,9.59,1.12,19.47,2.43,29.57,3.14,5.05.42,10.11.8,15.25,1.03,5.1.37,10.25.56,15.39.8,10.29.33,20.59.37,30.74.14,5.05-.14,10.11-.37,15.07-.66,4.96-.37,9.87-.66,14.69-1.08,4.82-.51,9.55-.8,14.18-1.5,4.63-.66,9.12-1.17,13.52-1.97,4.35-.8,8.61-1.36,12.73-2.25,4.07-.89,8-1.78,11.79-2.62,3.74-.98,7.3-1.92,10.72-2.81,3.42-.94,6.6-2.06,9.59-2.95,1.5-.47,2.9-.94,4.31-1.4,1.4-.47,2.71-.98,3.98-1.45,2.53-.98,4.87-1.87,6.97-2.67,4.16-1.68,7.35-3.28,9.55-4.21,2.15-1.03,3.32-1.59,3.32-1.59,0,0-4.96,1.26-13.66,3.42-2.15.47-4.59.98-7.21,1.54-1.31.33-2.67.61-4.07.94-1.4.23-2.9.51-4.4.8-3.04.51-6.27,1.22-9.69,1.68-3.42.56-7.02,1.08-10.76,1.68-7.53.94-15.68,1.87-24.33,2.67-8.66.75-17.83,1.22-27.28,1.73-4.73.23-9.55.28-14.41.42-4.87.05-9.78.09-14.79.14-9.92-.05-20.03-.09-30.13-.47-5.1-.14-10.15-.28-15.16-.56-5.05-.19-10.06-.51-15.07-.8-4.96-.33-9.92-.65-14.79-.98-4.87-.37-9.69-.7-14.46-1.08-9.45-.89-18.62-1.59-27.33-2.48-8.7-.89-16.89-1.73-24.52-2.53-7.58-.89-14.55-1.68-20.68-2.39-2.53-.33-7.07-.84-7.11-.89-2.29-8.47-3.32-17.31-3.32-26.25s1.03-17.88,3.42-26.44c.51-.05,4.68-.56,7.02-.84,6.13-.7,13.1-1.5,20.68-2.39,7.63-.8,15.82-1.64,24.52-2.53,8.7-.89,17.87-1.59,27.33-2.48,4.77-.37,9.59-.7,14.46-1.08,4.87-.33,9.83-.66,14.79-.98,5.01-.33,10.01-.61,15.07-.8,5.01-.28,10.06-.42,15.16-.56,10.11-.37,20.21-.42,30.13-.47,5.01.05,9.92.09,14.79.14,4.87.14,9.69.19,14.41.42,9.45.51,18.62.98,27.28,1.73,8.66.8,16.8,1.73,24.33,2.67,3.74.61,7.35,1.12,10.76,1.68,3.42.47,6.64,1.17,9.69,1.68,1.5.28,2.99.56,4.4.8,1.4.33,2.76.61,4.07.89,2.62.61,5.05,1.12,7.21,1.59,8.7,2.15,13.66,3.42,13.66,3.42,0,0-1.17-.56-3.32-1.59-2.2-.94-5.38-2.53-9.55-4.21-2.11-.8-4.45-1.68-6.97-2.67-1.26-.47-2.57-.98-3.98-1.45-1.4-.47-2.81-.94-4.31-1.4-2.99-.89-6.18-2.01-9.59-2.95-3.42-.89-6.97-1.82-10.72-2.81-3.79-.84-7.72-1.73-11.79-2.62-4.12-.89-8.38-1.45-12.73-2.25-4.4-.8-8.89-1.31-13.52-1.97-4.63-.7-9.36-.98-14.18-1.5-4.82-.42-9.73-.7-14.69-1.08-4.96-.28-10.01-.51-15.07-.66-10.15-.23-20.45-.19-30.74.14-5.15.23-10.29.42-15.39.75-5.15.28-10.2.66-15.25,1.08-10.11.7-19.98,2.01-29.57,3.14-9.55,1.22-18.72,2.67-27.42,4.16-8.7,1.45-16.89,3.13-24.38,4.73-7.53,1.59-14.41,3.18-20.45,4.73-1.54.37-4.4,1.12-4.82,1.22,13.34-39.82,57.7-71.45,165.93-71.45,136.78,0,207.58,59.52,233.41,87.69.09.05.19.14.28.28.94,1.08,1.82,2.06,2.67,2.99.09.09.14.23.23.33,2.15,3.14,3.37,6.93,3.37,11Z"/>
  <path class="cls-1" d="M1292.56,769.09c-2.27,3.15-5.29,5.42-8.66,6.74-1.87.44-4.01.92-6.35,1.37-38.24,7.7-129.63,13.63-239.42-65.4-87.99-63.35-105.39-115.02-92.85-155.18.04.03,2.13,2.57,3.25,3.9,4.02,4.74,8.65,10.09,13.83,15.78,5.15,5.67,10.81,11.82,17.02,18.08,6.19,6.3,12.78,12.84,19.82,19.4,7.13,6.52,14.38,13.35,22.17,19.82,3.86,3.29,7.74,6.55,11.78,9.75,3.92,3.28,7.99,6.44,12.03,9.64,8.16,6.28,16.49,12.33,24.87,18.08,4.18,2.84,8.42,5.6,12.61,8.27,4.24,2.59,8.4,5.24,12.55,7.71,4.21,2.4,8.21,4.93,12.38,7.07,4.14,2.17,8.09,4.38,12.12,6.31,4,1.9,7.78,3.93,11.64,5.61,3.82,1.66,7.53,3.23,11.1,4.76,3.61,1.39,7.05,2.71,10.34,3.98,3.32,1.24,6.56,2.18,9.51,3.21,1.49.49,2.9.94,4.31,1.38,1.41.44,2.78.79,4.08,1.15,2.62.68,5.04,1.32,7.22,1.91,4.36,1.07,7.88,1.63,10.21,2.16,2.35.42,3.63.65,3.63.65,0,0-4.76-1.87-13.08-5.21-2.02-.88-4.3-1.88-6.75-2.96-1.25-.5-2.52-1.06-3.85-1.62-1.28-.63-2.66-1.28-4.03-1.92-2.77-1.36-5.8-2.68-8.85-4.29-3.1-1.54-6.33-3.23-9.72-4.92-6.66-3.64-13.82-7.64-21.31-12.05-7.46-4.45-15.18-9.43-23.15-14.53-3.97-2.57-7.91-5.35-11.94-8.08-3.98-2.81-7.99-5.64-12.08-8.53-8.02-5.83-16.2-11.78-24.18-17.99-4.06-3.09-8.08-6.16-11.98-9.31-3.99-3.1-7.86-6.3-11.76-9.45-3.83-3.16-7.67-6.33-11.43-9.44-3.73-3.15-7.45-6.23-11.11-9.32-7.15-6.24-14.18-12.17-20.73-17.98-6.54-5.81-12.7-11.27-18.42-16.38-5.63-5.15-10.83-9.87-15.39-14.02-1.86-1.74-5.24-4.81-5.25-4.88,3.09-8.21,7.42-15.99,12.64-23.25,5.25-7.29,11.28-13.91,18.22-19.46.45.26,4.13,2.28,6.19,3.42,5.38,3.01,11.51,6.44,18.18,10.15,6.65,3.81,13.79,7.91,21.38,12.28,7.58,4.36,15.44,9.15,23.63,13.95,4.09,2.48,8.2,5.04,12.36,7.57,4.14,2.58,8.36,5.21,12.57,7.84,4.25,2.66,8.48,5.36,12.69,8.16,4.23,2.7,8.41,5.54,12.63,8.4,8.42,5.6,16.65,11.47,24.73,17.23,4.04,2.96,8,5.87,11.92,8.75,3.87,2.96,7.75,5.81,11.45,8.76,7.37,5.94,14.54,11.68,21.13,17.34,6.56,5.7,12.62,11.22,18.19,16.38,2.68,2.68,5.31,5.2,7.75,7.66,2.5,2.38,4.71,4.83,6.88,7.03,1.05,1.1,2.1,2.21,3.1,3.22.95,1.09,1.89,2.11,2.78,3.1,1.77,2.02,3.45,3.86,4.92,5.5,5.81,6.83,9.09,10.76,9.09,10.76,0,0-.62-1.14-1.77-3.23-1.24-2.04-2.89-5.19-5.29-9-1.24-1.88-2.62-3.96-4.1-6.24-.75-1.12-1.51-2.3-2.38-3.5-.87-1.2-1.73-2.4-2.67-3.65-1.91-2.47-3.84-5.24-6.06-8-2.25-2.72-4.59-5.55-7.06-8.54-2.58-2.9-5.25-5.92-8.04-9.02-2.82-3.13-5.95-6.07-9.02-9.26-3.11-3.22-6.45-6.26-9.83-9.5-3.35-3.28-7.02-6.27-10.63-9.5-3.67-3.16-7.49-6.26-11.3-9.46-3.86-3.13-7.83-6.27-11.85-9.34-8.1-6.12-16.49-12.1-25.03-17.85-4.31-2.82-8.6-5.67-12.93-8.39-4.34-2.78-8.66-5.43-13.01-8.04-8.61-5.34-17.39-10.04-25.83-14.73-8.46-4.59-16.75-8.77-24.69-12.64-7.91-3.91-15.54-7.33-22.55-10.41-7.04-3.11-13.56-5.84-19.36-8.11-1.47-.6-4.23-1.66-4.62-1.83,34.09-24.53,88.57-24.28,176.41,38.96,111,79.91,133.69,169.58,138.19,207.54.05.09.07.22.06.39.13,1.42.28,2.74.41,3.99.02.13-.02.27,0,.4-.08,3.8-1.31,7.59-3.69,10.89Z"/>
  <path class="cls-1" d="M1489.42,1006.13c0,3.88,1.12,7.49,3.09,10.53,1.26,1.45,2.71,3.09,4.35,4.82,26.53,28.59,97.24,86.8,232.52,86.8,108.42,0,152.73-31.77,166.02-71.69-.05,0-3.23.84-4.91,1.26-6.04,1.5-12.92,3.14-20.45,4.73-7.49,1.59-15.68,3.28-24.38,4.73-8.7,1.5-17.87,2.95-27.42,4.16-9.59,1.12-19.47,2.43-29.57,3.14-5.05.42-10.11.8-15.25,1.03-5.1.37-10.25.56-15.39.8-10.29.33-20.59.37-30.74.14-5.05-.14-10.11-.37-15.07-.66-4.96-.37-9.87-.66-14.69-1.08-4.82-.51-9.55-.8-14.18-1.5-4.63-.66-9.12-1.17-13.52-1.97-4.35-.8-8.61-1.36-12.73-2.25-4.07-.89-8-1.78-11.79-2.62-3.74-.98-7.3-1.92-10.72-2.81-3.42-.94-6.6-2.06-9.59-2.95-1.5-.47-2.9-.94-4.31-1.4-1.4-.47-2.71-.98-3.98-1.45-2.53-.98-4.87-1.87-6.97-2.67-4.16-1.68-7.35-3.28-9.55-4.21-2.15-1.03-3.32-1.59-3.32-1.59,0,0,4.96,1.26,13.66,3.42,2.15.47,4.59.98,7.21,1.54,1.31.33,2.67.61,4.07.94,1.4.23,2.9.51,4.4.8,3.04.51,6.27,1.22,9.69,1.68,3.42.56,7.02,1.08,10.76,1.68,7.53.94,15.68,1.87,24.33,2.67,8.66.75,17.83,1.22,27.28,1.73,4.73.23,9.55.28,14.41.42,4.87.05,9.78.09,14.79.14,9.92-.05,20.03-.09,30.13-.47,5.1-.14,10.15-.28,15.16-.56,5.05-.19,10.06-.51,15.07-.8,4.96-.33,9.92-.65,14.79-.98,4.87-.37,9.69-.7,14.46-1.08,9.45-.89,18.62-1.59,27.33-2.48,8.7-.89,16.89-1.73,24.52-2.53,7.58-.89,14.55-1.68,20.68-2.39,2.53-.33,7.07-.84,7.11-.89,2.29-8.47,3.32-17.31,3.32-26.25s-1.03-17.88-3.42-26.44c-.51-.05-4.68-.56-7.02-.84-6.13-.7-13.1-1.5-20.68-2.39-7.63-.8-15.82-1.64-24.52-2.53-8.7-.89-17.87-1.59-27.33-2.48-4.77-.37-9.59-.7-14.46-1.08-4.87-.33-9.83-.66-14.79-.98-5.01-.33-10.01-.61-15.07-.8-5.01-.28-10.06-.42-15.16-.56-10.11-.37-20.21-.42-30.13-.47-5.01.05-9.92.09-14.79.14-4.87.14-9.69.19-14.41.42-9.45.51-18.62.98-27.28,1.73-8.66.8-16.8,1.73-24.33,2.67-3.74.61-7.35,1.12-10.76,1.68-3.42.47-6.64,1.17-9.69,1.68-1.5.28-2.99.56-4.4.8-1.4.33-2.76.61-4.07.89-2.62.61-5.05,1.12-7.21,1.59-8.7,2.15-13.66,3.42-13.66,3.42,0,0,1.17-.56,3.32-1.59,2.2-.94,5.38-2.53,9.55-4.21,2.11-.8,4.45-1.68,6.97-2.67,1.26-.47,2.57-.98,3.98-1.45,1.4-.47,2.81-.94,4.31-1.4,2.99-.89,6.18-2.01,9.59-2.95,3.42-.89,6.97-1.82,10.72-2.81,3.79-.84,7.72-1.73,11.79-2.62,4.12-.89,8.38-1.45,12.73-2.25,4.4-.8,8.89-1.31,13.52-1.97,4.63-.7,9.36-.98,14.18-1.5,4.82-.42,9.73-.7,14.69-1.08,4.96-.28,10.01-.51,15.07-.66,10.15-.23,20.45-.19,30.74.14,5.15.23,10.29.42,15.39.75,5.15.28,10.2.66,15.25,1.08,10.11.7,19.98,2.01,29.57,3.14,9.55,1.22,18.72,2.67,27.42,4.16,8.7,1.45,16.89,3.13,24.38,4.73,7.53,1.59,14.41,3.18,20.45,4.73,1.54.37,4.4,1.12,4.82,1.22-13.34-39.82-57.7-71.45-165.93-71.45-136.78,0-207.58,59.52-233.41,87.69-.09.05-.19.14-.28.28-.94,1.08-1.82,2.06-2.67,2.99-.09.09-.14.23-.23.33-2.15,3.14-3.37,6.93-3.37,11Z"/>
  <path class="cls-1" d="M1494.37,769.09c2.27,3.15,5.29,5.42,8.66,6.74,1.87.44,4.01.92,6.35,1.37,38.24,7.7,129.63,13.63,239.42-65.4,87.99-63.35,105.39-115.02,92.85-155.18-.04.03-2.13,2.57-3.25,3.9-4.02,4.74-8.65,10.09-13.83,15.78-5.15,5.67-10.81,11.82-17.02,18.08-6.19,6.3-12.78,12.84-19.82,19.4-7.13,6.52-14.38,13.35-22.17,19.82-3.86,3.29-7.74,6.55-11.78,9.75-3.92,3.28-7.99,6.44-12.03,9.64-8.16,6.28-16.49,12.33-24.87,18.08-4.18,2.84-8.42,5.6-12.61,8.27-4.24,2.59-8.4,5.24-12.55,7.71-4.21,2.4-8.21,4.93-12.38,7.07-4.14,2.17-8.09,4.38-12.12,6.31-4,1.9-7.78,3.93-11.64,5.61-3.82,1.66-7.53,3.23-11.1,4.76-3.61,1.39-7.05,2.71-10.34,3.98-3.32,1.24-6.56,2.18-9.51,3.21-1.49.49-2.9.94-4.31,1.38-1.41.44-2.78.79-4.08,1.15-2.62.68-5.04,1.32-7.22,1.91-4.36,1.07-7.88,1.63-10.21,2.16-2.35.42-3.63.65-3.63.65,0,0,4.76-1.87,13.08-5.21,2.02-.88,4.3-1.88,6.75-2.96,1.25-.5,2.52-1.06,3.85-1.62,1.28-.63,2.66-1.28,4.03-1.92,2.77-1.36,5.8-2.68,8.85-4.29,3.1-1.54,6.33-3.23,9.72-4.92,6.66-3.64,13.82-7.64,21.31-12.05,7.46-4.45,15.18-9.43,23.15-14.53,3.97-2.57,7.91-5.35,11.94-8.08,3.98-2.81,7.99-5.64,12.08-8.53,8.02-5.83,16.2-11.78,24.18-17.99,4.06-3.09,8.08-6.16,11.98-9.31,3.99-3.1,7.86-6.3,11.76-9.45,3.83-3.16,7.67-6.33,11.43-9.44,3.73-3.15,7.45-6.23,11.11-9.32,7.15-6.24,14.18-12.17,20.73-17.98,6.54-5.81,12.7-11.27,18.42-16.38,5.63-5.15,10.83-9.87,15.39-14.02,1.86-1.74,5.24-4.81,5.25-4.88-3.09-8.21-7.42-15.99-12.64-23.25-5.25-7.29-11.28-13.91-18.22-19.46-.45.26-4.13,2.28-6.19,3.42-5.39,3.01-11.51,6.44-18.18,10.15-6.65,3.81-13.79,7.91-21.38,12.28-7.58,4.36-15.44,9.15-23.63,13.95-4.09,2.48-8.2,5.04-12.36,7.57-4.14,2.58-8.36,5.21-12.57,7.84-4.25,2.66-8.48,5.36-12.69,8.16-4.23,2.7-8.41,5.54-12.63,8.4-8.42,5.6-16.65,11.47-24.73,17.23-4.04,2.96-8,5.87-11.92,8.75-3.87,2.96-7.75,5.81-11.45,8.76-7.37,5.94-14.54,11.68-21.13,17.34-6.56,5.7-12.62,11.22-18.19,16.38-2.68,2.68-5.31,5.2-7.75,7.66-2.5,2.38-4.71,4.83-6.88,7.03-1.05,1.1-2.1,2.21-3.1,3.22-.95,1.09-1.89,2.11-2.78,3.1-1.77,2.02-3.45,3.86-4.92,5.5-5.81,6.83-9.09,10.76-9.09,10.76,0,0,.62-1.14,1.77-3.23,1.24-2.04,2.89-5.19,5.29-9,1.24-1.88,2.62-3.96,4.1-6.24.75-1.12,1.51-2.3,2.38-3.5.87-1.2,1.73-2.4,2.67-3.65,1.91-2.47,3.84-5.24,6.06-8,2.25-2.72,4.59-5.55,7.06-8.54,2.58-2.9,5.25-5.92,8.04-9.02,2.82-3.13,5.95-6.07,9.02-9.26,3.11-3.22,6.45-6.26,9.83-9.5,3.35-3.28,7.02-6.27,10.63-9.5,3.67-3.16,7.49-6.26,11.3-9.46,3.86-3.13,7.83-6.27,11.85-9.34,8.1-6.12,16.49-12.1,25.03-17.85,4.31-2.82,8.6-5.67,12.93-8.39,4.34-2.78,8.66-5.43,13.01-8.04,8.61-5.34,17.39-10.04,25.83-14.73,8.46-4.59,16.75-8.77,24.69-12.64,7.91-3.91,15.54-7.33,22.55-10.41,7.04-3.11,13.56-5.84,19.36-8.11,1.47-.6,4.23-1.66,4.62-1.83-34.09-24.53-88.57-24.28-176.41,38.96-111,79.91-133.69,169.58-138.19,207.54-.05.09-.07.22-.06.39-.13,1.42-.28,2.74-.41,3.99-.02.13.02.27,0,.4.08,3.8,1.31,7.59,3.69,10.89Z"/>
  <path class="cls-1" d="M1393.81,410.61c-3.88,0-7.49-1.12-10.53-3.09-1.45-1.26-3.09-2.71-4.82-4.35-28.59-26.53-86.8-97.24-86.8-232.52,0-108.42,31.77-152.73,71.69-166.02,0,.05-.84,3.23-1.26,4.91-1.5,6.04-3.14,12.92-4.73,20.45-1.59,7.49-3.28,15.68-4.73,24.38-1.5,8.7-2.95,17.88-4.16,27.42-1.12,9.59-2.43,19.47-3.14,29.57-.42,5.05-.8,10.11-1.03,15.25-.37,5.1-.56,10.25-.8,15.39-.33,10.29-.37,20.59-.14,30.74.14,5.05.37,10.11.66,15.07.37,4.96.66,9.87,1.08,14.69.51,4.82.8,9.55,1.5,14.18.66,4.63,1.17,9.12,1.97,13.52.8,4.35,1.36,8.61,2.25,12.73.89,4.07,1.78,8,2.62,11.79.98,3.74,1.92,7.3,2.81,10.72.94,3.42,2.06,6.6,2.95,9.59.47,1.5.94,2.9,1.4,4.31.47,1.4.98,2.71,1.45,3.98.98,2.53,1.87,4.87,2.67,6.97,1.68,4.16,3.28,7.35,4.21,9.55,1.03,2.15,1.59,3.32,1.59,3.32,0,0-1.26-4.96-3.42-13.66-.47-2.15-.98-4.59-1.54-7.21-.33-1.31-.61-2.67-.94-4.07-.23-1.4-.51-2.9-.8-4.4-.51-3.04-1.22-6.27-1.68-9.69-.56-3.42-1.08-7.02-1.68-10.76-.94-7.53-1.87-15.68-2.67-24.33-.75-8.66-1.22-17.83-1.73-27.28-.23-4.73-.28-9.55-.42-14.41-.05-4.87-.09-9.78-.14-14.79.05-9.92.09-20.03.47-30.13.14-5.1.28-10.15.56-15.16.19-5.05.51-10.06.8-15.07.33-4.96.65-9.92.98-14.79.37-4.87.7-9.69,1.08-14.46.89-9.45,1.59-18.62,2.48-27.33.89-8.7,1.73-16.89,2.53-24.52.89-7.58,1.68-14.55,2.39-20.68.33-2.53.84-7.07.89-7.11,8.47-2.29,17.31-3.32,26.25-3.32s17.88,1.03,26.44,3.42c.05.51.56,4.68.84,7.02.7,6.13,1.5,13.1,2.39,20.68.8,7.63,1.64,15.82,2.53,24.52.89,8.7,1.59,17.87,2.48,27.33.37,4.77.7,9.59,1.08,14.46.33,4.87.66,9.83.98,14.79.33,5.01.61,10.01.8,15.07.28,5.01.42,10.06.56,15.16.37,10.11.42,20.21.47,30.13-.05,5.01-.09,9.92-.14,14.79-.14,4.87-.19,9.69-.42,14.41-.51,9.45-.98,18.62-1.73,27.28-.8,8.66-1.73,16.8-2.67,24.33-.61,3.74-1.12,7.35-1.68,10.76-.47,3.42-1.17,6.64-1.68,9.69-.28,1.5-.56,2.99-.8,4.4-.33,1.4-.61,2.76-.89,4.07-.61,2.62-1.12,5.05-1.59,7.21-2.15,8.7-3.42,13.66-3.42,13.66,0,0,.56-1.17,1.59-3.32.94-2.2,2.53-5.38,4.21-9.55.8-2.11,1.68-4.45,2.67-6.97.47-1.26.98-2.57,1.45-3.98.47-1.4.94-2.81,1.4-4.31.89-2.99,2.01-6.18,2.95-9.59.89-3.42,1.82-6.97,2.81-10.72.84-3.79,1.73-7.72,2.62-11.79.89-4.12,1.45-8.38,2.25-12.73.8-4.4,1.31-8.89,1.97-13.52.7-4.63.98-9.36,1.5-14.18.42-4.82.7-9.73,1.08-14.69.28-4.96.51-10.01.66-15.07.23-10.15.19-20.45-.14-30.74-.23-5.15-.42-10.29-.75-15.39-.28-5.15-.66-10.2-1.08-15.25-.7-10.11-2.01-19.98-3.14-29.57-1.22-9.55-2.67-18.72-4.16-27.42-1.45-8.7-3.13-16.89-4.73-24.38-1.59-7.53-3.18-14.41-4.73-20.45-.37-1.54-1.12-4.4-1.22-4.82,39.82,13.34,71.45,57.7,71.45,165.93,0,136.78-59.52,207.58-87.69,233.41-.05.09-.14.19-.28.28-1.08.94-2.06,1.83-2.99,2.67-.09.09-.23.14-.33.23-3.14,2.15-6.93,3.37-11,3.37Z"/>
  <path class="cls-1" d="M1425.45,506.37v842.05c-.8,16.33-13.9,29.43-30.23,30.23h-3.28c-16.66-.8-29.9-14.32-30.32-31.02V507.22c.37-17.08,14.08-30.79,31.16-31.16h1.64c16.71.42,30.23,13.66,31.02,30.32Z"/>
  <path class="cls-1" d="M1899.51,1486.37c0,7.96-6.46,14.41-14.46,14.41h-983.64c-7.16-.33-12.92-5.85-13.62-12.92v-2.95c.65-6.79,6.08-12.21,12.87-12.87h986.26c7.11.89,12.59,6.97,12.59,14.32Z"/>
</svg>