<?xml version="1.0" encoding="UTF-8"?>
<svg id="Capa_1" data-name="Capa 1" xmlns="http://www.w3.org/2000/svg" viewBox="0 0 1838.52 1037.6">
  <defs>
    <style>
      .cls-1 {
        fill: #925e43;
      }
    </style>
  </defs>
  <g>
    <path class="cls-1" d="M317.47,65.77h84.31c22.91,0,42.64,4.24,59.19,12.73,16.55,8.49,29.23,20.76,38.04,36.82,8.81,16.06,13.22,35.11,13.22,57.13s-4.36,41.37-13.07,57.43c-8.72,16.06-21.35,28.34-37.89,36.82-16.55,8.49-36.38,12.73-59.48,12.73h-84.31V65.77ZM397.96,234.58c20.36,0,35.54-5.15,45.53-15.46,9.99-10.3,14.98-25.86,14.98-46.67s-4.99-36.32-14.98-46.52c-9.99-10.2-25.17-15.31-45.53-15.31h-26.44v123.96h26.44Z"/>
    <path class="cls-1" d="M550.42,279.43V65.77h54.05v213.67h-54.05Z"/>
    <path class="cls-1" d="M677.02,275.8c-15.08-4.24-27.32-9.9-36.72-16.97l16.74-39.4c9.99,6.47,20.66,11.42,32.02,14.85,11.36,3.44,22.81,5.15,34.37,5.15s20.71-1.67,26.88-5c6.17-3.33,9.25-8.03,9.25-14.09,0-5.46-2.79-9.9-8.37-13.34-5.58-3.43-16.21-6.87-31.87-10.3-19.39-4.24-34.57-9.29-45.53-15.15-10.97-5.86-18.65-12.73-23.06-20.61-4.41-7.88-6.61-17.58-6.61-29.1,0-13.13,3.57-24.9,10.72-35.31,7.15-10.4,17.23-18.59,30.26-24.55,13.02-5.96,27.95-8.94,44.8-8.94,14.88,0,29.32,2.17,43.33,6.52,14,4.35,24.92,9.95,32.75,16.82l-16.45,39.4c-18.8-13.34-38.58-20-59.34-20-9.99,0-18.02,1.97-24.09,5.91-6.07,3.94-9.11,9.14-9.11,15.61,0,3.84,1.07,6.97,3.23,9.4,2.15,2.42,6.17,4.8,12.04,7.12,5.87,2.33,14.59,4.7,26.14,7.12,18.8,4.24,33.59,9.35,44.36,15.3,10.77,5.96,18.41,12.88,22.91,20.76,4.5,7.88,6.76,17.28,6.76,28.19,0,21.02-7.83,37.43-23.5,49.25-15.67,11.82-37.7,17.73-66.1,17.73-15.47,0-30.75-2.12-45.82-6.36Z"/>
    <path class="cls-1" d="M848.87,279.43V65.77h144.23v43.64h-91.06v39.4h85.19v43.64h-85.19v86.98h-53.17Z"/>
    <path class="cls-1" d="M1210.77,279.43h-59.34l-35.84-68.19c-4.51-7.88-11.65-11.82-21.44-11.82h-16.45v80.01h-53.17V65.77h98.7c25.07,0,43.92,5.61,56.55,16.82,12.63,11.21,18.95,27.43,18.95,48.64,0,16.17-4.31,29.85-12.93,41.07-8.62,11.21-20.76,18.74-36.43,22.58,11.94,2.63,21.44,10.61,28.49,23.94l32.9,60.61ZM1140.42,151.84c5.19-3.84,7.78-10.1,7.78-18.79s-2.6-15.3-7.78-19.25c-5.19-3.94-13.76-5.91-25.7-5.91h-37.6v49.7h37.6c11.94,0,20.51-1.92,25.7-5.76Z"/>
    <path class="cls-1" d="M1260.26,258.52c-15.57-15.76-23.35-38.79-23.35-69.1v-123.65h52.88v125.78c0,15.36,3.33,27.18,9.99,35.46,6.65,8.29,16.25,12.43,28.79,12.43s22.13-4.14,28.79-12.43c6.65-8.28,9.99-20.1,9.99-35.46v-125.78h53.17v123.65c0,30.11-7.89,53.09-23.65,68.95-15.77,15.86-38.53,23.79-68.3,23.79s-52.73-7.88-68.3-23.64Z"/>
    <path class="cls-1" d="M1509.51,279.43V110.93h-61.98v-45.16h178.6v45.16h-61.98v168.51h-54.64Z"/>
    <path class="cls-1" d="M1785.05,279.43l-18.51-44.25h-91.65l-18.51,44.25h-54.34l96.64-213.67h42.89l96.94,213.67h-53.46ZM1692.23,193.36h56.99l-28.49-68.49-28.49,68.49ZM1736,47.58h-31.73l30.55-47.58h46.71l-45.53,47.58Z"/>
  </g>
  <g>
    <path class="cls-1" d="M397.69,640.92h-58v-95.18l-31.12,59.72h-41.31l-30.9-58.34-.25,93.8h-57.99v-224.67h51.46l58.9,114.95,58.62-114.95h50.58v224.67ZM350.69,629.92h36v-202.67h-32.84l-65.34,128.12-65.65-128.12h-33.73v202.67h36.02l.34-126.84,48.41,91.38h28.02l48.79-93.64v129.1Z"/>
    <path class="cls-1" d="M657.17,640.92h-65.66l-18.51-44.25h-84.33l-18.51,44.25h-66.53l101.62-224.67h49.98l101.93,224.67ZM598.83,629.92h41.27l-91.95-202.67h-35.8l-91.67,202.67h42.16l18.51-44.25h98.97l18.51,44.25ZM567.58,554.85h-73.48l36.74-88.31,36.74,88.31ZM510.59,543.85h40.5l-20.25-48.68-20.25,48.68ZM548.46,409.07h-44.14l37.61-58.58h62.59l-56.06,58.58ZM524.45,398.07h19.31l35.01-36.58h-30.83l-23.49,36.58Z"/>
    <path class="cls-1" d="M739.7,643.65c-15.9,0-31.82-2.21-47.31-6.57h0c-15.67-4.41-28.64-10.42-38.54-17.87l-3.44-2.59,20.99-49.38,5.49,3.56c9.5,6.16,19.81,10.93,30.62,14.2,10.78,3.26,21.81,4.92,32.78,4.92s18.94-1.46,24.26-4.34c5.64-3.05,6.37-6.55,6.37-9.25,0-2.19-.6-5.47-5.76-8.65-3.45-2.12-11.49-5.52-30.17-9.61-19.8-4.33-35.6-9.61-46.95-15.68-11.85-6.33-20.35-13.99-25.27-22.77-4.85-8.67-7.31-19.37-7.31-31.78,0-14.21,3.93-27.14,11.69-38.42,7.69-11.19,18.62-20.08,32.5-26.44,13.69-6.26,29.53-9.44,47.09-9.44,15.36,0,30.49,2.28,44.96,6.76,14.68,4.56,26.37,10.59,34.75,17.94l2.97,2.61-20.62,49.39-5.61-3.98c-17.76-12.6-36.66-18.99-56.16-18.99-8.86,0-15.96,1.69-21.09,5.02-4.5,2.92-6.6,6.42-6.6,11,0,2.47.6,4.35,1.84,5.74.89,1,3.35,3.05,9.95,5.66,5.56,2.2,14.05,4.51,25.25,6.86,19.29,4.35,34.7,9.69,45.89,15.87,11.61,6.43,20.03,14.11,25.03,22.84,4.96,8.69,7.48,19.09,7.48,30.92,0,22.73-8.64,40.78-25.69,53.64-16.57,12.5-39.92,18.84-69.41,18.84ZM663.95,612.88c8.33,5.51,18.88,10.08,31.41,13.61h0c14.52,4.09,29.44,6.16,44.33,6.16,27.04,0,48.16-5.59,62.78-16.62,14.34-10.82,21.31-25.49,21.31-44.86,0-9.89-2.03-18.46-6.03-25.46-3.98-6.96-10.98-13.24-20.8-18.68-10.27-5.68-24.71-10.64-42.9-14.75-11.89-2.49-20.74-4.91-26.96-7.37-6.75-2.66-11.37-5.47-14.13-8.58-3.06-3.44-4.62-7.84-4.62-13.05,0-8.3,4.02-15.29,11.61-20.22,6.95-4.51,16.06-6.8,27.08-6.8,19.74,0,38.83,5.78,56.84,17.21l12.29-29.43c-6.97-5.24-16.28-9.69-27.73-13.24-13.41-4.16-27.44-6.27-41.7-6.27-15.96,0-30.27,2.84-42.51,8.44-12.04,5.51-21.47,13.14-28.01,22.66-6.47,9.42-9.76,20.25-9.76,32.19,0,10.51,1.99,19.4,5.91,26.41,3.87,6.91,10.88,13.12,20.85,18.44,10.46,5.59,25.3,10.51,44.12,14.63,16.43,3.61,27.41,7.2,33.58,10.99,9.08,5.6,10.99,12.89,10.99,18.02,0,5.64-2.11,13.51-12.14,18.93-7.05,3.81-16.7,5.66-29.49,5.66-12.05,0-24.15-1.81-35.96-5.39-9.72-2.94-19.07-7-27.86-12.09l-12.51,29.44Z"/>
    <path class="cls-1" d="M1042.26,640.92h-89.81v-224.67h89.81c23.69,0,44.44,4.49,61.7,13.34,17.47,8.96,31.04,22.1,40.35,39.07,9.22,16.81,13.9,36.92,13.9,59.77s-4.62,43.25-13.74,60.05c-9.21,16.98-22.75,30.13-40.22,39.1-17.26,8.85-38.12,13.34-62,13.34ZM963.45,629.92h78.81c22.12,0,41.29-4.08,56.98-12.12,15.47-7.93,27.43-19.56,35.57-34.55,8.23-15.18,12.41-33.62,12.41-54.81s-4.22-39.32-12.54-54.48c-8.23-15.01-20.25-26.64-35.73-34.57-15.69-8.04-34.76-12.12-56.68-12.12h-78.81v202.67ZM1038.44,596.06h-31.94v-134.96h31.94c21.8,0,38.45,5.71,49.46,16.96,10.98,11.22,16.55,28.17,16.55,50.37s-5.56,39.18-16.53,50.5c-11.02,11.37-27.66,17.13-49.48,17.13ZM1017.5,585.06h20.94c18.73,0,32.72-4.64,41.58-13.78,8.91-9.2,13.43-23.61,13.43-42.85s-4.51-33.58-13.41-42.67c-8.87-9.06-22.87-13.65-41.6-13.65h-20.94v112.96Z"/>
    <path class="cls-1" d="M1344.74,640.92h-158.17v-224.67h158.17v54.04h-94.59v29.61h88.71v53.73h-88.71v33.25h94.59v54.04ZM1197.57,629.92h136.17v-32.04h-94.59v-55.25h88.71v-31.73h-88.71v-51.61h94.59v-32.04h-136.17v202.67Z"/>
    <path class="cls-1" d="M1613.23,640.92h-153.18v-224.67h65.05v168.51h88.12v56.16ZM1471.05,629.92h131.18v-34.16h-88.12v-168.51h-43.05v202.67Z"/>
    <path class="cls-1" d="M1726.99,643.65c-22.03,0-41.49-4.79-57.83-14.22h0c-16.43-9.49-29.26-23.1-38.13-40.45-8.78-17.17-13.23-37.54-13.23-60.54s4.45-43.37,13.24-60.54c8.87-17.35,21.71-30.91,38.15-40.31,16.34-9.33,35.79-14.06,57.81-14.06s41.47,4.73,57.81,14.06c16.45,9.39,29.24,22.96,38.02,40.33,8.68,17.17,13.08,37.54,13.08,60.52s-4.45,43.37-13.23,60.54c-8.88,17.36-21.71,30.96-38.13,40.45-16.34,9.44-35.7,14.22-57.53,14.22ZM1726.99,424.52c-20.08,0-37.69,4.24-52.35,12.61-14.56,8.32-25.93,20.35-33.81,35.76-7.98,15.61-12.03,34.29-12.03,55.53s4.05,39.93,12.03,55.53c7.89,15.43,19.27,27.52,33.84,35.93h0c14.65,8.46,32.25,12.75,52.33,12.75s37.39-4.29,52.03-12.75c14.56-8.4,25.94-20.49,33.84-35.93,7.98-15.61,12.03-34.3,12.03-55.54s-4-39.94-11.89-55.56c-7.79-15.41-19.12-27.43-33.66-35.74-14.66-8.37-32.27-12.61-52.35-12.61ZM1726.99,600.91c-17.38,0-31.19-6.42-41.06-19.09-9.54-12.25-14.38-30.21-14.38-53.39s4.84-41.1,14.4-53.25c9.87-12.56,23.68-18.92,41.04-18.92s30.92,6.42,40.89,19.07c9.65,12.26,14.54,30.13,14.54,53.11s-4.83,40.87-14.36,53.22c-9.87,12.78-23.69,19.26-41.07,19.26ZM1726.99,467.26c-14.01,0-24.61,4.81-32.39,14.72-7.99,10.17-12.04,25.8-12.04,46.46s4.06,36.36,12.06,46.63c7.78,9.99,18.37,14.85,32.38,14.85s24.58-4.9,32.37-14.99h0c8.01-10.37,12.07-26.02,12.07-46.5s-4.1-36.03-12.19-46.3c-7.88-10.01-18.43-14.87-32.25-14.87Z"/>
  </g>
  <g>
    <path class="cls-1" d="M176.55,753.02h66.45v281h-52.54l-124.4-160.63v160.63H0v-281h51.77l124.78,160.63v-160.63Z"/>
    <path class="cls-1" d="M500.67,1034.02l-24.34-58.19h-120.53l-24.34,58.19h-71.47l127.1-281h56.4l127.49,281h-70.31ZM378.59,920.82h74.95l-37.47-90.08-37.47,90.08Z"/>
    <path class="cls-1" d="M613.86,1034.02v-221.61h-81.51v-59.39h234.89v59.39h-81.52v221.61h-71.86Z"/>
    <path class="cls-1" d="M826.53,1006.51c-20.48-20.73-30.71-51.02-30.71-90.87v-162.62h69.54v165.41c0,20.2,4.38,35.74,13.14,46.63,8.75,10.9,21.37,16.34,37.86,16.34s29.1-5.44,37.86-16.34c8.75-10.89,13.14-26.44,13.14-46.63v-165.41h69.92v162.62c0,39.59-10.37,69.82-31.1,90.67-20.74,20.86-50.67,31.29-89.82,31.29s-69.35-10.36-89.82-31.09Z"/>
    <path class="cls-1" d="M1330.87,1034.02h-78.04l-47.13-89.68c-5.93-10.36-15.33-15.55-28.2-15.55h-21.63v105.23h-69.92v-281h129.8c32.96,0,57.75,7.37,74.37,22.12,16.61,14.75,24.92,36.07,24.92,63.97,0,21.26-5.67,39.26-17,54.01-11.34,14.75-27.3,24.65-47.9,29.69,15.71,3.46,28.2,13.95,37.47,31.49l43.27,79.72ZM1238.35,866.21c6.82-5.04,10.24-13.28,10.24-24.71s-3.42-20.13-10.24-25.31c-6.83-5.18-18.1-7.77-33.8-7.77h-49.45v65.37h49.45c15.71,0,26.98-2.52,33.8-7.57Z"/>
    <path class="cls-1" d="M1563.05,1034.02l-24.34-58.19h-120.53l-24.34,58.19h-71.47l127.1-281h56.4l127.49,281h-70.31ZM1440.97,920.82h74.95l-37.47-90.08-37.47,90.08Z"/>
    <path class="cls-1" d="M1650.36,1034.02v-281h71.08v221.61h115.9v59.39h-186.98Z"/>
  </g>
</svg>