<?xml version="1.0" encoding="UTF-8"?>
<svg id="Capa_1" data-name="Capa 1" xmlns="http://www.w3.org/2000/svg" viewBox="0 0 2788.8 2852.56">
  <defs>
    <style>
      .cls-1 {
        fill: #925e43;
      }
    </style>
  </defs>
  <g>
    <g>
      <path class="cls-1" d="M1337.68,2798.24c0,4.63-.56,9.22-1.68,13.52,0,.09,0,.19-.14.19-.98,4.3-2.53,8.38-4.59,12.21-.14.19-.19.37-.42.56-1.22,2.48-2.81,4.87-4.63,7.07-.75,1.26-1.68,2.39-2.76,3.42-5.19,5.76-11.51,10.34-18.72,13.34-4.16,1.78-8.56,2.99-13.2,3.56-7.25-.51-14.46-1.08-21.62-1.73-325.54-28.59-627.73-169.2-861.51-402.98C145.01,2184.03,0,1833.88,0,1461.4c0-225.64,55.17-449.73,159.47-648.14,100.98-191.99,247.82-360.31,424.65-486.79,23.58-16.85,56.29-11.42,73.14,12.17,16.85,23.54,11.42,56.29-12.12,73.14-163.59,116.98-299.43,272.71-392.83,450.29-96.49,183.38-147.45,390.63-147.45,599.33,0,344.45,134.11,668.26,377.67,911.86,214.64,214.64,491.61,344.26,790.15,371.96,10.72,1.03,21.43,1.92,32.19,2.62,6.32,2.67,12.07,6.6,16.89,11.46,1.64,1.64,3.14,3.23,4.35,5.05,2.2,2.76,4.07,5.71,5.57,8.98,1.73,3.32,3.14,6.74,4.07,10.48,1.22,4.59,1.92,9.45,1.92,14.41v.02Z"/>
      <path class="cls-1" d="M2788.79,1461.4c0,372.48-145.01,722.63-408.41,985.98-232.8,232.8-533.44,373.18-857.44,402.61-10.72.98-21.43,1.82-32.19,2.57-8.8-2.2-16.71-6.55-23.16-12.54-2.67-2.48-5.01-5.15-7.21-8.14.06-.06.06-.09,0-.09-2.15-3.04-3.93-6.18-5.38-9.59-.94-1.92-1.68-3.93-2.25-5.94-1.73-5.24-2.57-10.76-2.57-16.56s.84-11.09,2.39-16.24c0-.09.09-.28.19-.47.47-1.54.94-3.04,1.59-4.49v-.09c1.5-3.6,3.32-7.07,5.66-10.2,2.39-3.7,5.38-7.07,8.7-10.01,5.47-4.77,11.84-8.42,18.86-10.58,7.67-.51,15.25-1.12,22.88-1.82,300.69-26.63,579.82-156.52,795.82-372.52,243.56-243.61,377.67-567.42,377.67-911.86,0-208.7-50.96-415.95-147.45-599.33-93.4-177.58-229.24-333.31-392.83-450.29-23.54-16.85-28.97-49.6-12.12-73.14,16.8-23.58,49.55-29.01,73.14-12.17,176.83,126.48,323.67,294.8,424.65,486.79,104.3,198.4,159.47,422.5,159.47,648.14v-.02Z"/>
    </g>
    <g>
      <path class="cls-1" d="M729.65,546.17c-145.15,103.79-265.65,241.92-348.52,399.48-85.59,162.7-130.83,346.6-130.83,531.71s41.18,353.06,119,509.3c1.54,3.18,3.18,6.36,4.82,9.55.65,2.25.98,4.63.98,7.07,0,14.69-11.93,26.67-26.67,26.67-6.88,0-13.15-2.62-17.87-6.88-1.36-1.22-2.53-2.53-3.65-3.98-.75-.97-.75-.98,0-.05-1.31-2.53-2.62-5.1-3.84-7.63-81.89-163.82-125.17-345.62-125.17-534.05s47.31-385.91,136.87-556.14c86.61-164.71,212.63-309.16,364.38-417.72,11.79-8.42,28.17-5.66,36.59,6.08,8.42,11.79,5.71,28.17-6.08,36.59h-.01Z"/>
      <path class="cls-1" d="M2367.09,2166.3c0,4.59-1.17,8.94-3.23,12.73-.05.09-.09.19-.19.28-1.22,1.73-2.48,3.42-3.74,5.15-35.89,48.85-75.81,95.32-119.46,138.98-226.01,226.01-526.47,350.44-846.07,350.44s-620.06-124.42-846.07-350.44c-43.05-43.05-82.45-88.86-118.01-136.96-2.15-2.9-4.26-5.85-6.36-8.75-1.59-3.37-2.43-7.11-2.43-11.04,0-14.74,11.93-26.72,26.67-26.72,7.25,0,13.85,2.9,18.67,7.63,1.64,2.29,3.32,4.59,5.01,6.88,34.21,46.33,72.11,90.45,113.57,131.91,216.04,216.09,503.36,335.09,808.96,335.09s592.92-119,808.96-335.09c41.04-41.04,78.57-84.65,112.49-130.46v-.05c2.48-3.32,4.87-6.6,7.25-9.92,4.68-3.98,10.72-6.36,17.31-6.36,7.25,0,13.85,2.9,18.67,7.63.8.8,1.54,1.59,2.2,2.48,1.08,1.36,2.01,2.81,2.81,4.4.84,1.64,1.54,3.32,2.01,5.15.66,2.25.98,4.63.98,7.07v-.03Z"/>
      <path class="cls-1" d="M2590.9,1477.36c0,187.78-43,368.97-124.33,532.32,0,.05,0,.09-.05.09-1.54,3.23-3.18,6.5-4.87,9.73-.42.61-.89,1.17-1.4,1.68-4.87,5.24-11.79,8.52-19.51,8.52-6.88,0-13.15-2.62-17.88-6.88-1.36-1.22-2.53-2.53-3.65-3.98-.75-.97-.75-.98,0-.05-1.08-1.5-1.97-3.04-2.71-4.73-.47-.94-.84-1.92-1.12-2.9-.89-2.57-1.31-5.29-1.31-8.14s.42-5.43,1.22-7.95c0-.05.05-.14.09-.23,1.26-2.43,2.48-4.82,3.65-7.25,78.15-156.52,119.46-330.22,119.46-510.24s-45.25-369.01-130.83-531.71c-82.87-157.55-203.36-295.69-348.52-399.48-11.79-8.42-14.51-24.8-6.08-36.59,8.42-11.75,24.8-14.51,36.59-6.08,151.75,108.56,277.77,253.01,364.38,417.72,89.56,170.23,136.87,362.56,136.87,556.14h0Z"/>
    </g>
  </g>
  <path class="cls-1" d="M1229.66,1685.79c0,6.5-1.88,12.55-5.18,17.64-2.11,2.43-4.54,5.18-7.29,8.08-44.45,47.9-162.93,145.43-389.59,145.43-181.66,0-255.9-53.23-278.17-120.12.08,0,5.41,1.41,8.23,2.11,10.12,2.51,21.65,5.26,34.26,7.93,12.55,2.66,26.27,5.5,40.85,7.93,14.58,2.51,29.96,4.94,45.94,6.97,16.07,1.88,32.62,4.07,49.54,5.26,8.46.7,16.94,1.34,25.55,1.73,8.55.62,17.17.94,25.79,1.34,17.24.55,34.5.62,51.5.23,8.46-.23,16.94-.62,25.25-1.11,8.31-.62,16.54-1.11,24.61-1.81,8.08-.85,16-1.34,23.76-2.51,7.76-1.11,15.28-1.96,22.65-3.3,7.29-1.34,14.43-2.28,21.33-3.77,6.82-1.49,13.4-2.98,19.75-4.39,6.27-1.64,12.23-3.22,17.96-4.71,5.73-1.57,11.06-3.45,16.07-4.94,2.51-.79,4.86-1.57,7.22-2.35,2.35-.79,4.54-1.64,6.67-2.43,4.24-1.64,8.16-3.13,11.68-4.47,6.97-2.81,12.31-5.5,16-7.05,3.6-1.73,5.56-2.66,5.56-2.66,0,0-8.31,2.11-22.89,5.73-3.6.79-7.69,1.64-12.08,2.58-2.2.55-4.47,1.02-6.82,1.57-2.35.39-4.86.85-7.37,1.34-5.09.85-10.51,2.04-16.24,2.81-5.73.94-11.76,1.81-18.03,2.81-12.62,1.57-26.27,3.13-40.76,4.47-14.51,1.26-29.87,2.04-45.71,2.9-7.93.39-16,.47-24.14.7-8.16.08-16.39.15-24.78.23-16.62-.08-33.56-.15-50.48-.79-8.55-.23-17.01-.47-25.4-.94-8.46-.32-16.86-.85-25.25-1.34-8.31-.55-16.62-1.09-24.78-1.64-8.16-.62-16.24-1.17-24.23-1.81-15.83-1.49-31.2-2.66-45.79-4.16-14.58-1.49-28.3-2.9-41.08-4.24-12.7-1.49-24.38-2.81-34.65-4-4.24-.55-11.85-1.41-11.91-1.49-3.84-14.19-5.56-29-5.56-43.98s1.73-29.96,5.73-44.3c.85-.08,7.84-.94,11.76-1.41,10.27-1.17,21.95-2.51,34.65-4,12.78-1.34,26.51-2.75,41.08-4.24,14.58-1.49,29.94-2.66,45.79-4.16,7.99-.62,16.07-1.17,24.23-1.81,8.16-.55,16.47-1.11,24.78-1.64,8.39-.55,16.77-1.02,25.25-1.34,8.39-.47,16.86-.7,25.4-.94,16.94-.62,33.86-.7,50.48-.79,8.39.08,16.62.15,24.78.23,8.16.23,16.24.32,24.14.7,15.83.85,31.2,1.64,45.71,2.9,14.51,1.34,28.15,2.9,40.76,4.47,6.27,1.02,12.31,1.88,18.03,2.81,5.73.79,11.13,1.96,16.24,2.81,2.51.47,5.01.94,7.37,1.34,2.35.55,4.62,1.02,6.82,1.49,4.39,1.02,8.46,1.88,12.08,2.66,14.58,3.6,22.89,5.73,22.89,5.73,0,0-1.96-.94-5.56-2.66-3.69-1.57-9.01-4.24-16-7.05-3.54-1.34-7.46-2.81-11.68-4.47-2.11-.79-4.31-1.64-6.67-2.43-2.35-.79-4.71-1.57-7.22-2.35-5.01-1.49-10.35-3.37-16.07-4.94-5.73-1.49-11.68-3.05-17.96-4.71-6.35-1.41-12.93-2.9-19.75-4.39-6.9-1.49-14.04-2.43-21.33-3.77-7.37-1.34-14.9-2.19-22.65-3.3-7.76-1.17-15.68-1.64-23.76-2.51-8.08-.7-16.3-1.17-24.61-1.81-8.31-.47-16.77-.85-25.25-1.11-17.01-.39-34.26-.32-51.5.23-8.63.39-17.24.7-25.79,1.26-8.63.47-17.09,1.11-25.55,1.81-16.94,1.17-33.48,3.37-49.54,5.26-16,2.04-31.37,4.47-45.94,6.97-14.58,2.43-28.3,5.24-40.85,7.93-12.62,2.66-24.14,5.33-34.26,7.93-2.58.62-7.37,1.88-8.08,2.04,22.35-66.72,96.68-119.71,278.02-119.71,229.17,0,347.8,99.73,391.08,146.92.15.08.32.23.47.47,1.57,1.81,3.05,3.45,4.47,5.01.15.15.23.39.39.55,3.6,5.26,5.65,11.61,5.65,18.43l-.02.07Z"/>
  <path class="cls-1" d="M1222.09,1288.63c-3.8,5.28-8.86,9.08-14.51,11.29-3.13.74-6.72,1.54-10.64,2.3-64.07,12.9-217.2,22.84-401.15-109.58-147.43-106.14-176.58-192.72-155.57-260,.07.05,3.57,4.31,5.45,6.53,6.74,7.94,14.49,16.91,23.17,26.44,8.63,9.5,18.11,19.8,28.52,30.29,10.37,10.56,21.41,21.51,33.21,32.5,11.95,10.92,24.09,22.37,37.15,33.21,6.47,5.51,12.97,10.97,19.74,16.34,6.57,5.5,13.39,10.79,20.16,16.15,13.67,10.52,27.63,20.66,41.67,30.29,7,4.76,14.11,9.38,21.13,13.86,7.1,4.34,14.07,8.78,21.03,12.92,7.05,4.02,13.76,8.26,20.74,11.85,6.94,3.64,13.55,7.34,20.31,10.57,6.7,3.18,13.04,6.58,19.5,9.4,6.4,2.78,12.62,5.41,18.6,7.98,6.05,2.33,11.81,4.54,17.32,6.67,5.56,2.08,10.99,3.65,15.93,5.38,2.5.82,4.86,1.57,7.22,2.31s4.66,1.32,6.84,1.93c4.39,1.14,8.44,2.21,12.1,3.2,7.31,1.79,13.2,2.73,17.11,3.62,3.94.7,6.08,1.09,6.08,1.09,0,0-7.98-3.13-21.92-8.73-3.38-1.47-7.2-3.15-11.31-4.96-2.09-.84-4.22-1.78-6.45-2.71-2.14-1.06-4.46-2.14-6.75-3.22-4.64-2.28-9.72-4.49-14.83-7.19-5.19-2.58-10.61-5.41-16.29-8.24-11.16-6.1-23.16-12.8-35.71-20.19-12.5-7.46-25.43-15.8-38.79-24.35-6.65-4.31-13.25-8.96-20.01-13.54-6.67-4.71-13.39-9.45-20.24-14.29-13.44-9.77-27.14-19.74-40.51-30.14-6.8-5.18-13.54-10.32-20.07-15.6-6.69-5.19-13.17-10.56-19.7-15.83-6.42-5.29-12.85-10.61-19.15-15.82-6.25-5.28-12.48-10.44-18.61-15.62-11.98-10.46-23.76-20.39-34.73-30.13-10.96-9.73-21.28-18.88-30.86-27.44-9.43-8.63-18.15-16.54-25.79-23.49-3.12-2.92-8.78-8.06-8.8-8.18,5.18-13.76,12.43-26.79,21.18-38.96,8.8-12.21,18.9-23.31,30.53-32.61.75.44,6.92,3.82,10.37,5.73,9.01,5.04,19.29,10.79,30.46,17.01,11.14,6.38,23.11,13.25,35.82,20.58,12.7,7.31,25.87,15.33,39.59,23.37,6.85,4.16,13.74,8.44,20.71,12.68,6.94,4.32,14.01,8.73,21.06,13.14,7.12,4.46,14.21,8.98,21.26,13.67,7.09,4.52,14.09,9.28,21.16,14.07,14.11,9.38,27.9,19.22,41.44,28.87,6.77,4.96,13.4,9.84,19.97,14.66,6.48,4.96,12.99,9.73,19.18,14.68,12.35,9.95,24.36,19.57,35.4,29.05,10.99,9.55,21.14,18.8,30.48,27.44,4.49,4.49,8.9,8.71,12.99,12.83,4.19,3.99,7.89,8.09,11.53,11.78,1.76,1.84,3.52,3.7,5.19,5.4,1.59,1.83,3.17,3.54,4.66,5.19,2.97,3.38,5.78,6.47,8.24,9.22,9.73,11.44,15.23,18.03,15.23,18.03,0,0-1.04-1.91-2.97-5.41-2.08-3.42-4.84-8.7-8.86-15.08-2.08-3.15-4.39-6.64-6.87-10.46-1.26-1.88-2.53-3.85-3.99-5.86s-2.9-4.02-4.47-6.12c-3.2-4.14-6.43-8.78-10.15-13.4-3.77-4.56-7.69-9.3-11.83-14.31-4.32-4.86-8.8-9.92-13.47-15.11-4.72-5.24-9.97-10.17-15.11-15.52-5.21-5.4-10.81-10.49-16.47-15.92-5.61-5.5-11.76-10.51-17.81-15.92-6.15-5.29-12.55-10.49-18.93-15.85-6.47-5.24-13.12-10.51-19.85-15.65-13.57-10.25-27.63-20.27-41.94-29.91-7.22-4.72-14.41-9.5-21.66-14.06-7.27-4.66-14.51-9.1-21.8-13.47-14.43-8.95-29.14-16.82-43.28-24.68-14.17-7.69-28.06-14.69-41.37-21.18-13.25-6.55-26.04-12.28-37.78-17.44-11.8-5.21-22.72-9.78-32.44-13.59-2.46-1.01-7.09-2.78-7.74-3.07,57.12-41.1,148.4-40.68,295.57,65.28,185.98,133.89,224,284.13,231.54,347.73.08.15.12.37.1.65.22,2.38.47,4.59.69,6.69.03.22-.03.45,0,.67-.13,6.37-2.2,12.72-6.18,18.25l.05.02Z"/>
  <path class="cls-1" d="M1551.93,1685.79c0,6.5,1.88,12.55,5.18,17.64,2.11,2.43,4.54,5.18,7.29,8.08,44.45,47.9,162.93,145.43,389.59,145.43,181.66,0,255.9-53.23,278.17-120.12-.08,0-5.41,1.41-8.23,2.11-10.12,2.51-21.65,5.26-34.26,7.93-12.55,2.66-26.27,5.5-40.85,7.93-14.58,2.51-29.94,4.94-45.94,6.97-16.07,1.88-32.62,4.07-49.54,5.26-8.46.7-16.94,1.34-25.55,1.73-8.55.62-17.17.94-25.79,1.34-17.24.55-34.5.62-51.5.23-8.46-.23-16.94-.62-25.25-1.11-8.31-.62-16.54-1.11-24.61-1.81-8.08-.85-16-1.34-23.76-2.51-7.76-1.11-15.28-1.96-22.65-3.3-7.29-1.34-14.43-2.28-21.33-3.77-6.82-1.49-13.4-2.98-19.75-4.39-6.27-1.64-12.23-3.22-17.96-4.71-5.73-1.57-11.06-3.45-16.07-4.94-2.51-.79-4.86-1.57-7.22-2.35-2.35-.79-4.54-1.64-6.67-2.43-4.24-1.64-8.16-3.13-11.68-4.47-6.97-2.81-12.31-5.5-16-7.05-3.6-1.73-5.56-2.66-5.56-2.66,0,0,8.31,2.11,22.89,5.73,3.6.79,7.69,1.64,12.08,2.58,2.2.55,4.47,1.02,6.82,1.57,2.35.39,4.86.85,7.37,1.34,5.09.85,10.51,2.04,16.24,2.81,5.73.94,11.76,1.81,18.03,2.81,12.62,1.57,26.27,3.13,40.76,4.47,14.51,1.26,29.87,2.04,45.71,2.9,7.93.39,16,.47,24.14.7,8.16.08,16.39.15,24.78.23,16.62-.08,33.56-.15,50.48-.79,8.55-.23,17.01-.47,25.4-.94,8.46-.32,16.86-.85,25.25-1.34,8.31-.55,16.62-1.09,24.78-1.64,8.16-.62,16.24-1.17,24.23-1.81,15.83-1.49,31.2-2.66,45.79-4.16,14.58-1.49,28.3-2.9,41.08-4.24,12.7-1.49,24.38-2.81,34.65-4,4.24-.55,11.85-1.41,11.91-1.49,3.84-14.19,5.56-29,5.56-43.98s-1.73-29.96-5.73-44.3c-.85-.08-7.84-.94-11.76-1.41-10.27-1.17-21.95-2.51-34.65-4-12.78-1.34-26.51-2.75-41.08-4.24-14.58-1.49-29.94-2.66-45.79-4.16-7.99-.62-16.07-1.17-24.23-1.81-8.16-.55-16.47-1.11-24.78-1.64-8.39-.55-16.77-1.02-25.25-1.34-8.39-.47-16.86-.7-25.4-.94-16.94-.62-33.86-.7-50.48-.79-8.39.08-16.62.15-24.78.23-8.16.23-16.24.32-24.14.7-15.83.85-31.2,1.64-45.71,2.9-14.51,1.34-28.15,2.9-40.76,4.47-6.27,1.02-12.31,1.88-18.03,2.81-5.73.79-11.13,1.96-16.24,2.81-2.51.47-5.01.94-7.37,1.34-2.35.55-4.62,1.02-6.82,1.49-4.39,1.02-8.46,1.88-12.08,2.66-14.58,3.6-22.89,5.73-22.89,5.73,0,0,1.96-.94,5.56-2.66,3.69-1.57,9.01-4.24,16-7.05,3.54-1.34,7.46-2.81,11.68-4.47,2.11-.79,4.31-1.64,6.67-2.43,2.35-.79,4.71-1.57,7.22-2.35,5.01-1.49,10.35-3.37,16.07-4.94,5.73-1.49,11.68-3.05,17.96-4.71,6.35-1.41,12.93-2.9,19.75-4.39,6.9-1.49,14.04-2.43,21.33-3.77,7.37-1.34,14.9-2.19,22.65-3.3,7.76-1.17,15.68-1.64,23.76-2.51,8.08-.7,16.3-1.17,24.61-1.81,8.31-.47,16.77-.85,25.25-1.11,17.01-.39,34.26-.32,51.5.23,8.63.39,17.24.7,25.79,1.26,8.63.47,17.09,1.11,25.55,1.81,16.94,1.17,33.48,3.37,49.54,5.26,16,2.04,31.37,4.47,45.94,6.97,14.58,2.43,28.3,5.24,40.85,7.93,12.62,2.66,24.14,5.33,34.26,7.93,2.58.62,7.37,1.88,8.08,2.04-22.35-66.72-96.68-119.71-278.02-119.71-229.17,0-347.8,99.73-391.08,146.92-.15.08-.32.23-.47.47-1.57,1.81-3.05,3.45-4.47,5.01-.15.15-.23.39-.39.55-3.6,5.26-5.65,11.61-5.65,18.43l.02.07Z"/>
  <path class="cls-1" d="M1560.22,1288.63c3.8,5.28,8.86,9.08,14.51,11.29,3.13.74,6.72,1.54,10.64,2.3,64.07,12.9,217.2,22.84,401.15-109.58,147.43-106.14,176.58-192.72,155.57-260-.07.05-3.57,4.31-5.45,6.53-6.74,7.94-14.49,16.91-23.17,26.44-8.63,9.5-18.11,19.8-28.52,30.29-10.37,10.56-21.41,21.51-33.21,32.5-11.95,10.92-24.09,22.37-37.15,33.21-6.47,5.51-12.97,10.97-19.74,16.34-6.57,5.5-13.39,10.79-20.16,16.15-13.67,10.52-27.63,20.66-41.67,30.29-7,4.76-14.11,9.38-21.13,13.86-7.1,4.34-14.07,8.78-21.03,12.92-7.05,4.02-13.76,8.26-20.74,11.85-6.94,3.64-13.55,7.34-20.31,10.57-6.7,3.18-13.04,6.58-19.5,9.4-6.4,2.78-12.62,5.41-18.6,7.98-6.05,2.33-11.81,4.54-17.32,6.67-5.56,2.08-10.99,3.65-15.93,5.38-2.5.82-4.86,1.57-7.22,2.31s-4.66,1.32-6.84,1.93c-4.39,1.14-8.44,2.21-12.1,3.2-7.31,1.79-13.2,2.73-17.11,3.62-3.94.7-6.08,1.09-6.08,1.09,0,0,7.98-3.13,21.92-8.73,3.38-1.47,7.2-3.15,11.31-4.96,2.09-.84,4.22-1.78,6.45-2.71,2.14-1.06,4.46-2.14,6.75-3.22,4.64-2.28,9.72-4.49,14.83-7.19,5.19-2.58,10.61-5.41,16.29-8.24,11.16-6.1,23.16-12.8,35.71-20.19,12.5-7.46,25.43-15.8,38.79-24.35,6.65-4.31,13.25-8.96,20.01-13.54,6.67-4.71,13.39-9.45,20.24-14.29,13.44-9.77,27.14-19.74,40.51-30.14,6.8-5.18,13.54-10.32,20.07-15.6,6.69-5.19,13.17-10.56,19.7-15.83,6.42-5.29,12.85-10.61,19.15-15.82,6.25-5.28,12.48-10.44,18.61-15.62,11.98-10.46,23.76-20.39,34.73-30.13,10.96-9.73,21.28-18.88,30.86-27.44,9.43-8.63,18.15-16.54,25.79-23.49,3.12-2.92,8.78-8.06,8.8-8.18-5.18-13.76-12.43-26.79-21.18-38.96-8.8-12.21-18.9-23.31-30.53-32.61-.75.44-6.92,3.82-10.37,5.73-9.03,5.04-19.29,10.79-30.46,17.01-11.14,6.38-23.11,13.25-35.82,20.58-12.7,7.31-25.87,15.33-39.59,23.37-6.85,4.16-13.74,8.44-20.71,12.68-6.94,4.32-14.01,8.73-21.06,13.14-7.12,4.46-14.21,8.98-21.26,13.67-7.09,4.52-14.09,9.28-21.16,14.07-14.11,9.38-27.9,19.22-41.44,28.87-6.77,4.96-13.4,9.84-19.97,14.66-6.48,4.96-12.99,9.73-19.18,14.68-12.35,9.95-24.36,19.57-35.4,29.05-10.99,9.55-21.14,18.8-30.48,27.44-4.49,4.49-8.9,8.71-12.99,12.83-4.19,3.99-7.89,8.09-11.53,11.78-1.76,1.84-3.52,3.7-5.19,5.4-1.59,1.83-3.17,3.54-4.66,5.19-2.97,3.38-5.78,6.47-8.24,9.22-9.73,11.44-15.23,18.03-15.23,18.03,0,0,1.04-1.91,2.97-5.41,2.08-3.42,4.84-8.7,8.86-15.08,2.08-3.15,4.39-6.64,6.87-10.46,1.26-1.88,2.53-3.85,3.99-5.86s2.9-4.02,4.47-6.12c3.2-4.14,6.43-8.78,10.15-13.4,3.77-4.56,7.69-9.3,11.83-14.31,4.32-4.86,8.8-9.92,13.47-15.11,4.72-5.24,9.97-10.17,15.11-15.52,5.21-5.4,10.81-10.49,16.47-15.92,5.61-5.5,11.76-10.51,17.81-15.92,6.15-5.29,12.55-10.49,18.93-15.85,6.47-5.24,13.12-10.51,19.85-15.65,13.57-10.25,27.63-20.27,41.94-29.91,7.22-4.72,14.41-9.5,21.66-14.06,7.27-4.66,14.51-9.1,21.8-13.47,14.43-8.95,29.14-16.82,43.28-24.68,14.17-7.69,28.06-14.69,41.37-21.18,13.25-6.55,26.04-12.28,37.78-17.44,11.8-5.21,22.72-9.78,32.44-13.59,2.46-1.01,7.09-2.78,7.74-3.07-57.12-41.1-148.4-40.68-295.58,65.28-185.98,133.89-224,284.13-231.54,347.73-.08.15-.12.37-.1.65-.22,2.38-.47,4.59-.69,6.69-.03.22.03.45,0,.67.13,6.37,2.2,12.72,6.18,18.25l-.05.02Z"/>
  <path class="cls-1" d="M1391.73,687.99c-6.5,0-12.55-1.88-17.64-5.18-2.43-2.11-5.18-4.54-8.08-7.29-47.9-44.45-145.43-162.93-145.43-389.59,0-181.66,53.23-255.9,120.12-278.17,0,.08-1.41,5.41-2.11,8.23-2.51,10.12-5.26,21.65-7.93,34.26-2.66,12.55-5.5,26.27-7.93,40.85-2.51,14.58-4.94,29.96-6.97,45.94-1.88,16.07-4.07,32.62-5.26,49.54-.7,8.46-1.34,16.94-1.73,25.55-.62,8.55-.94,17.17-1.34,25.79-.55,17.24-.62,34.5-.23,51.5.23,8.46.62,16.94,1.11,25.25.62,8.31,1.11,16.54,1.81,24.61.85,8.08,1.34,16,2.51,23.76,1.11,7.76,1.96,15.28,3.3,22.65,1.34,7.29,2.28,14.43,3.77,21.33,1.49,6.82,2.98,13.4,4.39,19.75,1.64,6.27,3.22,12.23,4.71,17.96,1.57,5.73,3.45,11.06,4.94,16.07.79,2.51,1.57,4.86,2.35,7.22.79,2.35,1.64,4.54,2.43,6.67,1.64,4.24,3.13,8.16,4.47,11.68,2.81,6.97,5.5,12.31,7.05,16,1.73,3.6,2.66,5.56,2.66,5.56,0,0-2.11-8.31-5.73-22.89-.79-3.6-1.64-7.69-2.58-12.08-.55-2.19-1.02-4.47-1.57-6.82-.39-2.35-.85-4.86-1.34-7.37-.85-5.09-2.04-10.51-2.81-16.24-.94-5.73-1.81-11.76-2.81-18.03-1.57-12.62-3.13-26.27-4.47-40.76-1.26-14.51-2.04-29.87-2.9-45.71-.39-7.93-.47-16-.7-24.14-.08-8.16-.15-16.39-.23-24.78.08-16.62.15-33.56.79-50.48.23-8.55.47-17.01.94-25.4.32-8.46.85-16.86,1.34-25.25.55-8.31,1.09-16.62,1.64-24.78.62-8.16,1.17-16.24,1.81-24.23,1.49-15.83,2.66-31.2,4.16-45.79,1.49-14.58,2.9-28.3,4.24-41.08,1.49-12.7,2.81-24.38,4-34.65.55-4.24,1.41-11.85,1.49-11.91,14.19-3.84,29-5.56,43.98-5.56s29.96,1.73,44.3,5.73c.08.85.94,7.84,1.41,11.76,1.17,10.27,2.51,21.95,4,34.65,1.34,12.78,2.75,26.51,4.24,41.08,1.49,14.58,2.66,29.94,4.16,45.79.62,7.99,1.17,16.07,1.81,24.23.55,8.16,1.11,16.47,1.64,24.78.55,8.39,1.02,16.77,1.34,25.25.47,8.39.7,16.86.94,25.4.62,16.94.7,33.86.79,50.48-.08,8.39-.15,16.62-.23,24.78-.23,8.16-.32,16.24-.7,24.14-.85,15.83-1.64,31.2-2.9,45.71-1.34,14.51-2.9,28.15-4.47,40.76-1.02,6.27-1.88,12.31-2.81,18.03-.79,5.73-1.96,11.13-2.81,16.24-.47,2.51-.94,5.01-1.34,7.37-.55,2.35-1.02,4.62-1.49,6.82-1.02,4.39-1.88,8.46-2.66,12.08-3.6,14.58-5.73,22.89-5.73,22.89,0,0,.94-1.96,2.66-5.56,1.57-3.69,4.24-9.01,7.05-16,1.34-3.54,2.81-7.46,4.47-11.68.79-2.11,1.64-4.31,2.43-6.67.79-2.35,1.57-4.71,2.35-7.22,1.49-5.01,3.37-10.35,4.94-16.07,1.49-5.73,3.05-11.68,4.71-17.96,1.41-6.35,2.9-12.93,4.39-19.75,1.49-6.9,2.43-14.04,3.77-21.33,1.34-7.37,2.2-14.9,3.3-22.65,1.17-7.76,1.64-15.68,2.51-23.76.7-8.08,1.17-16.3,1.81-24.61.47-8.31.85-16.77,1.11-25.25.39-17.01.32-34.26-.23-51.5-.39-8.63-.7-17.24-1.26-25.79-.47-8.63-1.11-17.09-1.81-25.55-1.17-16.94-3.37-33.48-5.26-49.54-2.04-16-4.47-31.37-6.97-45.94-2.43-14.58-5.24-28.3-7.93-40.85-2.66-12.62-5.33-24.14-7.93-34.26-.62-2.58-1.88-7.37-2.04-8.08,66.72,22.35,119.71,96.68,119.71,278.02,0,229.17-99.73,347.8-146.92,391.08-.08.15-.23.32-.47.47-1.81,1.57-3.45,3.07-5.01,4.47-.15.15-.39.23-.55.39-5.26,3.6-11.61,5.65-18.43,5.65l-.07-.02Z"/>
  <path class="cls-1" d="M1444.75,848.44v1410.85c-1.34,27.36-23.29,49.31-50.65,50.65h-5.5c-27.91-1.34-50.1-23.99-50.8-51.97V849.86c.62-28.62,23.59-51.59,52.21-52.21h2.75c28,.7,50.65,22.89,51.97,50.8l.02-.02Z"/>
  <path class="cls-1" d="M1875.13,2377.68c0,16.05-6.14,29.06-13.74,29.06h-934.78c-6.8-.67-12.28-11.8-12.94-26.05v-5.95c.62-13.69,5.78-24.62,12.23-25.95h937.27c6.76,1.79,11.96,14.06,11.96,28.88v.02Z"/>
</svg>