<?xml version="1.0" encoding="UTF-8"?>
<svg id="Capa_2" data-name="Capa 2" xmlns="http://www.w3.org/2000/svg" viewBox="0 0 1804.88 589.8">
  <defs>
    <style>
      .cls-1 {
        fill: #925e43;
      }
    </style>
  </defs>
  <g id="Capa_1-2" data-name="Capa 1">
    <g>
      <g>
        <path class="cls-1" d="M421.17,431.76h61.84c16.4,0,29.15,3.99,38.23,11.97,9.09,7.98,13.63,19.28,13.63,33.92s-4.58,26.01-13.74,34.13c-9.16,8.13-21.87,12.19-38.12,12.19h-43.67v64.06h-18.18v-156.26ZM481.23,508.9c23.79,0,35.69-10.42,35.69-31.25s-11.9-30.81-35.69-30.81h-41.89v62.07h41.89Z"/>
        <path class="cls-1" d="M564.13,588.03v-156.26h98.86v15.07h-80.9v54.31h76.47v15.07h-76.47v56.75h80.9v15.07h-98.86Z"/>
        <path class="cls-1" d="M720.39,580.16c-10.94-6.43-19.32-15.66-25.16-27.71-5.84-12.04-8.75-26.27-8.75-42.67s2.92-30.59,8.75-42.56c5.84-11.97,14.22-21.17,25.16-27.6,10.93-6.43,23.79-9.64,38.57-9.64,10.78,0,20.68,1.66,29.7,4.99,9.01,3.33,16.85,8.24,23.5,14.74l-6.87,13.96c-7.54-6.35-14.93-10.94-22.17-13.75-7.24-2.8-15.22-4.21-23.94-4.21-17.14,0-30.4,5.58-39.79,16.73-9.39,11.16-14.08,26.93-14.08,47.32s4.69,36.39,14.08,47.54c9.38,11.16,22.64,16.73,39.79,16.73,8.72,0,16.7-1.4,23.94-4.21,7.24-2.81,14.63-7.39,22.17-13.75l6.87,13.96c-6.65,6.5-14.48,11.42-23.5,14.74-9.02,3.32-18.92,4.99-29.7,4.99-14.78,0-27.63-3.21-38.57-9.64Z"/>
        <path class="cls-1" d="M957.99,588.03l-17.29-40.12h-81.56l-17.29,40.12h-18.62l68.71-156.26h15.74l68.71,156.26h-18.4ZM865.57,532.84h68.71l-34.35-80.01-34.36,80.01Z"/>
        <path class="cls-1" d="M1107.82,431.76h17.07v156.26h-13.96l-94.2-125.67v125.67h-17.07v-156.26h13.96l94.2,125.67v-125.67Z"/>
        <path class="cls-1" d="M1163.46,588.03v-156.26h98.86v15.07h-80.9v54.31h76.47v15.07h-76.47v56.75h80.9v15.07h-98.86Z"/>
        <path class="cls-1" d="M1281.38,570.08l7.09-13.96c7.68,6.51,15.55,11.16,23.61,13.96,8.05,2.81,17.4,4.21,28.04,4.21,12.56,0,22.24-2.44,29.04-7.32,6.8-4.88,10.19-11.75,10.19-20.61,0-5.17-1.63-9.38-4.88-12.64-3.25-3.25-7.54-5.84-12.86-7.75-5.32-1.92-12.48-3.92-21.5-5.99-12.12-2.81-22.06-5.76-29.81-8.87-7.76-3.1-14.04-7.54-18.84-13.3-4.8-5.77-7.21-13.3-7.21-22.61s2.33-16.73,6.98-23.61c4.66-6.87,11.31-12.19,19.95-15.96,8.64-3.77,18.65-5.65,30.03-5.65,10.78,0,20.87,1.7,30.26,5.1,9.38,3.4,17.32,8.28,23.83,14.63l-6.87,13.96c-7.39-6.35-14.89-10.97-22.5-13.86-7.61-2.88-15.85-4.32-24.71-4.32-12.12,0-21.61,2.55-28.48,7.65-6.87,5.1-10.3,12.23-10.3,21.39,0,7.83,3.03,13.74,9.08,17.73,6.06,3.99,15.22,7.39,27.49,10.19,13.44,3.25,24.01,6.25,31.7,8.98,7.68,2.73,14.07,6.84,19.17,12.3,5.1,5.47,7.65,12.78,7.65,21.94s-2.33,16.62-6.98,23.27c-4.65,6.65-11.34,11.79-20.06,15.4-8.72,3.62-18.92,5.43-30.59,5.43-24.38,0-43.89-6.57-58.51-19.73Z"/>
      </g>
      <g>
        <path class="cls-1" d="M0,64.98h85.93c23.36,0,43.46,4.19,60.33,12.58,16.87,8.39,29.79,20.51,38.78,36.38,8.98,15.87,13.47,34.69,13.47,56.44s-4.44,40.87-13.33,56.74c-8.88,15.87-21.76,27.99-38.63,36.38-16.87,8.39-37.08,12.58-60.63,12.58H0V64.98ZM82.04,231.76c20.76,0,36.23-5.09,46.41-15.27,10.18-10.18,15.27-25.55,15.27-46.11s-5.09-35.88-15.27-45.96c-10.18-10.08-25.65-15.12-46.41-15.12h-26.95v122.47h26.95Z"/>
        <path class="cls-1" d="M275.61,265.44c-15.87-8.88-28.1-21.45-36.68-37.73-8.58-16.27-12.88-35.38-12.88-57.34s4.29-41.07,12.88-57.34c8.58-16.27,20.81-28.79,36.68-37.58,15.87-8.78,34.58-13.17,56.14-13.17s40.27,4.4,56.14,13.17c15.87,8.79,28.04,21.31,36.53,37.58,8.48,16.27,12.72,35.38,12.72,57.34s-4.3,41.07-12.88,57.34c-8.58,16.27-20.81,28.85-36.68,37.73-15.87,8.88-34.49,13.33-55.84,13.33s-40.27-4.44-56.14-13.33ZM369.18,219.63c8.98-11.28,13.48-27.7,13.48-49.26s-4.54-37.92-13.62-49.11c-9.08-11.17-21.51-16.77-37.28-16.77s-28.45,5.54-37.43,16.62c-8.98,11.08-13.47,27.5-13.47,49.25s4.49,38.23,13.47,49.41c8.98,11.18,21.45,16.77,37.43,16.77s28.44-5.64,37.43-16.92Z"/>
        <path class="cls-1" d="M606.62,64.98h51.5v211.09h-40.72l-96.41-120.67v120.67h-51.2V64.98h40.12l96.71,120.67v-120.67Z"/>
        <path class="cls-1" d="M762.01,235.35l24.55-1.5c7.38-.4,12.67-2.19,15.87-5.39,3.19-3.19,4.79-8.28,4.79-15.27V64.98h55.39v147.32c0,20.56-5.49,36.28-16.47,47.15-10.98,10.89-27.65,17.02-50,18.42l-30.84,1.5-3.29-44.02Z"/>
        <path class="cls-1" d="M923.55,255.41c-15.88-15.57-23.81-38.33-23.81-68.27v-122.17h53.89v124.26c0,15.17,3.39,26.85,10.18,35.03,6.78,8.19,16.57,12.28,29.35,12.28s22.55-4.09,29.34-12.28c6.78-8.18,10.18-19.86,10.18-35.03v-124.26h54.2v122.17c0,29.74-8.03,52.45-24.1,68.12-16.08,15.67-39.28,23.51-69.61,23.51s-53.75-7.79-69.61-23.36Z"/>
        <path class="cls-1" d="M1124.01,276.07V64.98h55.1v166.48h89.83v44.61h-144.92Z"/>
        <path class="cls-1" d="M1295.27,276.07V64.98h55.1v211.09h-55.1Z"/>
        <path class="cls-1" d="M1549.48,276.07l-18.86-43.71h-93.42l-18.86,43.71h-55.39l98.51-211.09h43.71l98.81,211.09h-54.49ZM1454.86,191.03h58.09l-29.04-67.67-29.04,67.67ZM1499.48,47.01h-32.33l31.14-47.01h47.61l-46.41,47.01Z"/>
        <path class="cls-1" d="M1753.38,64.98h51.5v211.09h-40.72l-96.42-120.67v120.67h-51.2V64.98h40.13l96.71,120.67v-120.67Z"/>
      </g>
    </g>
  </g>
</svg>