<?xml version="1.0" encoding="UTF-8"?>
<svg id="Capa_2" data-name="Capa 2" xmlns="http://www.w3.org/2000/svg" viewBox="0 0 890.17 139.33">
  <defs>
    <style>
      .cls-1 {
        fill: #3d1b13;
      }
    </style>
  </defs>
  <g id="Capa_1-2" data-name="Capa 1">
    <g>
      <path class="cls-1" d="M119.63,137.27h-25.1L32.02,57.58v79.69H0V0h25.29l62.32,79.5V0h32.02v137.27ZM96.96,132.27h17.67V5h-22.02v88.98L22.86,5H5v127.27h22.02V43.1l69.95,89.16Z"/>
      <path class="cls-1" d="M277.5,137.27h-34.81l-12.38-28.71h-58.43l-12.2,28.71h-35.01L187.76,0h26.66l63.09,137.27ZM245.98,132.27h23.72L211.21,5h-20.25l-58.49,127.27h23.9l12.2-28.71h65.02l12.38,28.71ZM226.16,85.86h-49.93l22.91-54.91h3.69l23.32,54.91ZM183.74,80.86h34.87l-17.59-41.41-17.28,41.41Z"/>
      <path class="cls-1" d="M333.33,137.27h-34.08V29.01h-43.71V0h121.51v29.01h-43.71v108.25ZM304.25,132.27h24.08V24.01h43.71V5h-111.51v19.01h43.71v108.25Z"/>
      <path class="cls-1" d="M445.46,139.33c-19.35,0-34.37-5.1-44.62-15.16-10.27-10.07-15.48-25.13-15.48-44.75V0h34.08v79.61c0,10.07,2.25,17.68,6.68,22.63,4.42,4.93,10.75,7.33,19.34,7.33,17.38,0,25.83-9.8,25.83-29.96V0h33.71v79.42c0,19.61-5.11,34.66-15.18,44.73-10.07,10.07-25,15.18-44.36,15.18ZM390.36,5v74.42c0,18.23,4.7,32.08,13.98,41.18,9.29,9.11,23.12,13.73,41.12,13.73s31.72-4.61,40.82-13.71c9.1-9.1,13.71-22.96,13.71-41.2V5h-23.71v74.61c0,28.89-16.77,34.96-30.83,34.96-9.95,0-17.71-3.03-23.06-8.99-5.28-5.89-7.96-14.62-7.96-25.97V5h-24.08Z"/>
      <path class="cls-1" d="M647.42,137.27h-37.78l-23.6-43.52c-1.6-2.87-3.56-4.89-5.82-5.97-2.4-1.15-5.32-1.73-8.68-1.73h-11.76v51.22h-34.08V0h62.91c15.32,0,27.37,3.81,35.81,11.33,8.52,7.59,12.84,18.26,12.84,31.7,0,10.4-2.73,19.22-8.12,26.2-4.19,5.43-9.81,9.55-16.74,12.29,4.52,2.81,8.41,7.1,11.6,12.82l23.42,42.93ZM612.61,132.27h26.38l-19.37-35.51c-3.9-6.99-8.9-11.45-14.85-13.25l-8.63-2.61,8.74-2.21c8.78-2.22,15.61-6.43,20.3-12.52,4.7-6.09,7.08-13.88,7.08-23.15,0-12.12-3.65-21.27-11.17-27.96-7.5-6.68-18.43-10.06-32.48-10.06h-57.91v127.27h24.08v-51.22h16.76c4.11,0,7.75.74,10.83,2.21,3.22,1.54,5.93,4.25,8.05,8.08l22.19,40.93ZM583.36,65.04h-28.58V22.7h28.58c21.45,0,25.95,11.46,25.95,21.07s-4.5,21.26-25.95,21.26ZM559.78,60.04h23.58c18.78,0,20.95-9.28,20.95-16.26s-2.17-16.07-20.95-16.07h-23.58v32.34Z"/>
      <path class="cls-1" d="M789.88,137.27h-34.81l-12.38-28.71h-58.43l-12.19,28.71h-35.01L700.14,0h26.66l63.09,137.27ZM758.36,132.27h23.72l-58.49-127.27h-20.25l-58.49,127.27h23.9l12.19-28.71h65.03l12.38,28.71ZM738.54,85.86h-49.93l22.91-54.91h3.69l23.32,54.91ZM696.11,80.86h34.87l-17.59-41.41-17.28,41.41Z"/>
      <path class="cls-1" d="M890.17,137.27h-95.24V0h34.08v107.69h61.16v29.58ZM799.93,132.27h85.24v-19.58h-61.16V5h-24.08v127.27Z"/>
    </g>
  </g>
</svg>